<svg width="52" height="52" viewBox="0 0 52 52" fill="none" xmlns="http://www.w3.org/2000/svg">
<g filter="url(#filter0_d_1_10033)">
<circle cx="26" cy="23" r="16" fill="#4910AE"/>
</g>
<path d="M22.625 20.1875V22.4375H20.375V23.5625H22.625V25.8125H23.75V23.5625H26V22.4375H23.75V20.1875H22.625Z" fill="white"/>
<path d="M30.5 16.25V22.4375H28.25V19.0625C28.2496 18.7643 28.1309 18.4784 27.92 18.2675C27.7091 18.0566 27.4232 17.9379 27.125 17.9375H19.25C18.9517 17.9378 18.6657 18.0564 18.4548 18.2673C18.2439 18.4782 18.1253 18.7642 18.125 19.0625V26.9375C18.1253 27.2358 18.2439 27.5218 18.4548 27.7327C18.6657 27.9436 18.9517 28.0622 19.25 28.0625H27.125C27.4233 28.0622 27.7093 27.9436 27.9202 27.7327C28.1311 27.5218 28.2497 27.2358 28.25 26.9375V23.5625H30.5V29.75C30.5 30.0484 30.6185 30.3345 30.8295 30.5455C31.0405 30.7565 31.3266 30.875 31.625 30.875H33.875V29.75H31.625V23.5625H33.875V22.4375H31.625V16.25H33.875V15.125L31.625 15.125C31.3266 15.125 31.0405 15.2435 30.8295 15.4545C30.6185 15.6655 30.5 15.9516 30.5 16.25ZM19.25 26.9375V19.0625L27.125 19.0614V26.9375H19.25Z" fill="white"/>
<defs>
<filter id="filter0_d_1_10033" x="0" y="0" width="52" height="52" filterUnits="userSpaceOnUse" color-interpolation-filters="sRGB">
<feFlood flood-opacity="0" result="BackgroundImageFix"/>
<feColorMatrix in="SourceAlpha" type="matrix" values="0 0 0 0 0 0 0 0 0 0 0 0 0 0 0 0 0 0 127 0" result="hardAlpha"/>
<feOffset dy="3"/>
<feGaussianBlur stdDeviation="5"/>
<feComposite in2="hardAlpha" operator="out"/>
<feColorMatrix type="matrix" values="0 0 0 0 0.716667 0 0 0 0 0.716667 0 0 0 0 0.716667 0 0 0 0.25 0"/>
<feBlend mode="normal" in2="BackgroundImageFix" result="effect1_dropShadow_1_10033"/>
<feBlend mode="normal" in="SourceGraphic" in2="effect1_dropShadow_1_10033" result="shape"/>
</filter>
</defs>
</svg>
