<svg width="31" height="30" viewBox="0 0 31 30" fill="none" xmlns="http://www.w3.org/2000/svg">
<path d="M27.6098 7.5C27.2155 7.5001 26.8272 7.59337 26.4786 7.77172C26.13 7.95006 25.8316 8.20808 25.6095 8.52336C25.3873 8.83865 25.2481 9.20165 25.2039 9.58084C25.1596 9.96004 25.2117 10.3439 25.3557 10.6992L20.2594 15.6311C19.6913 15.4146 19.0596 15.4146 18.4915 15.6311L14.8484 12.1055C14.9926 11.7501 15.045 11.366 15.0009 10.9866C14.9568 10.6072 14.8177 10.244 14.5955 9.92851C14.3733 9.61302 14.0748 9.35484 13.7261 9.17641C13.3773 8.99798 12.9887 8.90471 12.5942 8.90471C12.1997 8.90471 11.8111 8.99798 11.4624 9.17641C11.1136 9.35484 10.8151 9.61302 10.5929 9.92851C10.3707 10.244 10.2316 10.6072 10.1875 10.9866C10.1434 11.366 10.1958 11.7501 10.34 12.1055L4.27506 17.9748C3.7571 17.7782 3.18497 17.7601 2.65487 17.9237C2.12478 18.0873 1.66905 18.4225 1.36431 18.873C1.05957 19.3235 0.924415 19.8618 0.981562 20.3974C1.03871 20.933 1.28468 21.4332 1.6781 21.814C2.07153 22.1947 2.58843 22.4327 3.14188 22.488C3.69533 22.5433 4.25158 22.4125 4.71709 22.1176C5.18261 21.8227 5.52901 21.3817 5.69804 20.8687C5.86707 20.3557 5.84842 19.802 5.64524 19.3008L11.7102 13.4314C12.2783 13.6479 12.9101 13.6479 13.4782 13.4314L17.1213 16.957C16.977 17.3124 16.9247 17.6965 16.9687 18.0759C17.0128 18.4553 17.152 18.8185 17.3742 19.134C17.5964 19.4495 17.8948 19.7077 18.2436 19.8861C18.5924 20.0645 18.9809 20.1578 19.3755 20.1578C19.77 20.1578 20.1585 20.0645 20.5073 19.8861C20.8561 19.7077 21.1545 19.4495 21.3767 19.134C21.5989 18.8185 21.7381 18.4553 21.7822 18.0759C21.8262 17.6965 21.7739 17.3124 21.6296 16.957L26.7258 12.0252C27.0575 12.1513 27.4138 12.205 27.7693 12.1825C28.1248 12.16 28.4709 12.0619 28.7827 11.8952C29.0946 11.7284 29.3646 11.4971 29.5735 11.2178C29.7823 10.9384 29.925 10.6179 29.9911 10.2791C30.0573 9.94031 30.0454 9.59155 29.9564 9.25769C29.8673 8.92384 29.7032 8.61313 29.4757 8.3477C29.2483 8.08228 28.9631 7.86869 28.6406 7.72216C28.3181 7.57563 27.9661 7.49977 27.6098 7.5V7.5Z" fill="white"/>
</svg>
