<svg xmlns="http://www.w3.org/2000/svg" width="325.095" height="192.279" viewBox="0 0 325.095 192.279">
  <g id="undraw_chat_bot_re_e2gj" transform="translate(0 27.195)">
    <path id="Path_86" data-name="Path 86" d="M198.386,634.844c-6.441,5.492-7.778,14.5-7.778,14.5s9.106.1,15.547-5.389,7.778-14.5,7.778-14.5S204.827,629.351,198.386,634.844Z" transform="translate(-181.878 -484.504)" fill="#f2f2f2"/>
    <path id="Path_87" data-name="Path 87" d="M198.3,620.407c-2.744,8.008-10.632,12.559-10.632,12.559s-3.44-8.432-.7-16.44S197.6,603.966,197.6,603.966,201.04,612.4,198.3,620.407Z" transform="translate(-178.812 -467.882)" fill="#f2f2f2"/>
    <path id="Path_88" data-name="Path 88" d="M355.8,280.779c-1.457-1.888-3.517-3.636-3.648-5.966-.12-2.137,1.474-4.259.8-6.3-.517-1.572-2.222-2.521-3.888-3.023a15.11,15.11,0,0,0-9.71.374l.169-.119a5.88,5.88,0,0,0-5.605,1.314,11.843,11.843,0,0,0-3.067,4.876,38.185,38.185,0,0,1-2.177,5.336,7.829,7.829,0,0,1-4.352,3.793,2.733,2.733,0,0,0,3.853.844,4.877,4.877,0,0,0,.811-.838l2.372-2.884c.814,1.447-.4,3.444.6,4.784a3.8,3.8,0,0,0,2.332,1.141,42.186,42.186,0,0,0,20.638-.765,2.014,2.014,0,0,0,1.358-.866A1.748,1.748,0,0,0,355.8,280.779Z" transform="translate(-269.079 -246.731)" fill="#2f2e41"/>
    <path id="Path_89" data-name="Path 89" d="M428.3,326.529a3.657,3.657,0,0,0-.083.57l-14.943,8.62-3.632-2.091-3.872,5.069,6.07,4.326a2.783,2.783,0,0,0,3.339-.081l15.408-12.156a3.651,3.651,0,1,0-2.287-4.258Z" transform="translate(-322.196 -285.112)" fill="#ffb7b7"/>
    <path id="Path_90" data-name="Path 90" d="M399.011,346.153l-4.829,6.259a1.565,1.565,0,0,1-2.367.13l-5.467-5.677A4.347,4.347,0,1,1,391.679,340l6.857,3.834a1.565,1.565,0,0,1,.475,2.322Z" transform="translate(-308.434 -295.137)" fill="#6c63ff"/>
    <path id="Path_91" data-name="Path 91" d="M241.287,429.427h4.265l2.029-16.449h-6.294Z" transform="translate(-157.356 -269.353)" fill="#ffb7b7"/>
    <path id="Path_92" data-name="Path 92" d="M403.67,668.928h8.4a5.352,5.352,0,0,1,5.352,5.352v.174H403.671Z" transform="translate(-320.828 -510.247)" fill="#2f2e41"/>
    <path id="Path_93" data-name="Path 93" d="M157.287,429.427h4.265l2.029-16.449h-6.294Z" transform="translate(-102.575 -269.353)" fill="#ffb7b7"/>
    <path id="Path_94" data-name="Path 94" d="M319.67,668.928h8.4a5.352,5.352,0,0,1,5.352,5.352v.174H319.671Z" transform="translate(-266.046 -510.247)" fill="#2f2e41"/>
    <circle id="Ellipse_18" data-name="Ellipse 18" cx="7.37" cy="7.37" r="7.37" transform="translate(65.914 37.44) rotate(-83.735)" fill="#ffb7b7"/>
    <path id="Path_114" data-name="Path 114" d="M550.323,268.311H413.937a12.413,12.413,0,0,1-12.4-12.4v-106.2a12.413,12.413,0,0,1,12.4-12.4H550.323a12.413,12.413,0,0,1,12.4,12.4v106.2A12.413,12.413,0,0,1,550.323,268.311Z" transform="translate(-237.626 -164.511)" fill="#f2f2f2"/>
    <path id="Path_95" data-name="Path 95" d="M342.139,333.391l4.342,2.151s4.851,8.431,2.068,16.431C347.2,355.858,351,368.24,351,368.24s5.895,56.085,5.913,73.4c-7.323,1.126-14.28,2.517-14.628-.961s-4.155-44.607-4.155-44.607-5.236,45.65-9.41,46.346-12.522-.348-12.522-.348,6.628-66.869,11.15-71.043l.7-3.478-.019-31.224,5.21-2.486Z" transform="translate(-263.783 -291.425)" fill="#2f2e41"/>
    <path id="Path_96" data-name="Path 96" d="M335.682,395.438a3.737,3.737,0,0,0,1.145-5.614l5.05-33.658-6.6-.317-3.936,33.519a3.757,3.757,0,0,0,4.339,6.07Z" transform="translate(-272.858 -306.071)" fill="#ffb7b7"/>
    <path id="Path_97" data-name="Path 97" d="M345.972,354.464l-7.89-.5a1.565,1.565,0,0,1-1.432-1.889l1.644-7.708a4.347,4.347,0,1,1,8.675.573l.661,7.828a1.565,1.565,0,0,1-1.658,1.693Z" transform="translate(-277.097 -295.936)" fill="#6c63ff"/>
    <path id="Path_98" data-name="Path 98" d="M654.275,289.249H479.8a4.8,4.8,0,0,0-4.8,4.8v97.215a4.8,4.8,0,0,0,4.8,4.8H654.275a4.8,4.8,0,0,0,4.8-4.8V294.051A4.8,4.8,0,0,0,654.275,289.249Z" transform="translate(-367.343 -262.637)" fill="#3f3d56"/>
    <rect id="Rectangle_25" data-name="Rectangle 25" width="171.204" height="96.577" transform="translate(114.092 35.099)" fill="#fff"/>
    <circle id="Ellipse_19" data-name="Ellipse 19" cx="1.756" cy="1.756" r="1.756" transform="translate(197.792 28.953)" fill="#fff"/>
    <path id="Path_99" data-name="Path 99" d="M450.239,197.56H328V100.983Z" transform="translate(-213.904 -65.884)" fill="#f2f2f2" style="isolation: isolate"/>
    <path id="Path_100" data-name="Path 100" d="M650.167,583.539H633.459v-1.2a.239.239,0,0,0-.239-.239h-5.729a.239.239,0,0,0-.239.239v1.2h-3.58v-1.2a.239.239,0,0,0-.239-.239h-5.729a.239.239,0,0,0-.239.239h0v1.2h-3.58v-1.2a.239.239,0,0,0-.239-.239h-5.729a.239.239,0,0,0-.239.239h0v1.2H604.1v-1.2a.239.239,0,0,0-.239-.239h-5.729a.239.239,0,0,0-.239.239v1.2h-3.58v-1.2a.239.239,0,0,0-.239-.239h-5.729a.239.239,0,0,0-.239.239h0v1.2h-3.58v-1.2a.239.239,0,0,0-.239-.239H578.56a.239.239,0,0,0-.239.239h0v1.2h-3.58v-1.2a.239.239,0,0,0-.239-.239H529.628a.239.239,0,0,0-.239.239h0v1.2h-3.58v-1.2a.239.239,0,0,0-.239-.239h-5.729a.239.239,0,0,0-.239.239h0v1.2h-3.58v-1.2a.239.239,0,0,0-.239-.239h-5.729a.239.239,0,0,0-.239.239h0v1.2h-3.58v-1.2A.239.239,0,0,0,506,582.1h-5.729a.239.239,0,0,0-.239.239h0v1.2h-3.58v-1.2a.239.239,0,0,0-.239-.239h-5.729a.239.239,0,0,0-.239.239h0v1.2h-3.58v-1.2a.239.239,0,0,0-.239-.239H480.7a.239.239,0,0,0-.239.239v1.2h-3.58v-1.2a.239.239,0,0,0-.239-.239H470.91a.239.239,0,0,0-.239.239h0v1.2h-10.98a5.729,5.729,0,0,0-5.729,5.729v2.59a5.729,5.729,0,0,0,5.729,5.729H650.167a5.729,5.729,0,0,0,5.729-5.729v-2.59A5.729,5.729,0,0,0,650.167,583.539Z" transform="translate(-353.626 -453.619)" fill="#3f3d56"/>
    <path id="Path_101" data-name="Path 101" d="M730.85,549.583a4.209,4.209,0,0,1-.193.4,5.066,5.066,0,0,1-9.524-2.408v-.818h.694a17.72,17.72,0,0,0,9.022,2.828Z" transform="translate(-527.863 -430.571)" fill="#3f3d56"/>
    <path id="Path_102" data-name="Path 102" d="M759.321,547.443v.578a5.064,5.064,0,0,1-9.511,2.424,4.209,4.209,0,0,1-.2-.408c.148,0,.294.006.442.006a17.746,17.746,0,0,0,9.27-2.6Z" transform="translate(-546.433 -431.02)" fill="#3f3d56"/>
    <path id="Path_103" data-name="Path 103" d="M796.288,371.568c-.152-.022-.306-.036-.461-.047a17.039,17.039,0,0,1,.339,12.723c.154-.018.306-.043.458-.071a6.391,6.391,0,0,0-.337-12.605Z" transform="translate(-576.575 -316.292)" fill="#3f3d56"/>
    <path id="Path_104" data-name="Path 104" d="M694.735,371.522c-.154.01-.308.024-.46.047a6.391,6.391,0,0,0-.337,12.605c.152.028.3.053.458.071A17.04,17.04,0,0,1,694.735,371.522Z" transform="translate(-506.751 -316.292)" fill="#3f3d56"/>
    <path id="Path_105" data-name="Path 105" d="M734.266,351.572a17.446,17.446,0,1,0,1.353,6.736A17.446,17.446,0,0,0,734.266,351.572Zm-.122,12.677a17.038,17.038,0,1,1,1.069-5.941A17.038,17.038,0,0,1,734.144,364.248Z" transform="translate(-514.552 -296.295)" fill="#3f3d56"/>
    <path id="Path_106" data-name="Path 106" d="M736.414,379.647H718.56a3.551,3.551,0,0,0,0,7.1h17.854a3.551,3.551,0,0,0,0-7.1Z" transform="translate(-523.869 -321.591)" fill="#3f3d56"/>
    <path id="Path_107" data-name="Path 107" d="M732.642,460.541q-.1-.18-.2-.353l-.006-.01a18.253,18.253,0,1,0-16.59,27.441c.193.01.388.016.582.016.081,0,.16,0,.242,0a18.126,18.126,0,0,0,9.27-2.534,18.38,18.38,0,0,0,7.089-7.618l.006-.01c.061-.122.12-.245.179-.371A18.234,18.234,0,0,0,732.642,460.541Zm.174,16.452q-.088.189-.183.371a17.979,17.979,0,0,1-6.7,7.267,17.746,17.746,0,0,1-9.27,2.6c-.148,0-.294,0-.442-.006q-.094,0-.189-.006a17.854,17.854,0,1,1,15.992-26.929l.006.01c.071.116.14.233.205.351A17.832,17.832,0,0,1,732.816,476.993Z" transform="translate(-513.05 -368.209)" fill="#3f3d56"/>
    <path id="Path_108" data-name="Path 108" d="M770.053,479a2.109,2.109,0,0,0-1.217-.392h-7.98a2.1,2.1,0,0,0,0,4.192h7.98a2.071,2.071,0,0,0,.424-.043,2.306,2.306,0,0,0,.406-.128,2.1,2.1,0,0,0,.388-3.63Z" transform="translate(-552.401 -386.131)" fill="#3f3d56"/>
    <circle id="Ellipse_20" data-name="Ellipse 20" cx="1.064" cy="1.064" r="1.064" transform="translate(207.922 93.512)" fill="#f1f1f1"/>
    <circle id="Ellipse_21" data-name="Ellipse 21" cx="1.064" cy="1.064" r="1.064" transform="translate(211.38 93.512)" fill="#f1f1f1"/>
    <circle id="Ellipse_22" data-name="Ellipse 22" cx="1.064" cy="1.064" r="1.064" transform="translate(214.838 93.512)" fill="#6c63ff"/>
    <path id="Path_109" data-name="Path 109" d="M868.51,272.823c-2.767,1.659-7.7,3.739-12.735,1.6l-3.257-1.381,6.526-7.316a31.168,31.168,0,1,1,9.466,7.1Z" transform="translate(-612.532 -213.316)" fill="#fff"/>
    <path id="Path_110" data-name="Path 110" d="M867.874,272.566c-2.659,1.561-7.724,3.718-12.888,1.528l-3.7-1.571,6.642-7.445a31.516,31.516,0,1,1,44.726,2.4h0a31.375,31.375,0,0,1-34.776,5.083Zm36.433-49.133a30.82,30.82,0,0,0-45.658,41.41l.21.232-6.411,7.187,2.81,1.192c4.987,2.116,9.922-.082,12.42-1.58l.161-.1.169.082a30.82,30.82,0,0,0,36.3-48.426Z" transform="translate(-611.879 -212.665)" fill="#6c63ff"/>
    <path id="Path_111" data-name="Path 111" d="M967.19,248.893a28.683,28.683,0,0,0-26.145-28.569c.834-.073,1.679-.113,2.533-.113a28.682,28.682,0,1,1,0,57.364c-.853,0-1.7-.04-2.531-.113A28.683,28.683,0,0,0,967.19,248.893Z" transform="translate(-671.28 -217.614)" opacity="0.1" style="isolation: isolate"/>
    <rect id="Rectangle_26" data-name="Rectangle 26" width="20.495" height="1.903" transform="translate(253.151 25.56)" fill="#6c63ff"/>
    <rect id="Rectangle_27" data-name="Rectangle 27" width="35.721" height="1.903" transform="translate(253.151 32.143)" fill="#6c63ff"/>
    <rect id="Rectangle_28" data-name="Rectangle 28" width="35.686" height="1.903" transform="translate(253.151 38.727)" fill="#6c63ff"/>
    <path id="Path_112" data-name="Path 112" d="M298.386,684.555H165.858a.348.348,0,0,1,0-.7H298.386a.348.348,0,0,1,0,.7Z" transform="translate(-165.51 -519.984)" fill="#cbcbcb"/>
    <path id="Path_113" data-name="Path 113" d="M370.052,278.48a5.622,5.622,0,0,0-2.295-3.173,9.4,9.4,0,0,0-12.013.731,6.139,6.139,0,0,0-1.855,2.974,3.648,3.648,0,0,0,.777,3.321l.147.092a1.327,1.327,0,0,1,.832-1.382,6.646,6.646,0,0,1,1.7-.381,6.238,6.238,0,0,0,4.229-2.984,7.045,7.045,0,0,0,4.038,4.208c.974.381,3.65.9,4.577.421C371.368,281.691,370.339,279.783,370.052,278.48Z" transform="translate(-288.284 -252.353)" fill="#2f2e41"/>
  </g>
</svg>
