<svg width="38" height="39" viewBox="0 0 38 39" fill="none" xmlns="http://www.w3.org/2000/svg">
<path d="M37.5 19.5C37.5 30.0057 29.2051 38.5 19 38.5C8.7949 38.5 0.5 30.0057 0.5 19.5C0.5 8.99427 8.7949 0.5 19 0.5C29.2051 0.5 37.5 8.99427 37.5 19.5Z" fill="white" stroke="black"/>
<ellipse cx="18.9999" cy="19.5" rx="16.8837" ry="16.5" fill="#EA5F5F"/>
<path d="M19 21.6875C18.759 21.6875 18.5233 21.759 18.3229 21.8929C18.1225 22.0268 17.9663 22.2172 17.874 22.4399C17.7818 22.6626 17.7576 22.9076 17.8047 23.144C17.8517 23.3804 17.9678 23.5976 18.1382 23.768C18.3087 23.9385 18.5258 24.0546 18.7622 24.1016C18.9986 24.1486 19.2437 24.1245 19.4664 24.0322C19.6891 23.94 19.8794 23.7838 20.0134 23.5834C20.1473 23.3829 20.2188 23.1473 20.2188 22.9062C20.2188 22.583 20.0903 22.273 19.8618 22.0445C19.6332 21.8159 19.3232 21.6875 19 21.6875ZM18.1875 12.75H19.8125V20.0625H18.1875V12.75Z" fill="black"/>
<path d="M29.5622 27.375H8.43717C8.29764 27.3749 8.16047 27.3389 8.03889 27.2705C7.9173 27.202 7.81539 27.1034 7.74298 26.9841C7.67057 26.8649 7.63009 26.729 7.62545 26.5895C7.62081 26.45 7.65216 26.3117 7.71649 26.1879L18.279 5.87542C18.3476 5.74358 18.4511 5.6331 18.5782 5.55599C18.7053 5.47888 18.851 5.43811 18.9997 5.43811C19.1483 5.43811 19.2941 5.47888 19.4212 5.55599C19.5482 5.6331 19.6517 5.74358 19.7204 5.87542L30.2829 26.1879C30.3472 26.3117 30.3785 26.45 30.3739 26.5895C30.3693 26.729 30.3288 26.8649 30.2564 26.9841C30.184 27.1034 30.0821 27.202 29.9605 27.2705C29.8389 27.3389 29.7017 27.3749 29.5622 27.375ZM9.7778 25.75H28.2215L28.2224 25.7475L19.0013 8.01311H18.998L9.77617 25.7475L9.7778 25.75Z" fill="white"/>
</svg>
