<svg width="54" height="55" viewBox="0 0 54 55" fill="none" xmlns="http://www.w3.org/2000/svg">
<ellipse cx="27" cy="27.5" rx="27" ry="27.5" fill="#F0A536"/>
<path d="M13.592 27.416C13.592 26.328 13.8427 25.352 14.344 24.488C14.856 23.624 15.544 22.952 16.408 22.472C17.2827 21.9813 18.2373 21.736 19.272 21.736C20.456 21.736 21.5067 22.0293 22.424 22.616C23.352 23.192 24.024 24.0133 24.44 25.08H22.248C21.96 24.4933 21.56 24.056 21.048 23.768C20.536 23.48 19.944 23.336 19.272 23.336C18.536 23.336 17.88 23.5013 17.304 23.832C16.728 24.1627 16.2747 24.6373 15.944 25.256C15.624 25.8747 15.464 26.5947 15.464 27.416C15.464 28.2373 15.624 28.9573 15.944 29.576C16.2747 30.1947 16.728 30.6747 17.304 31.016C17.88 31.3467 18.536 31.512 19.272 31.512C19.944 31.512 20.536 31.368 21.048 31.08C21.56 30.792 21.96 30.3547 22.248 29.768H24.44C24.024 30.8347 23.352 31.656 22.424 32.232C21.5067 32.808 20.456 33.096 19.272 33.096C18.2267 33.096 17.272 32.856 16.408 32.376C15.544 31.8853 14.856 31.208 14.344 30.344C13.8427 29.48 13.592 28.504 13.592 27.416ZM38.287 21.88V33H36.463V25.384L33.071 33H31.807L28.399 25.384V33H26.575V21.88H28.543L32.447 30.6L36.335 21.88H38.287Z" fill="white"/>
</svg>
