<svg xmlns="http://www.w3.org/2000/svg" width="35.733" height="32.16" viewBox="0 0 35.733 32.16">
  <path id="conversion_white" d="M30.373,32.16a5.336,5.336,0,0,1-5.047-3.573H16.08a6.882,6.882,0,0,1-5.047-2.1,7.117,7.117,0,0,1,0-10.095,6.882,6.882,0,0,1,5.047-2.1h3.573a3.584,3.584,0,0,0,3.573-3.573,3.581,3.581,0,0,0-3.573-3.573H10.407A5.528,5.528,0,0,1,8.465,9.716a5.1,5.1,0,0,1-3.105,1,5.169,5.169,0,0,1-3.8-1.563A5.169,5.169,0,0,1,0,5.36a5.169,5.169,0,0,1,1.563-3.8A5.169,5.169,0,0,1,5.36,0,5.1,5.1,0,0,1,8.465,1a5.528,5.528,0,0,1,1.942,2.569h9.246a6.882,6.882,0,0,1,5.047,2.1,6.882,6.882,0,0,1,2.1,5.047,6.882,6.882,0,0,1-2.1,5.047,6.882,6.882,0,0,1-5.047,2.1H16.08a3.569,3.569,0,0,0-2.523,6.1,3.44,3.44,0,0,0,2.523,1.049h9.246a5.524,5.524,0,0,1,1.944-2.569,5.094,5.094,0,0,1,3.1-1,5.338,5.338,0,0,1,5.36,5.36,5.338,5.338,0,0,1-5.36,5.36ZM5.36,7.147A1.752,1.752,0,0,0,7.147,5.36,1.752,1.752,0,0,0,5.36,3.573,1.752,1.752,0,0,0,3.573,5.36,1.752,1.752,0,0,0,5.36,7.147Z" fill="#fff"/>
</svg>
