<svg width="23" height="25" viewBox="0 0 23 25" fill="none" xmlns="http://www.w3.org/2000/svg">
<path d="M13.5 4C13.5 3.33696 13.2366 2.70107 12.7678 2.23223C12.2989 1.76339 11.663 1.5 11 1.5C10.337 1.5 9.70107 1.76339 9.23223 2.23223C8.76339 2.70107 8.5 3.33696 8.5 4H13.5ZM7 4C7 2.93913 7.42143 1.92172 8.17157 1.17157C8.92172 0.421427 9.93913 0 11 0C12.0609 0 13.0783 0.421427 13.8284 1.17157C14.5786 1.92172 15 2.93913 15 4H21.25C21.4489 4 21.6397 4.07902 21.7803 4.21967C21.921 4.36032 22 4.55109 22 4.75C22 4.94891 21.921 5.13968 21.7803 5.28033C21.6397 5.42098 21.4489 5.5 21.25 5.5H19.94L19.432 11.595C18.9599 11.3941 18.4683 11.2427 17.965 11.143L18.435 5.5H3.565L4.772 19.978C4.82919 20.6654 5.14262 21.3062 5.65015 21.7734C6.15767 22.2405 6.82222 22.4999 7.512 22.5H10.155C10.5037 23.0518 10.9225 23.556 11.401 24H7.512C6.44599 23.9999 5.41894 23.5992 4.6345 22.8774C3.85007 22.1556 3.36554 21.1653 3.277 20.103L2.06 5.5H0.75C0.551088 5.5 0.360322 5.42098 0.21967 5.28033C0.0790175 5.13968 0 4.94891 0 4.75C0 4.55109 0.0790175 4.36032 0.21967 4.21967C0.360322 4.07902 0.551088 4 0.75 4H7ZM23 18.5C23 20.2239 22.3152 21.8772 21.0962 23.0962C19.8772 24.3152 18.2239 25 16.5 25C14.7761 25 13.1228 24.3152 11.9038 23.0962C10.6848 21.8772 10 20.2239 10 18.5C10 16.7761 10.6848 15.1228 11.9038 13.9038C13.1228 12.6848 14.7761 12 16.5 12C18.2239 12 19.8772 12.6848 21.0962 13.9038C22.3152 15.1228 23 16.7761 23 18.5V18.5ZM16.5 17.793L13.854 15.146C13.7601 15.0521 13.6328 14.9994 13.5 14.9994C13.3672 14.9994 13.2399 15.0521 13.146 15.146C13.0521 15.2399 12.9994 15.3672 12.9994 15.5C12.9994 15.6328 13.0521 15.7601 13.146 15.854L15.793 18.5L13.146 21.146C13.0521 21.2399 12.9994 21.3672 12.9994 21.5C12.9994 21.6328 13.0521 21.7601 13.146 21.854C13.2399 21.9479 13.3672 22.0006 13.5 22.0006C13.6328 22.0006 13.7601 21.9479 13.854 21.854L16.5 19.207L19.146 21.854C19.2399 21.9479 19.3672 22.0006 19.5 22.0006C19.6328 22.0006 19.7601 21.9479 19.854 21.854C19.9479 21.7601 20.0006 21.6328 20.0006 21.5C20.0006 21.3672 19.9479 21.2399 19.854 21.146L17.207 18.5L19.854 15.854C19.9479 15.7601 20.0006 15.6328 20.0006 15.5C20.0006 15.3672 19.9479 15.2399 19.854 15.146C19.7601 15.0521 19.6328 14.9994 19.5 14.9994C19.3672 14.9994 19.2399 15.0521 19.146 15.146L16.5 17.793Z" fill="white"/>
</svg>
