<svg xmlns="http://www.w3.org/2000/svg" width="14.84" height="22.059" viewBox="0 0 14.84 22.059">
  <g id="bin_cyan" transform="translate(-236.32 -102.22)">
    <path id="Path_154" data-name="Path 154" d="M423.806,105.219a.471.471,0,0,1-.471-.471v-.98a.606.606,0,0,0-.606-.606h-1.852a.606.606,0,0,0-.606.606v.98a.471.471,0,0,1-.942,0v-.98a1.55,1.55,0,0,1,1.548-1.548h1.852a1.55,1.55,0,0,1,1.548,1.548v.98A.471.471,0,0,1,423.806,105.219Z" transform="translate(-178.084)" fill="#dd0c29"/>
    <path id="Path_155" data-name="Path 155" d="M270.6,327.994H260.048a1.549,1.549,0,0,1-1.548-1.548V313.118a1.55,1.55,0,0,1,1.548-1.548H270.6a1.55,1.55,0,0,1,1.548,1.548v13.329A1.549,1.549,0,0,1,270.6,327.994Zm-10.551-15.482a.606.606,0,0,0-.606.606v13.329a.606.606,0,0,0,.606.606H270.6a.606.606,0,0,0,.606-.606V313.118a.606.606,0,0,0-.606-.606Z" transform="translate(-21.583 -203.715)" fill="#dd0c29"/>
    <path id="Path_156" data-name="Path 156" d="M364.411,431.62a.471.471,0,0,1-.471-.471v-9.627a.471.471,0,0,1,.942,0v9.627A.471.471,0,0,1,364.411,431.62Z" transform="translate(-124.185 -310.249)" fill="#dd0c29"/>
    <path id="Path_157" data-name="Path 157" d="M494.2,431.62a.471.471,0,0,1-.471-.471v-9.627a.471.471,0,1,1,.942,0v9.627a.471.471,0,0,1-.471.471Z" transform="translate(-250.482 -310.249)" fill="#dd0c29"/>
    <path id="Path_158" data-name="Path 158" d="M623.971,431.62a.471.471,0,0,1-.471-.471v-9.627a.471.471,0,1,1,.942,0v9.627a.471.471,0,0,1-.471.471Z" transform="translate(-376.759 -310.249)" fill="#dd0c29"/>
    <path id="Path_159" data-name="Path 159" d="M250.689,184.693h-1.312a.471.471,0,1,1,0-.942h.841V183.4a.606.606,0,0,0-.606-.606H237.868a.606.606,0,0,0-.606.606v.354h10.376a.471.471,0,1,1,0,.942H236.791a.471.471,0,0,1-.471-.471V183.4a1.55,1.55,0,0,1,1.548-1.548h11.745a1.55,1.55,0,0,1,1.548,1.548v.825A.471.471,0,0,1,250.689,184.693Z" transform="translate(0 -77.487)" fill="#dd0c29"/>
  </g>
</svg>
