<svg xmlns="http://www.w3.org/2000/svg" width="22.902" height="22.905" viewBox="0 0 22.902 22.905">
  <g id="edit-circle_cyan_1_" data-name="edit-circle_cyan (1)" transform="translate(-94.59 -94.294)">
    <path id="Path_172" data-name="Path 172" d="M106.037,117.2a11.446,11.446,0,1,1,4.456-.9A11.452,11.452,0,0,1,106.037,117.2Zm0-21.939a10.49,10.49,0,1,0,10.49,10.49A10.5,10.5,0,0,0,106.037,95.26Z" fill="#0070b4"/>
    <path id="Path_173" data-name="Path 173" d="M270.369,610.275a.48.48,0,0,1-.457-.627l.98-3.049a.48.48,0,0,1,.8-.192l2.069,2.069a.48.48,0,0,1-.192.8l-3.048.981A.477.477,0,0,1,270.369,610.275Zm1.2-2.633-.454,1.411,1.411-.454Z" transform="translate(-170.492 -497.932)" fill="#0070b4"/>
    <path id="Path_174" data-name="Path 174" d="M420.168,379.4a.48.48,0,0,1-.339-.819l5.053-5.053-1.73-1.729a.48.48,0,1,1,.679-.679l2.069,2.069a.479.479,0,0,1,0,.678l-5.392,5.393A.477.477,0,0,1,420.168,379.4Z" transform="translate(-316.183 -269.093)" fill="#0070b4"/>
    <path id="Path_175" data-name="Path 175" d="M344.728,415.95a.48.48,0,0,1-.339-.819l4.3-4.3a.48.48,0,0,1,.678.678l-4.3,4.3A.477.477,0,0,1,344.728,415.95Z" transform="translate(-242.812 -307.715)" fill="#0070b4"/>
    <path id="Path_176" data-name="Path 176" d="M580.485,336.964a.477.477,0,0,1-.339-.141l-2.069-2.069a.48.48,0,0,1,.678-.678l2.069,2.069a.48.48,0,0,1-.339.819Z" transform="translate(-470.091 -233.07)" fill="#0070b4"/>
    <path id="Path_177" data-name="Path 177" d="M619.76,252.055a.479.479,0,0,1-.34-.139l-2.069-2.069a.48.48,0,0,1,0-.679l1.288-1.287a.479.479,0,0,1,.678,0l2.069,2.069a.48.48,0,0,1,0,.679l-1.289,1.287A.477.477,0,0,1,619.76,252.055Zm-1.39-2.549,1.39,1.39.609-.609-1.39-1.389Z" transform="translate(-508.29 -149.238)" fill="#0070b4"/>
  </g>
</svg>
