<svg width="24" height="24" viewBox="0 0 24 24" fill="none" xmlns="http://www.w3.org/2000/svg">
<g clip-path="url(#clip0_1_4606)">
<path d="M11.9998 11C11.1665 11 10.4581 10.7084 9.8748 10.125C9.29147 9.54172 8.9998 8.83338 8.9998 8.00005C8.9998 7.16672 9.29147 6.45838 9.8748 5.87505C10.4581 5.29172 11.1665 5.00005 11.9998 5.00005C12.8331 5.00005 13.5415 5.29172 14.1248 5.87505C14.7081 6.45838 14.9998 7.16672 14.9998 8.00005C14.9998 8.83338 14.7081 9.54172 14.1248 10.125C13.5415 10.7084 12.8331 11 11.9998 11ZM11.9998 9.00005C12.2831 9.00005 12.5208 8.90405 12.7128 8.71205C12.9041 8.52072 12.9998 8.28338 12.9998 8.00005C12.9998 7.71672 12.9041 7.47905 12.7128 7.28705C12.5208 7.09572 12.2831 7.00005 11.9998 7.00005C11.7165 7.00005 11.4791 7.09572 11.2878 7.28705C11.0958 7.47905 10.9998 7.71672 10.9998 8.00005C10.9998 8.28338 11.0958 8.52072 11.2878 8.71205C11.4791 8.90405 11.7165 9.00005 11.9998 9.00005ZM5.9998 17V15.1C5.9998 14.75 6.08747 14.4207 6.2628 14.112C6.43747 13.804 6.6748 13.5584 6.9748 13.375C7.7248 12.9417 8.51647 12.6044 9.3498 12.363C10.1831 12.121 11.0665 12 11.9998 12C12.9331 12 13.8165 12.121 14.6498 12.363C15.4831 12.6044 16.2748 12.9417 17.0248 13.375C17.3248 13.5584 17.5625 13.804 17.7378 14.112C17.9125 14.4207 17.9998 14.75 17.9998 15.1V17H5.9998ZM11.9998 14C11.3165 14 10.6498 14.0834 9.9998 14.25C9.3498 14.4167 8.73314 14.6667 8.1498 15H15.8498C15.2665 14.6667 14.6498 14.4167 13.9998 14.25C13.3498 14.0834 12.6831 14 11.9998 14ZM21.2248 8.15005C20.7081 6.93338 19.9871 5.86238 19.0618 4.93705C18.1371 4.01238 17.0665 3.29172 15.8498 2.77505L16.6248 0.925049C18.0915 1.52505 19.3791 2.38338 20.4878 3.50005C21.5958 4.61672 22.4581 5.90838 23.0748 7.37505L21.2248 8.15005ZM2.7748 8.15005L0.924805 7.37505C1.54147 5.90838 2.40414 4.62072 3.5128 3.51205C4.6208 2.40405 5.90814 1.54172 7.3748 0.925049L8.1498 2.77505C6.93314 3.29172 5.86247 4.01238 4.9378 4.93705C4.01247 5.86238 3.29147 6.93338 2.7748 8.15005ZM7.3748 23.0751C5.90814 22.475 4.6208 21.6167 3.5128 20.5C2.40414 19.3834 1.54147 18.0917 0.924805 16.625L2.7748 15.85C3.29147 17.0667 4.01247 18.1374 4.9378 19.062C5.86247 19.9874 6.93314 20.7084 8.1498 21.225L7.3748 23.0751ZM16.6248 23.0751L15.8498 21.225C17.0665 20.7084 18.1371 19.9874 19.0618 19.062C19.9871 18.1374 20.7081 17.0667 21.2248 15.85L23.0748 16.625C22.4748 18.0917 21.6165 19.379 20.4998 20.487C19.3831 21.5957 18.0915 22.4584 16.6248 23.0751ZM11.9998 15H15.8498H8.1498H11.9998Z" fill="black"/>
</g>
<defs>
<clipPath id="clip0_1_4606">
<rect width="24" height="24" fill="white"/>
</clipPath>
</defs>
</svg>
