<svg width="54" height="55" viewBox="0 0 54 55" fill="none" xmlns="http://www.w3.org/2000/svg">
<ellipse cx="27" cy="27.5" rx="27" ry="27.5" fill="#3379BA"/>
<path d="M39 18H15C14.4696 18 13.9609 18.2107 13.5858 18.5858C13.2107 18.9609 13 19.4696 13 20V36C13 36.5304 13.2107 37.0391 13.5858 37.4142C13.9609 37.7893 14.4696 38 15 38H39C39.5304 38 40.0391 37.7893 40.4142 37.4142C40.7893 37.0391 41 36.5304 41 36V20C41 19.4696 40.7893 18.9609 40.4142 18.5858C40.0391 18.2107 39.5304 18 39 18ZM36.8 20L27 26.78L17.2 20H36.8ZM15 36V20.91L26.43 28.82C26.5974 28.9361 26.7963 28.9984 27 28.9984C27.2037 28.9984 27.4026 28.9361 27.57 28.82L39 20.91V36H15Z" fill="white"/>
</svg>
