<svg xmlns="http://www.w3.org/2000/svg" width="26.834" height="29.762" viewBox="0 0 26.834 29.762">
  <g id="fail" transform="translate(-1254.084 -575.082)">
    <path id="Rectangle_38" data-name="Rectangle 38" d="M2.5,3.5,22,0l1.5,10H0Z" transform="translate(1255 594)" fill="#fb7f7f"/>
    <g id="ant-design:experiment-outlined" transform="translate(1249 571)">
      <path id="Vector" d="M13.416,13.434a1.5,1.5,0,0,0,.423,1.05,1.419,1.419,0,0,0,2.044,0,1.513,1.513,0,0,0,0-2.1,1.419,1.419,0,0,0-2.044,0A1.5,1.5,0,0,0,13.416,13.434Zm13.261,13.1L20.075,8.98V2.523h2.591V0H4.166V2.523H6.757V8.98L.155,26.529A2.479,2.479,0,0,0,0,27.387a2.347,2.347,0,0,0,2.313,2.375H24.52a2.3,2.3,0,0,0,.835-.16,2.393,2.393,0,0,0,1.322-3.073ZM9.214,9.452V2.6h8.4V9.452L20.9,18.184a9.125,9.125,0,0,0-8.282,1.93,6.7,6.7,0,0,1-7.7.75L9.214,9.452ZM2.522,27.238l1.507-4a9.122,9.122,0,0,0,10.186-1.195,6.7,6.7,0,0,1,7.909-.623l2.186,5.819Z" transform="translate(5.084 4.082)" fill="#4910AE"/>
    </g>
  </g>
</svg>
