<svg xmlns="http://www.w3.org/2000/svg" width="20.055" height="20.055" viewBox="0 0 20.055 20.055">
  <path id="flow" d="M17.906,14.325V10.744a1.434,1.434,0,0,0-1.432-1.432h-5.73V5.73h2.149A1.434,1.434,0,0,0,14.325,4.3V1.432A1.434,1.434,0,0,0,12.892,0H7.162A1.434,1.434,0,0,0,5.73,1.432V4.3A1.434,1.434,0,0,0,7.162,5.73H9.311V9.311H3.581a1.434,1.434,0,0,0-1.432,1.432v3.581H0v5.73H5.73v-5.73H3.581V10.744h5.73v3.581H7.162v5.73h5.73v-5.73H10.744V10.744h5.73v3.581H14.325v5.73h5.73v-5.73ZM7.162,1.432h5.73V4.3H7.162ZM4.3,18.622H1.432V15.757H4.3Zm7.162,0H8.595V15.757H11.46Zm7.162,0H15.757V15.757h2.865Z"/>
</svg>
