<svg xmlns="http://www.w3.org/2000/svg" width="29.203" height="29.203" viewBox="0 0 29.203 29.203">
  <path id="flow_blue" d="M26.074,20.859V15.645a2.088,2.088,0,0,0-2.086-2.086H15.645V8.344h3.129a2.088,2.088,0,0,0,2.086-2.086V2.086A2.088,2.088,0,0,0,18.773,0H10.43A2.088,2.088,0,0,0,8.344,2.086V6.258A2.088,2.088,0,0,0,10.43,8.344h3.129v5.215H5.215a2.088,2.088,0,0,0-2.086,2.086v5.215H0V29.2H8.344V20.859H5.215V15.645h8.344v5.215H10.43V29.2h8.344V20.859H15.645V15.645h8.344v5.215H20.859V29.2H29.2V20.859ZM10.43,2.086h8.344V6.258H10.43ZM6.258,27.117H2.086V22.945H6.258Zm10.43,0H12.516V22.945h4.172Zm10.43,0H22.945V22.945h4.172Z" fill="#4910AE"/>
</svg>
