<svg width="54" height="55" viewBox="0 0 54 55" fill="none" xmlns="http://www.w3.org/2000/svg">
<ellipse cx="27" cy="27.5" rx="27" ry="27.5" fill="#E7E7E7"/>
<path d="M30.4425 31.5L26.25 27.3075V20.25H27.75V26.685L31.5 30.4425L30.4425 31.5Z" fill="black"/>
<path d="M27 16.5C25.6012 16.5002 24.2167 16.7811 22.9284 17.326C21.6402 17.871 20.4743 18.6689 19.5 19.6725V16.5H18V22.5H24V21H20.31C21.717 19.4365 23.6272 18.4151 25.7089 18.1134C27.7905 17.8117 29.9121 18.2486 31.7052 19.3482C33.4983 20.4479 34.8495 22.1409 35.5243 24.1331C36.1991 26.1253 36.1547 28.291 35.399 30.2539C34.6433 32.2169 33.2239 33.8531 31.3873 34.8785C29.5507 35.9039 27.4131 36.2536 25.3455 35.8669C23.2779 35.4803 21.4111 34.3816 20.0692 32.7618C18.7274 31.142 17.9953 29.1034 18 27H16.5C16.5 29.0767 17.1158 31.1068 18.2696 32.8335C19.4233 34.5602 21.0632 35.906 22.9818 36.7007C24.9004 37.4955 27.0116 37.7034 29.0484 37.2982C31.0852 36.8931 32.9562 35.8931 34.4246 34.4246C35.8931 32.9562 36.8931 31.0852 37.2982 29.0484C37.7034 27.0116 37.4955 24.9004 36.7007 22.9818C35.906 21.0632 34.5602 19.4233 32.8335 18.2696C31.1068 17.1158 29.0767 16.5 27 16.5Z" fill="black"/>
</svg>
