<svg xmlns="http://www.w3.org/2000/svg" width="19" height="19" viewBox="0 0 19 19">
  <g id="info" transform="translate(-321 -471)">
    <rect id="Rectangle_19" data-name="Rectangle 19" width="19" height="19" rx="9.5" transform="translate(321 471)" fill="#4910AE"/>
    <g id="bi:info-lg" transform="translate(326 476)">
      <path id="Vector" d="M1.8,2.292.1,2.505l-.061.282.335.061C.6,2.9.638,2.979.591,3.2L.043,5.771c-.143.665.079.979.6.979A1.535,1.535,0,0,0,1.73,6.306L1.8,6a.823.823,0,0,1-.509.183c-.2,0-.278-.143-.226-.4L1.8,2.292ZM1.856.742A.742.742,0,1,1,1.638.217a.742.742,0,0,1,.217.525Z" transform="translate(3.656 1.125)" fill="#fff"/>
    </g>
  </g>
</svg>
