<svg xmlns="http://www.w3.org/2000/svg" width="31.017" height="31.017" viewBox="0 0 31.017 31.017">
  <g id="inprogress" transform="translate(-88.991 -445.745)">
    <g id="octicon:issue-draft-16" transform="translate(88.993 445.747)">
      <path id="Vector" d="M13.083.189a15.612,15.612,0,0,1,4.85,0,1.454,1.454,0,0,1-.452,2.873,12.7,12.7,0,0,0-3.947,0A1.454,1.454,0,1,1,13.083.189ZM8.424,3.283A1.454,1.454,0,0,1,8.1,5.313,12.681,12.681,0,0,0,5.313,8.1,1.454,1.454,0,0,1,2.963,6.392,15.588,15.588,0,0,1,6.392,2.961a1.454,1.454,0,0,1,2.031.322Zm14.169,0a1.454,1.454,0,0,1,2.031-.32,15.584,15.584,0,0,1,3.431,3.429A1.455,1.455,0,1,1,25.7,8.1a12.681,12.681,0,0,0-2.789-2.791,1.454,1.454,0,0,1-.32-2.029ZM1.853,11.874a1.454,1.454,0,0,1,1.21,1.661,12.7,12.7,0,0,0,0,3.947,1.454,1.454,0,0,1-2.873.452,15.612,15.612,0,0,1,0-4.85,1.454,1.454,0,0,1,1.663-1.21Zm27.312,0a1.454,1.454,0,0,1,1.663,1.21,15.618,15.618,0,0,1,0,4.85,1.454,1.454,0,0,1-2.873-.452,12.7,12.7,0,0,0,0-3.947,1.454,1.454,0,0,1,1.21-1.661ZM3.283,22.593a1.454,1.454,0,0,1,2.031.32A12.681,12.681,0,0,0,8.1,25.7a1.454,1.454,0,0,1-1.712,2.349,15.584,15.584,0,0,1-3.431-3.429,1.454,1.454,0,0,1,.322-2.031Zm24.451,0a1.454,1.454,0,0,1,.32,2.031,15.581,15.581,0,0,1-3.429,3.431A1.455,1.455,0,0,1,22.913,25.7,12.683,12.683,0,0,0,25.7,22.913a1.454,1.454,0,0,1,2.029-.32Zm-15.86,6.571a1.454,1.454,0,0,1,1.661-1.21,12.7,12.7,0,0,0,3.947,0,1.454,1.454,0,0,1,.452,2.873,15.618,15.618,0,0,1-4.85,0,1.454,1.454,0,0,1-1.21-1.663Z" transform="translate(-0.002 -0.002)" fill="#ff7a00" fill-rule="evenodd"/>
    </g>
    <g id="carbon:in-progress-warning" transform="translate(91.642 448.383)">
      <path id="Vector-2" data-name="Vector" d="M14.482,17.976a8.647,8.647,0,1,1-4.1-16.259v8.648l5.273,5.273,1.055-2.11a2.581,2.581,0,0,1,2.32-1.433H20.6a10.392,10.392,0,1,0-7.287,8.218Z" transform="translate(2.751 2.769)" fill="#ff7a00"/>
    </g>
  </g>
</svg>
