<svg width="54" height="55" viewBox="0 0 54 55" fill="none" xmlns="http://www.w3.org/2000/svg">
<ellipse cx="27" cy="27.5" rx="27" ry="27.5" fill="#E7E7E7"/>
<path d="M31 32C30.45 32 29.979 31.8043 29.587 31.413C29.1957 31.021 29 30.55 29 30C29 29.45 29.1957 28.979 29.587 28.587C29.979 28.1957 30.45 28 31 28C31.55 28 32.021 28.1957 32.413 28.587C32.8043 28.979 33 29.45 33 30C33 30.55 32.8043 31.021 32.413 31.413C32.021 31.8043 31.55 32 31 32ZM27 36V35.425C27 34.6917 27.3667 34.1043 28.1 33.663C28.8333 33.221 29.8 33 31 33C32.2 33 33.1667 33.221 33.9 33.663C34.6333 34.1043 35 34.6917 35 35.425V36H27ZM30 26H28V21C28 20.15 27.7 19.4373 27.1 18.862C26.5 18.2873 25.8 18 25 18C24.2 18 23.5 18.2873 22.9 18.862C22.3 19.4373 22 20.15 22 21V31C22 31.8 22.3 32.5 22.9 33.1C23.5 33.7 24.2 34 25 34V36C23.5833 36 22.396 35.5207 21.438 34.562C20.4793 33.604 20 32.4167 20 31V21C20 19.5833 20.4793 18.396 21.438 17.438C22.396 16.4793 23.5833 16 25 16C26.4167 16 27.604 16.4793 28.562 17.438C29.5207 18.396 30 19.5833 30 21V26ZM25 24C25.55 24 26.021 23.804 26.413 23.412C26.8043 23.0207 27 22.55 27 22C27 21.45 26.8043 20.9793 26.413 20.588C26.021 20.196 25.55 20 25 20C24.45 20 23.9793 20.196 23.588 20.588C23.196 20.9793 23 21.45 23 22C23 22.55 23.196 23.0207 23.588 23.412C23.9793 23.804 24.45 24 25 24ZM23 30C23 30.55 23.196 31.021 23.588 31.413C23.9793 31.8043 24.45 32 25 32C25.55 32 26.021 31.8043 26.413 31.413C26.8043 31.021 27 30.55 27 30C27 29.45 26.8043 28.979 26.413 28.587C26.021 28.1957 25.55 28 25 28C24.45 28 23.9793 28.1957 23.588 28.587C23.196 28.979 23 29.45 23 30ZM25 31C24.7 31 24.4583 30.896 24.275 30.688C24.0917 30.4793 24 30.25 24 30C24 29.75 24.0917 29.5207 24.275 29.312C24.4583 29.104 24.7 29 25 29C25.3 29 25.5417 29.0917 25.725 29.275C25.9083 29.4583 26 29.7 26 30C26 30.25 25.9083 30.4793 25.725 30.688C25.5417 30.896 25.3 31 25 31Z" fill="black"/>
</svg>
