<svg width="18" height="18" viewBox="0 0 18 18" fill="none" xmlns="http://www.w3.org/2000/svg">
<path fill-rule="evenodd" clip-rule="evenodd" d="M0 2C0 1.46957 0.210714 0.960859 0.585786 0.585786C0.960859 0.210714 1.46957 0 2 0H4C4.26522 0 4.51957 0.105357 4.70711 0.292893C4.89464 0.48043 5 0.734784 5 1C5 1.26522 4.89464 1.51957 4.70711 1.70711C4.51957 1.89464 4.26522 2 4 2H2V4C2 4.26522 1.89464 4.51957 1.70711 4.70711C1.51957 4.89464 1.26522 5 1 5C0.734784 5 0.48043 4.89464 0.292893 4.70711C0.105357 4.51957 0 4.26522 0 4V2ZM0 16C0 16.5304 0.210714 17.0391 0.585786 17.4142C0.960859 17.7893 1.46957 18 2 18H4C4.26522 18 4.51957 17.8946 4.70711 17.7071C4.89464 17.5196 5 17.2652 5 17C5 16.7348 4.89464 16.4804 4.70711 16.2929C4.51957 16.1054 4.26522 16 4 16H2V14C2 13.7348 1.89464 13.4804 1.70711 13.2929C1.51957 13.1054 1.26522 13 1 13C0.734784 13 0.48043 13.1054 0.292893 13.2929C0.105357 13.4804 0 13.7348 0 14V16ZM16 0C16.5304 0 17.0391 0.210714 17.4142 0.585786C17.7893 0.960859 18 1.46957 18 2V4C18 4.26522 17.8946 4.51957 17.7071 4.70711C17.5196 4.89464 17.2652 5 17 5C16.7348 5 16.4804 4.89464 16.2929 4.70711C16.1054 4.51957 16 4.26522 16 4V2H14C13.7348 2 13.4804 1.89464 13.2929 1.70711C13.1054 1.51957 13 1.26522 13 1C13 0.734784 13.1054 0.48043 13.2929 0.292893C13.4804 0.105357 13.7348 0 14 0H16ZM18 16C18 16.5304 17.7893 17.0391 17.4142 17.4142C17.0391 17.7893 16.5304 18 16 18H14C13.7348 18 13.4804 17.8946 13.2929 17.7071C13.1054 17.5196 13 17.2652 13 17C13 16.7348 13.1054 16.4804 13.2929 16.2929C13.4804 16.1054 13.7348 16 14 16H16V14C16 13.7348 16.1054 13.4804 16.2929 13.2929C16.4804 13.1054 16.7348 13 17 13C17.2652 13 17.5196 13.1054 17.7071 13.2929C17.8946 13.4804 18 13.7348 18 14V16ZM13.955 5.358C14.0337 5.17431 14.0556 4.97126 14.0178 4.77503C13.9799 4.5788 13.8842 4.39839 13.7429 4.25709C13.6016 4.11578 13.4212 4.02005 13.225 3.98225C13.0287 3.94445 12.8257 3.9663 12.642 4.045L2.742 8.288C2.54838 8.37127 2.38601 8.51358 2.27809 8.69462C2.17017 8.87567 2.12222 9.08618 2.14107 9.2961C2.15992 9.50602 2.24462 9.70462 2.38307 9.86354C2.52152 10.0225 2.70664 10.1336 2.912 10.181L6.898 11.101L7.818 15.088C7.86518 15.2937 7.97622 15.4792 8.13524 15.618C8.29426 15.7567 8.4931 15.8416 8.7033 15.8605C8.91349 15.8793 9.12427 15.8312 9.30546 15.723C9.48664 15.6148 9.62895 15.452 9.712 15.258L13.955 5.358ZM7.957 9.293L6.343 8.921L11.132 6.868L9.079 11.658L8.706 10.043C8.66398 9.86036 8.57147 9.69321 8.43904 9.5606C8.30661 9.42799 8.13958 9.33527 7.957 9.293Z" fill="white"/>
</svg>
