<svg xmlns="http://www.w3.org/2000/svg" width="358" height="28.562" viewBox="0 0 358 28.562">
  <g id="logo" transform="translate(-43 -28)">
    <g id="Logo-2" data-name="Logo" transform="translate(43 28)">
      <path id="Legal_Mark" d="M582.394,90.355a.549.549,0,0,0-.436-.209c-.211,0-.343.093-.343.236,0,.387.982.211.982.836,0,.31-.252.519-.644.519a.768.768,0,0,1-.664-.3l.178-.167a.592.592,0,0,0,.488.233c.241,0,.379-.1.379-.269,0-.428-.982-.239-.982-.845,0-.283.25-.477.614-.477a.738.738,0,0,1,.6.272Zm1.381,1,.653-1.018V91.7h.247V89.946h-.252l-.631,1.007-.634-1.007h-.285V91.7h.247V90.341Z" transform="translate(-452.451 -69.984)" fill="#5009b5"/>
      <path id="Wordmark" d="M158.61,11.214a4.1,4.1,0,0,0-4.162,4.286,4.134,4.134,0,0,0,4.131,4.317,4.982,4.982,0,0,0,3.665-1.46l1.926,2.8a7.914,7.914,0,1,1-5.746-13.51,7.926,7.926,0,0,1,5.87,2.236l-2.174,2.7A4.775,4.775,0,0,0,158.61,11.214Zm17.533,10.125a5.758,5.758,0,0,1-4.535,2.05c-3.944,0-7.144-3.23-7.144-7.858,0-4.5,3.013-7.889,7.144-7.889a5.775,5.775,0,0,1,4.535,1.926V8.077h3.82V22.954h-3.82Zm0-5.839a3.958,3.958,0,1,0-7.889,0,3.961,3.961,0,1,0,7.889,0Zm10.341,7.454h-3.789V8.077h3.789V9.692a4.317,4.317,0,0,1,3.634-2.05,3.789,3.789,0,0,1,2.391.745l-1.584,3.6a3.222,3.222,0,0,0-1.957-.652c-1.522,0-2.485,1.274-2.485,3.292Zm5.5-7.423A7.628,7.628,0,0,1,199.5,7.642a7.394,7.394,0,0,1,7.485,7.578,6.544,6.544,0,0,1-.093,1.242H195.863a4.163,4.163,0,0,0,4.255,3.572,5.048,5.048,0,0,0,3.634-1.553l1.957,2.578a7.651,7.651,0,0,1-5.746,2.329A7.8,7.8,0,0,1,191.98,15.531Zm3.944-1.46H203.1c-.435-2.112-1.77-3.2-3.541-3.2A3.72,3.72,0,0,0,195.925,14.071ZM208.533,1.585h3.789V22.954h-3.789V1.585Zm5.528,13.945a7.75,7.75,0,1,1,7.733,7.858A7.781,7.781,0,0,1,214.062,15.531ZM225.74,15.5a3.958,3.958,0,1,0-7.889,0,3.961,3.961,0,1,0,7.889,0Zm9.347,7.454H231.3V8.077h3.789v1.46a5.049,5.049,0,0,1,4.193-1.895c3.447,0,5.653,2.423,5.653,6.3v9.007h-3.789V14.506c0-2.019-1.18-3.292-3.013-3.292-1.895,0-3.044,1.273-3.044,3.292Z" transform="translate(-117.267 -1.234)" fill="#5009b5"/>
      <g id="Symbol">
        <path id="Purple" d="M6.892,0a6.89,6.89,0,1,0,0,13.781,7.231,7.231,0,0,0,1.142-.091l.245.59L6.9,17.632a4.06,4.06,0,0,1,2.266.7l1.669-4.052L9.173,10.223A4.037,4.037,0,1,1,10.93,6.9l2.757,1.136A6.888,6.888,0,0,0,6.892,0Z" fill="#5009b5"/>
        <path id="Cyan" d="M57.6,0a6.892,6.892,0,0,0-6.892,6.892A7.193,7.193,0,0,0,50.8,8.034l-.592.245L46.859,6.9a4.06,4.06,0,0,1-.7,2.265l4.051,1.669,4.058-1.659a4.037,4.037,0,1,1,3.325,1.757l-1.136,2.757A6.891,6.891,0,1,0,57.6,0Z" transform="translate(-35.928 0)" fill="#44b8f3"/>
        <path id="Light_Purple" d="M14.282,69.628l-4.059,1.659A4.037,4.037,0,1,1,6.9,69.53l1.136-2.757a6.885,6.885,0,1,0,5.655,5.654l.593-.245,3.351,1.381a4.06,4.06,0,0,1,.7-2.265Z" transform="translate(0 -51.898)" fill="#794cff"/>
        <path id="Turquoise" d="M73.578,50.705a7.162,7.162,0,0,0-1.143.094l-.244-.592,1.38-3.35a4.06,4.06,0,0,1-2.266-.7l-1.668,4.05L71.3,54.266a4.037,4.037,0,1,1-1.757,3.325l-2.757-1.136a6.891,6.891,0,1,0,6.8-5.751Z" transform="translate(-51.906 -35.927)" fill="#00bbba"/>
      </g>
    </g>
    <path id="Path_1" data-name="Path 1" d="M-1987.569-2465.153v18.553" transform="translate(2174 2498.653)" fill="none" stroke="#5009b5" stroke-linecap="round" stroke-width="1"/>
    <text id="Digital_Stratification" data-name="Digital Stratification" transform="translate(198 49)" font-size="22" font-family="ElevanceSans-Medium, Elevance Sans" font-weight="500"><tspan x="0" y="0">Digital Stratification</tspan></text>
  </g>
</svg>
