<svg xmlns="http://www.w3.org/2000/svg" width="200.642" height="191.781" viewBox="0 0 200.642 191.781">
  <g id="undraw_preferences_popup_re_4qk0" transform="translate(-0.001)">
    <path id="Path_54" data-name="Path 54" d="M312.776,532.8l-36.713-16.906a5.5,5.5,0,0,1-2.69-7.281l4.73-10.271a5.5,5.5,0,0,1,7.281-2.69L322.1,512.556a5.5,5.5,0,0,1,2.69,7.281l-4.73,10.271A5.5,5.5,0,0,1,312.776,532.8Z" transform="translate(-272.87 -385.411)" fill="#f2f2f2"/>
    <path id="Path_55" data-name="Path 55" d="M329.79,541.52l-22.319-10.278a3.126,3.126,0,0,1-1.53-4.142l3.748-8.138a3.126,3.126,0,0,1,4.142-1.53l22.319,10.278a3.126,3.126,0,0,1,1.53,4.142l-3.748,8.138A3.126,3.126,0,0,1,329.79,541.52Z" transform="translate(-295.6 -400.663)" fill="#fff"/>
    <path id="Path_56" data-name="Path 56" d="M328.968,541.105,306.65,530.827a3.433,3.433,0,0,1-1.68-4.549l3.748-8.138a3.433,3.433,0,0,1,4.549-1.68l22.319,10.278a3.433,3.433,0,0,1,1.68,4.549l-3.748,8.138A3.433,3.433,0,0,1,328.968,541.105Zm-15.959-24.088a2.819,2.819,0,0,0-3.735,1.38l-3.748,8.138a2.819,2.819,0,0,0,1.38,3.735l22.319,10.278a2.819,2.819,0,0,0,3.735-1.38l3.748-8.138a2.819,2.819,0,0,0-1.38-3.735Z" transform="translate(-294.907 -399.97)" fill="#3f3d56"/>
    <path id="Path_57" data-name="Path 57" d="M362.321,553.762l-.123-.057a.543.543,0,1,1,.454-.986l.123.057a.543.543,0,1,1-.454.986Z" transform="translate(-334.583 -425.293)" fill="#ccc"/>
    <path id="Path_58" data-name="Path 58" d="M364.5,565.489l-6.782-3.123a.543.543,0,0,1,.454-.986l6.782,3.123a.543.543,0,1,1-.454.986Z" transform="translate(-331.48 -431.297)" fill="#ccc"/>
    <circle id="Ellipse_14" data-name="Ellipse 14" cx="3.641" cy="3.641" r="3.641" transform="translate(17.718 122.937)" fill="#6c63ff"/>
    <path id="Path_59" data-name="Path 59" d="M550.323,268.311H413.937a12.413,12.413,0,0,1-12.4-12.4v-106.2a12.413,12.413,0,0,1,12.4-12.4H550.323a12.413,12.413,0,0,1,12.4,12.4v106.2A12.413,12.413,0,0,1,550.323,268.311Z" transform="translate(-362.079 -137.316)" fill="#f2f2f2"/>
    <path id="Path_60" data-name="Path 60" d="M599.475,295.02H521.888a7.061,7.061,0,0,1-7.053-7.053V213.446a7.061,7.061,0,0,1,7.053-7.053h77.588a7.061,7.061,0,0,1,7.053,7.053v74.521A7.061,7.061,0,0,1,599.475,295.02Z" transform="translate(-440.63 -185.209)" fill="#fff"/>
    <path id="Path_61" data-name="Path 61" d="M599.475,295.02H521.888a7.061,7.061,0,0,1-7.053-7.053V213.446a7.061,7.061,0,0,1,7.053-7.053h77.588a7.061,7.061,0,0,1,7.053,7.053v74.521A7.061,7.061,0,0,1,599.475,295.02Zm-77.588-88.014a6.447,6.447,0,0,0-6.44,6.44v74.521a6.447,6.447,0,0,0,6.44,6.44h77.588a6.447,6.447,0,0,0,6.44-6.44V213.446a6.447,6.447,0,0,0-6.44-6.44Z" transform="translate(-440.63 -185.209)" fill="#3f3d56"/>
    <path id="Path_62" data-name="Path 62" d="M628.769,289.3H615.736a1.245,1.245,0,1,1,0-2.489h13.032a1.245,1.245,0,1,1,0,2.489Z" transform="translate(-509.726 -240.967)" fill="#6c63ff"/>
    <path id="Path_63" data-name="Path 63" d="M723.769,450.3H710.736a1.245,1.245,0,1,1,0-2.489h13.032a1.245,1.245,0,1,1,0,2.489Z" transform="translate(-575.592 -352.593)" fill="#6c63ff"/>
    <path id="Path_64" data-name="Path 64" d="M657.983,305.9H615.736a1.245,1.245,0,0,1,0-2.489h42.247a1.245,1.245,0,0,1,0,2.489Z" transform="translate(-509.726 -252.475)" fill="#e6e6e6"/>
    <circle id="Ellipse_15" data-name="Ellipse 15" cx="3.757" cy="3.757" r="3.757" transform="translate(91.521 45.553)" fill="#6c63ff"/>
    <circle id="Ellipse_16" data-name="Ellipse 16" cx="3.757" cy="3.757" r="3.757" transform="translate(78.947 26.539)" fill="#f2f2f2"/>
    <path id="Path_65" data-name="Path 65" d="M578.619,295.639a.418.418,0,0,1-.334-.167l-1.025-1.367a.418.418,0,1,1,.669-.5l.671.894,1.722-2.583a.418.418,0,0,1,.7.461l0,0-2.05,3.075a.418.418,0,0,1-.336.186Z" transform="translate(-483.853 -244.374)" fill="#fff"/>
    <path id="Path_66" data-name="Path 66" d="M657.983,349.9H615.736a1.245,1.245,0,0,1,0-2.489h42.247a1.245,1.245,0,0,1,0,2.489Z" transform="translate(-509.726 -282.981)" fill="#e6e6e6"/>
    <path id="Path_67" data-name="Path 67" d="M574.365,345.984a4.064,4.064,0,1,1,4.064-4.064A4.064,4.064,0,0,1,574.365,345.984Zm0-7.514a3.45,3.45,0,1,0,3.451,3.45A3.45,3.45,0,0,0,574.365,338.469Z" transform="translate(-479.087 -276.356)" fill="#e6e6e6"/>
    <path id="Path_68" data-name="Path 68" d="M628.769,395.3H615.736a1.245,1.245,0,1,1,0-2.489h13.032a1.245,1.245,0,1,1,0,2.489Z" transform="translate(-509.726 -314.46)" fill="#e6e6e6"/>
    <path id="Path_69" data-name="Path 69" d="M657.983,411.9H615.736a1.245,1.245,0,0,1,0-2.489h42.247a1.245,1.245,0,0,1,0,2.489Z" transform="translate(-509.726 -325.968)" fill="#e6e6e6"/>
    <path id="Path_70" data-name="Path 70" d="M574.364,398.983a4.064,4.064,0,1,1,4.064-4.064A4.064,4.064,0,0,1,574.364,398.983Zm0-7.515a3.451,3.451,0,1,0,3.451,3.451A3.451,3.451,0,0,0,574.364,391.469Z" transform="translate(-479.086 -313.102)" fill="#e6e6e6"/>
    <path id="Path_71" data-name="Path 71" d="M539.9,231.7h-2.763l1.048-1.072a.259.259,0,0,0-.371-.362l-1.479,1.512a.259.259,0,0,0,0,.362l1.479,1.512a.259.259,0,0,0,.371-.362l-1.048-1.071H539.9a.259.259,0,1,0,0-.518Z" transform="translate(-455.483 -201.708)" fill="#3f3d56"/>
    <path id="Path_72" data-name="Path 72" d="M183.392,586.449h3.036l1.444-11.712h-4.481Z" transform="translate(-127.149 -398.482)" fill="#a0616a"/>
    <path id="Path_73" data-name="Path 73" d="M455.914,749.163h9.337v-.118a3.634,3.634,0,0,0-3.634-3.634h0l-1.706-1.294-3.182,1.294h-.815Z" transform="translate(-399.778 -558.029)" fill="#2f2e41"/>
    <path id="Path_74" data-name="Path 74" d="M138.392,586.449h3.036l1.444-11.712h-4.481Z" transform="translate(-95.95 -398.482)" fill="#a0616a"/>
    <path id="Path_75" data-name="Path 75" d="M410.913,749.163h9.337v-.118a3.634,3.634,0,0,0-3.634-3.634h0l-1.706-1.294-3.182,1.294h-.815Z" transform="translate(-368.579 -558.029)" fill="#2f2e41"/>
    <path id="Path_76" data-name="Path 76" d="M424.033,503.317s4.907,6.086,3.956,7.664-2.485,1.031-.951,2.685,2.148,1.673,1.074,2.89-2.007,27.818-2.007,27.818l-4.894,27.68-5.386.485a28.813,28.813,0,0,1-1.029-4.694c-.025-1.311-.025-.169-.025-2.887s.969-.612.025-3.2-2.122-10.2,0-13.909.454-.454.454-.454l-1.644-25.1-3.128,25.84s0,8.893-1.533,15.333l-.254,9.072-6.609-.253a8.63,8.63,0,0,1-1.111-5.753c.613-3.067-1.84-4.6-1.84-6.133s.129-16.2.129-16.2l1.433-30.533s-1.256-6.933,1.5-9.693S424.033,503.317,424.033,503.317Z" transform="translate(-360.409 -390.543)" fill="#2f2e41"/>
    <path id="Path_77" data-name="Path 77" d="M412.485,328.058l6.44.307q-.074,2.82,3.08,5.32l3.508,3.614.92,7.973-.92,30.054,5.213,12.267c-7.006,2.738-15.194,3.952-26.68.92-1.3-1.381.36-9.434,1.113-15.446,0,0,1.63-2.5.159-4.315s.569-13.052.569-13.052l.613-12.573c-.349-4.069-3.237-7.133-.028-9.659h0A18.669,18.669,0,0,0,412.485,328.058Z" transform="translate(-363.484 -269.563)" fill="#6c63ff"/>
    <path id="Path_78" data-name="Path 78" d="M418.112,341.862l4.376,1.313,3.719,9.189-2.281,28.645s-.457,1.733.385,1.48.5,1.918.5,1.918l3.1,11.935-29.6-2.413,2.953-12.686s-2.178.07-.647-1.461,1.005-.6-.466-2.413a3.175,3.175,0,0,1-.419-3.565l-.656-8.97L398,352.21a12.13,12.13,0,0,1,4.583-10.567h0C407.147,338.928,412.443,339.542,418.112,341.862Z" transform="translate(-359.591 -277.74)" fill="#3f3d56"/>
    <path id="Path_79" data-name="Path 79" d="M380.649,503.277a2.375,2.375,0,0,1,.588-3.26,2.282,2.282,0,0,1,.326-.188l-.8-8.247,4.042-1.877-.129,11.415a2.368,2.368,0,0,1-.839,2.767,2.266,2.266,0,0,1-3.156-.559Z" transform="translate(-347.314 -381.638)" fill="#a0616a"/>
    <path id="Path_80" data-name="Path 80" d="M372.116,389.935l3.067,15.64.365-.025,3.554-.255.374-.028-.307-14.107c-.816-.831.567-3.677,2.383-7.112.672-1.267,1.4-2.616,2.1-3.971.126-.242.248-.485.371-.727a41.748,41.748,0,0,0,2.294-5.2l-5.082-14.42-.129-.368s-1.083,2.582-2.5,6.32q-.161.419-.322.856C375.584,373.755,371.938,384.568,372.116,389.935Z" transform="translate(-341.675 -291.266)" fill="#3f3d56"/>
    <path id="Path_81" data-name="Path 81" d="M551.942,302.125a2.375,2.375,0,0,1-2.966,1.475,2.28,2.28,0,0,1-.346-.15l-6.139,5.565-3.92-2.121,9.233-6.714a2.368,2.368,0,0,1,2.721-.979,2.266,2.266,0,0,1,1.436,2.865Z" transform="translate(-457.088 -249.477)" fill="#a0616a"/>
    <path id="Path_82" data-name="Path 82" d="M430.241,338.293s9.112-2.254,17.556-5.238c.223-.078.442-.157.661-.237,4.8-1.727,9.3-3.678,11.677-5.571l10.716-11.8-.238-.276-2.33-2.7-.244-.284-11.13,8.67c-.178,1.123-3.149,1.714-6.871,2.294-.208.034-.429.161-.637.1-3.5-1.088-7.458.709-10.41,2.034Z" transform="translate(-381.979 -258.56)" fill="#3f3d56"/>
    <circle id="Ellipse_17" data-name="Ellipse 17" cx="7.702" cy="7.702" r="7.702" transform="translate(44.81 42.11)" fill="#a0616a"/>
    <path id="Path_83" data-name="Path 83" d="M419.565,282.456c1.288-.605,2.793-.237,4.215-.181s3.145-.48,3.447-1.871c.223-1.028-.448-2.156-.025-3.12.461-1.051,1.844-1.2,2.953-1.495a6.808,6.808,0,0,0,4.916-6.373c.077.574-.906.763-1.228.282a1.43,1.43,0,0,1,.255-1.6,9.713,9.713,0,0,0,1.1-1.336,1.124,1.124,0,0,0-.308-1.523,4.28,4.28,0,0,1-2.711,2.23,2.109,2.109,0,0,0-.641-2.074,6.206,6.206,0,0,0-1.959-1.154c-1.775-.77-3.848-1.535-5.568-.648a3.329,3.329,0,0,0-1.721,2.33c-3.18.269-6.446,3.714-6.265,6.9.195,3.43.337,3.708,3.193,9.481" transform="translate(-372.122 -224.588)" fill="#2f2e41"/>
    <path id="Path_84" data-name="Path 84" d="M317.609,740.3l0-.091a10.484,10.484,0,0,1,3.92-7.895A10.171,10.171,0,0,1,323.716,731l.074-.033.013.081c.151.961.391,1.941.5,2.377l.748-2.918.083-.024a1.988,1.988,0,0,1,2.122.678,2.022,2.022,0,0,1,.21,2.256c-.174.325-.346.664-.511.991a13.2,13.2,0,0,1-2.016,3.195,6.337,6.337,0,0,1-5.111,1.907Z" transform="translate(-303.888 -548.518)" fill="#f2f2f2"/>
    <path id="Path_85" data-name="Path 85" d="M389.973,760.7l-73.524.094a.365.365,0,1,1,0-.73l73.524-.094a.365.365,0,1,1,0,.73Z" transform="translate(-302.83 -569.021)" fill="#cacaca"/>
  </g>
</svg>
