<svg width="32" height="32" viewBox="0 0 32 32" fill="none" xmlns="http://www.w3.org/2000/svg">
<path d="M13 6.57143C13.7911 6.57143 14.5645 6.80184 15.2223 7.23351C15.8801 7.66519 16.3928 8.27875 16.6955 8.9966C16.9983 9.71445 17.0775 10.5044 16.9231 11.2664C16.7688 12.0285 16.3878 12.7285 15.8284 13.2779C15.269 13.8273 14.5563 14.2015 13.7804 14.3531C13.0044 14.5047 12.2002 14.4269 11.4693 14.1295C10.7384 13.8322 10.1136 13.3286 9.67412 12.6826C9.2346 12.0365 9 11.277 9 10.5C9 9.45808 9.42143 8.45883 10.1716 7.72208C10.9217 6.98533 11.9391 6.57143 13 6.57143M13 5C11.8924 5 10.8097 5.32257 9.88881 5.92692C8.96789 6.53126 8.25013 7.39025 7.82627 8.39524C7.40242 9.40023 7.29153 10.5061 7.5076 11.573C7.72368 12.6399 8.25703 13.6199 9.0402 14.3891C9.82338 15.1583 10.8212 15.6821 11.9075 15.8943C12.9938 16.1065 14.1198 15.9976 15.143 15.5813C16.1663 15.1651 17.0409 14.4601 17.6562 13.5556C18.2716 12.6512 18.6 11.5878 18.6 10.5C18.6 9.04131 18.01 7.64236 16.9598 6.61091C15.9096 5.57946 14.4852 5 13 5V5ZM21 27H19.4V23.0714C19.4 22.0295 18.9786 21.0303 18.2284 20.2935C17.4783 19.5568 16.4609 19.1429 15.4 19.1429H10.6C9.53913 19.1429 8.52172 19.5568 7.77157 20.2935C7.02143 21.0303 6.6 22.0295 6.6 23.0714V27H5V23.0714C5 21.6127 5.59 20.2138 6.6402 19.1823C7.69041 18.1509 9.11479 17.5714 10.6 17.5714H15.4C16.8852 17.5714 18.3096 18.1509 19.3598 19.1823C20.41 20.2138 21 21.6127 21 23.0714V27ZM21 6.57143H29V8.14286H21V6.57143ZM21 10.5H29V12.0714H21V10.5ZM21 14.4286H26.6V16H21V14.4286Z" fill="white"/>
</svg>
