<svg xmlns="http://www.w3.org/2000/svg" width="22.789" height="21.281" viewBox="0 0 22.789 21.281">
  <path id="Path_11" data-name="Path 11" d="M21.27,6.077h-3.8V7.6h3.8v4.558H15.952v1.519h2.279V15.3a3.039,3.039,0,1,0,1.519,0V13.673H21.27a1.522,1.522,0,0,0,1.519-1.519V7.6A1.521,1.521,0,0,0,21.27,6.077Zm-.76,12.154a1.522,1.522,0,1,1-.446-1.074,1.519,1.519,0,0,1,.446,1.074ZM13.673,3.039h-3.8V4.558h3.8V9.116H8.356v1.519h2.279V15.3a3.039,3.039,0,1,0,1.519,0V10.635h1.519a1.521,1.521,0,0,0,1.519-1.519V4.558a1.521,1.521,0,0,0-1.519-1.519Zm-.76,15.193a1.522,1.522,0,1,1-.446-1.074A1.519,1.519,0,0,1,12.914,18.231ZM6.077,0H1.519A1.521,1.521,0,0,0,0,1.519V6.077A1.521,1.521,0,0,0,1.519,7.6H3.039v7.7a3.039,3.039,0,1,0,1.519,0V7.6H6.077A1.521,1.521,0,0,0,7.6,6.077V1.519A1.521,1.521,0,0,0,6.077,0Zm-.76,18.231a1.521,1.521,0,1,1-.445-1.074A1.519,1.519,0,0,1,5.317,18.231ZM1.519,6.077V1.519H6.077l0,4.558Z" opacity="0.52"/>
</svg>
