<svg id="undraw_mind_map_re_nlb6" xmlns="http://www.w3.org/2000/svg" width="756.96" height="473.36" viewBox="0 0 756.96 473.36">
  <path id="Path_100" data-name="Path 100" d="M875.75,529.2a10.056,10.056,0,0,1,4.9-14.62l-1.421-35.707,15.9,9.6L894.037,520.9A10.11,10.11,0,0,1,875.75,529.2Z" transform="translate(-221.52 -213.32)" fill="#a0616a"/>
  <path id="Path_101" data-name="Path 101" d="M896.967,506.049l-14.132,2.258a4.5,4.5,0,0,1-5.17-3.851l-5.979-45.03-29.545-40.432a13.579,13.579,0,0,1,3.653-19.453h0a13.579,13.579,0,0,1,18.754,4.13L894.72,450.89l6.006,50.181a4.557,4.557,0,0,1,.013.965,4.486,4.486,0,0,1-3.772,4.013Z" transform="translate(-221.52 -213.32)" fill="#6f6f6f"/>
  <path id="Path_102" data-name="Path 102" d="M626.725,459.863h-12.26l-5.832-47.288h18.094Z" fill="#a0616a"/>
  <path id="Path_103" data-name="Path 103" d="M605.708,456.36h23.644v14.887H590.821a14.887,14.887,0,0,1,14.887-14.887Z" fill="#2f2e41"/>
  <path id="Path_104" data-name="Path 104" d="M678.45,438.879l-9.16,8.148L635.145,413.36l11.876-9.813Z" fill="#a0616a"/>
  <path id="Path_105" data-name="Path 105" d="M885.779,658.758h23.644v14.887H870.892A14.887,14.887,0,0,1,885.779,658.758Z" transform="translate(-439.24 546.751) rotate(-41.654)" fill="#2f2e41"/>
  <path id="Path_106" data-name="Path 106" d="M725.043,402.777a10.056,10.056,0,0,1,12.324,9.267l34.327,9.93-14.128,12.051-30.432-11.277a10.11,10.11,0,0,1-2.091-19.97Z" transform="translate(-221.52 -213.32)" fill="#a0616a"/>
  <circle id="Ellipse_21" data-name="Ellipse 21" cx="24.561" cy="24.561" r="24.561" transform="translate(585.986 106.067)" fill="#a0616a"/>
  <path id="Path_107" data-name="Path 107" d="M849.75,664.328l-17.064-1.365a4.5,4.5,0,0,1-4.139-4.337l-4.763-143.833a4.489,4.489,0,0,1,3.876-4.605l34.02-4.747a4.5,4.5,0,0,1,5.058,5.214L853.72,586.9a3.511,3.511,0,0,0-.05.635l.939,72.245a4.5,4.5,0,0,1-4.5,4.56C849.987,664.343,849.868,664.338,849.75,664.328Z" transform="translate(-221.52 -213.32)" fill="#2f2e41"/>
  <path id="Path_108" data-name="Path 108" d="M871.6,647.078l-58.619-65.238a4.5,4.5,0,0,1-1.127-3.484l7.4-69.405a4.493,4.493,0,0,1,4.774-4.013l35.976,2.4a4.5,4.5,0,0,1,3.964,5.931l-21.555,63.768a3.487,3.487,0,0,0,.8,3.551l49.793,51.6a4.5,4.5,0,0,1-.949,7l-14.819,8.757A4.51,4.51,0,0,1,871.6,647.078Z" transform="translate(-221.52 -213.32)" fill="#2f2e41"/>
  <path id="Path_109" data-name="Path 109" d="M827.665,383.68s15-13,22-6c0,0,32.5,20.5,18.5,76.5,0,0,12,54,7,56s-55.5,9.5-59.5,3.5S809.665,415.68,827.665,383.68Z" transform="translate(-221.52 -213.32)" fill="#6f6f6f"/>
  <path id="Path_110" data-name="Path 110" d="M740.3,430.22l2.322-14.122a4.5,4.5,0,0,1,5.287-3.689l44.613,8.551L840.219,405.7a13.579,13.579,0,0,1,17.3,9.61h0A13.579,13.579,0,0,1,847.68,431.8l-54.332,13.714-49.509-10.153a4.553,4.553,0,0,1-.92-.292A4.486,4.486,0,0,1,740.3,430.22Z" transform="translate(-221.52 -213.32)" fill="#6f6f6f"/>
  <path id="Path_111" data-name="Path 111" d="M842.606,363.871c2.245-5.195,4.144-12.113-.161-15.785-2.5-2.13-6.094-2.135-9.365-2.4-9.217-.747-18.706-4.988-23.211-13.064s-1.989-20.084,6.51-23.728c5.729-2.456,12.3-.783,18.294.918l18.006,5.106c5.35,1.517,10.967,3.19,14.819,7.2,6.143,6.4,5.684,17.212.8,24.618s-12.226,15.131-20.638,17.943Z" transform="translate(-221.52 -213.32)" fill="#2f2e41"/>
  <path id="Path_112" data-name="Path 112" d="M977.48,686.68h-248a1,1,0,0,1,0-2h248a1,1,0,0,1,0,2Z" transform="translate(-221.52 -213.32)" fill="#3f3d56"/>
  <path id="Path_113" data-name="Path 113" d="M715.52,213.32h-487a7.008,7.008,0,0,0-7,7v360a7.008,7.008,0,0,0,7,7h487a7.008,7.008,0,0,0,7-7v-360A7.008,7.008,0,0,0,715.52,213.32Zm5,367a5,5,0,0,1-5,5h-487a5,5,0,0,1-5-5v-360a5,5,0,0,1,5-5h487a5,5,0,0,1,5,5Z" transform="translate(-221.52 -213.32)" fill="#3f3d56"/>
  <rect id="Rectangle_44" data-name="Rectangle 44" width="499" height="2" transform="translate(1 28.04)" fill="#3f3d56"/>
  <circle id="Ellipse_22" data-name="Ellipse 22" cx="6" cy="6" r="6" transform="translate(12 9)" fill="#3f3d56"/>
  <circle id="Ellipse_23" data-name="Ellipse 23" cx="6" cy="6" r="6" transform="translate(29.25 9)" fill="#3f3d56"/>
  <circle id="Ellipse_24" data-name="Ellipse 24" cx="6" cy="6" r="6" transform="translate(46.5 9)" fill="#3f3d56"/>
  <path id="Path_114" data-name="Path 114" d="M523.343,524.625a1,1,0,0,1-1-1v-41a1,1,0,0,1,2,0v41A1,1,0,0,1,523.343,524.625Z" transform="translate(-221.52 -213.32)" fill="#3f3d56"/>
  <path id="Path_115" data-name="Path 115" d="M521.972,466.625a.994.994,0,0,1-.5-.136l-56.815-33.1a1,1,0,0,1,1.007-1.729l56.815,33.1a1,1,0,0,1-.5,1.864Z" transform="translate(-221.52 -213.32)" fill="#3f3d56"/>
  <path id="Path_116" data-name="Path 116" d="M408.344,466.625a1,1,0,0,1-.5-1.864l56.815-33.1a1,1,0,0,1,1.007,1.729l-56.815,33.1A1,1,0,0,1,408.344,466.625Z" transform="translate(-221.52 -213.32)" fill="#3f3d56"/>
  <path id="Path_117" data-name="Path 117" d="M580.972,516.625a.994.994,0,0,1-.5-.136l-56.815-33.1a1,1,0,1,1,1.007-1.728l56.815,33.1a1,1,0,0,1-.5,1.864Z" transform="translate(-221.52 -213.32)" fill="#3f3d56"/>
  <path id="Path_118" data-name="Path 118" d="M467.344,516.625a1,1,0,0,1-.5-1.864l56.815-33.1a1,1,0,0,1,1.007,1.729l-56.815,33.1a1,1,0,0,1-.5.136Z" transform="translate(-221.52 -213.32)" fill="#3f3d56"/>
  <path id="Path_119" data-name="Path 119" d="M465.343,415.625a1,1,0,0,1-1-1l-.092-36.387a1,1,0,0,1,1-1h0a1,1,0,0,1,1,1l.092,36.387a1,1,0,0,1-1,1Z" transform="translate(-221.52 -213.32)" fill="#3f3d56"/>
  <path id="Path_120" data-name="Path 120" d="M478.276,434.541H452.224a4.505,4.505,0,0,1-4.5-4.5V416.659a4.505,4.505,0,0,1,4.5-4.5h26.052a4.505,4.505,0,0,1,4.5,4.5v13.381A4.505,4.505,0,0,1,478.276,434.541Z" transform="translate(-221.52 -213.32)" fill="#ccc"/>
  <path id="Path_121" data-name="Path 121" d="M435.158,366.521H379.724a1,1,0,0,1,0-2h55.433a1,1,0,0,1,0,2Z" transform="translate(-221.52 -213.32)" fill="#3f3d56"/>
  <path id="Path_122" data-name="Path 122" d="M465.25,352.238a1,1,0,0,1-1-1V316.625a1,1,0,0,1,2,0v34.613a1,1,0,0,1-1,1Z" transform="translate(-221.52 -213.32)" fill="#3f3d56"/>
  <path id="Path_123" data-name="Path 123" d="M358.157,366.521a1,1,0,0,1-.509-.14l-53.815-31.9a1,1,0,1,1,1.02-1.721l53.815,31.9a1,1,0,0,1-.511,1.86Z" transform="translate(-221.52 -213.32)" fill="#3f3d56"/>
  <path id="Path_124" data-name="Path 124" d="M304.344,398.417a1,1,0,0,1-.511-1.86l53.815-31.9a1,1,0,1,1,1.02,1.721l-53.815,31.9a1,1,0,0,1-.509.14Z" transform="translate(-221.52 -213.32)" fill="#3f3d56"/>
  <path id="Path_125" data-name="Path 125" d="M375.724,382.651H362.343a4.505,4.505,0,0,1-4.5-4.5V352.1a4.5,4.5,0,0,1,4.5-4.5h13.381a4.5,4.5,0,0,1,4.5,4.5v26.052A4.505,4.505,0,0,1,375.724,382.651Z" transform="translate(-221.52 -213.32)" fill="#ccc"/>
  <path id="Path_126" data-name="Path 126" d="M478.276,319.316H452.224a4.505,4.505,0,0,1-4.5-4.5V301.434a4.505,4.505,0,0,1,4.5-4.5h26.052a4.505,4.505,0,0,1,4.5,4.5v13.382a4.505,4.505,0,0,1-4.5,4.5Z" transform="translate(-221.52 -213.32)" fill="#ccc"/>
  <path id="Path_127" data-name="Path 127" d="M300.724,351.651H287.343a4.505,4.505,0,0,1-4.5-4.5V321.1a4.505,4.505,0,0,1,4.5-4.5h13.381a4.505,4.505,0,0,1,4.5,4.5v26.052A4.5,4.5,0,0,1,300.724,351.651Z" transform="translate(-221.52 -213.32)" fill="#ccc"/>
  <path id="Path_128" data-name="Path 128" d="M300.724,414.651H287.343a4.505,4.505,0,0,1-4.5-4.5V384.1a4.505,4.505,0,0,1,4.5-4.5h13.381a4.505,4.505,0,0,1,4.5,4.5v26.052A4.5,4.5,0,0,1,300.724,414.651Z" transform="translate(-221.52 -213.32)" fill="#ccc"/>
  <path id="Path_129" data-name="Path 129" d="M550.776,366.521H495.343a1,1,0,0,1,0-2h55.434a1,1,0,0,1,0,2Z" transform="translate(-221.52 -213.32)" fill="#3f3d56"/>
  <path id="Path_130" data-name="Path 130" d="M572.344,366.521a1,1,0,0,1-.511-1.86l53.815-31.9a1,1,0,1,1,1.02,1.721l-53.815,31.9a1,1,0,0,1-.509.14Z" transform="translate(-221.52 -213.32)" fill="#3f3d56"/>
  <path id="Path_131" data-name="Path 131" d="M626.157,398.417a1,1,0,0,1-.509-.14l-53.815-31.9a1,1,0,0,1,1.02-1.721l53.815,31.9a1,1,0,0,1-.511,1.86Z" transform="translate(-221.52 -213.32)" fill="#3f3d56"/>
  <path id="Path_132" data-name="Path 132" d="M568.158,382.651H554.776a4.505,4.505,0,0,1-4.5-4.5V352.1a4.505,4.505,0,0,1,4.5-4.5h13.381a4.505,4.505,0,0,1,4.5,4.5v26.052a4.505,4.505,0,0,1-4.5,4.5Z" transform="translate(-221.52 -213.32)" fill="#ccc"/>
  <path id="Path_133" data-name="Path 133" d="M643.158,351.651H629.776a4.505,4.505,0,0,1-4.5-4.5V321.1a4.505,4.505,0,0,1,4.5-4.5h13.381a4.505,4.505,0,0,1,4.5,4.5v26.052a4.505,4.505,0,0,1-4.5,4.5Z" transform="translate(-221.52 -213.32)" fill="#ccc"/>
  <path id="Path_134" data-name="Path 134" d="M643.158,414.651H629.776a4.505,4.505,0,0,1-4.5-4.5V384.1a4.505,4.505,0,0,1,4.5-4.5h13.381a4.505,4.505,0,0,1,4.5,4.5v26.052A4.505,4.505,0,0,1,643.158,414.651Z" transform="translate(-221.52 -213.32)" fill="#ccc"/>
  <path id="Path_135" data-name="Path 135" d="M420.276,485.541H394.224a4.5,4.5,0,0,1-4.5-4.5V467.659a4.5,4.5,0,0,1,4.5-4.5h26.052a4.505,4.505,0,0,1,4.5,4.5v13.381a4.505,4.505,0,0,1-4.5,4.5Z" transform="translate(-221.52 -213.32)" fill="#ccc"/>
  <path id="Path_136" data-name="Path 136" d="M536.091,485.541H510.039a4.505,4.505,0,0,1-4.5-4.5V467.659a4.505,4.505,0,0,1,4.5-4.5h26.052a4.5,4.5,0,0,1,4.5,4.5v13.381a4.5,4.5,0,0,1-4.5,4.5Z" transform="translate(-221.52 -213.32)" fill="#ccc"/>
  <path id="Path_137" data-name="Path 137" d="M483.091,534.541H457.039a4.505,4.505,0,0,1-4.5-4.5V516.659a4.505,4.505,0,0,1,4.5-4.5h26.052a4.505,4.505,0,0,1,4.5,4.5v13.381A4.505,4.505,0,0,1,483.091,534.541Z" transform="translate(-221.52 -213.32)" fill="#ccc"/>
  <path id="Path_138" data-name="Path 138" d="M594.091,534.541H568.039a4.505,4.505,0,0,1-4.5-4.5V516.659a4.505,4.505,0,0,1,4.5-4.5h26.052a4.505,4.505,0,0,1,4.5,4.5v13.381a4.505,4.505,0,0,1-4.5,4.5Z" transform="translate(-221.52 -213.32)" fill="#ccc"/>
  <path id="Path_139" data-name="Path 139" d="M536.091,534.541H510.039a4.505,4.505,0,0,1-4.5-4.5V516.659a4.5,4.5,0,0,1,4.5-4.5h26.052a4.505,4.505,0,0,1,4.5,4.5v13.381A4.5,4.5,0,0,1,536.091,534.541Z" transform="translate(-221.52 -213.32)" fill="#ccc"/>
  <path id="Path_140" data-name="Path 140" d="M496.919,382.917H433.581a4.505,4.505,0,0,1-4.5-4.5V352.625a4.505,4.505,0,0,1,4.5-4.5h63.338a4.505,4.505,0,0,1,4.5,4.5v25.792a4.505,4.505,0,0,1-4.5,4.5Z" transform="translate(-221.52 -213.32)" fill="#5009b5"/>
</svg>
