<svg id="undraw_not_found_re_bh2e" xmlns="http://www.w3.org/2000/svg" width="656" height="458.686" viewBox="0 0 656 458.686">
  <rect id="Rectangle_41" data-name="Rectangle 41" width="656" height="2" transform="translate(0 434.343)" fill="#3f3d56"/>
  <g id="Group_98" data-name="Group 98">
    <path id="Path_82" data-name="Path 82" d="M471.971,210.814a76.934,76.934,0,0,0-75.864-64.169H240.149a76.887,76.887,0,0,0-76.931,76.931V359.461a76.871,76.871,0,0,0,76.931,76.923H396.107a76.887,76.887,0,0,0,76.923-76.923V223.575a77.072,77.072,0,0,0-1.059-12.761h0ZM409.3,433.1a75.28,75.28,0,0,1-13.2,1.163H240.149a74.74,74.74,0,0,1-74.805-74.805V314.356c0-127.45,103.312-165.586,230.762-165.586a74.806,74.806,0,0,1,74.805,74.805V359.461c-100.291,13.42-26.589,67.413-61.607,73.642Z" fill="#3f3d56"/>
    <path id="Path_83" data-name="Path 83" d="M349.162,249.186l6,39,88-12-8.5-45.567Z" fill="#6c63ff"/>
    <rect id="Rectangle_42" data-name="Rectangle 42" width="36.385" height="37.661" transform="translate(381.842 30.342)" fill="#2f2e41"/>
    <path id="Path_84" data-name="Path 84" d="M385.162,70.186l9-27H411.7l.922,27Z" fill="#ffb6b6"/>
    <path id="Path_85" data-name="Path 85" d="M385.162,70.186l9-27H411.7l.922,27Z" opacity="0.1" style="isolation: isolate"/>
    <path id="Path_86" data-name="Path 86" d="M394.662,310.686l-1,104-1,8v11.484l15,1.516,1-23s16-45,12-80-2-25-2-25Z" fill="#ffb6b6"/>
    <path id="Path_87" data-name="Path 87" d="M404.184,318.854l-36.9,97.238-1.979,7.816-4.178,10.7L346.6,430.56l7.435-21.788s1.466-47.737,17.924-78.884,10.957-22.56,10.957-22.56l21.264,11.525Z" fill="#ffb6b6"/>
    <path id="Path_88" data-name="Path 88" d="M385.162,67.186l-27,12L375.4,168.2l-2.724,127.756-18,38s-3.016,21.732,27.984,7.732,66-18,66-18l-8.5-58.5-7.5-153.5,1-34-22-14-26.5,3.5Z" fill="#2f2e41"/>
    <path id="Path_89" data-name="Path 89" d="M370.124,335.343l-29.962-50.157L374.4,168.2l-16.24-89.012,28.49-12.2S401.4,81.352,401.4,93.2s-31.277,242.145-31.277,242.145Z" fill="#e6e6e6"/>
    <path id="Path_90" data-name="Path 90" d="M435.124,325.343l-27.2-233.628a15.641,15.641,0,0,1,1.452-8.611l7.783-16.114,30.5,8.7L435.4,171.2l32.76,93.988Z" fill="#e6e6e6"/>
    <path id="Path_91" data-name="Path 91" d="M410.662,433.686s-19-11-21-5a102.3,102.3,0,0,0-3,11s-5,19,10,19,14-8.642,14-8.642Z" fill="#2f2e41"/>
    <path id="Path_92" data-name="Path 92" d="M344.536,427.606s21.7-3.335,21.38,2.982a102.3,102.3,0,0,1-1.207,11.338s-2.254,19.517-16.227,14.06-9.9-13.143-9.9-13.143l5.951-15.237Z" fill="#2f2e41"/>
    <circle id="Ellipse_19" data-name="Ellipse 19" cx="24.86" cy="24.86" r="24.86" transform="translate(379.243 8.162)" fill="#ffb6b6"/>
    <path id="Path_93" data-name="Path 93" d="M423.965,10.868C422.808,4.738,416.516.593,410.3.073S398,1.9,392.4,4.652a42.366,42.366,0,0,0-10.6,6.872,18.748,18.748,0,0,0-6.012,10.889,15.7,15.7,0,0,1-.777,4.4c-.758,1.708-2.387,2.868-3.369,4.458a6.981,6.981,0,0,0,1.752,8.978c-3.4,1.449-6.894,2.961-9.486,5.6s-4.089,6.7-2.666,10.115c.5,1.207,1.335,2.263,1.765,3.5a7.916,7.916,0,0,1-1.409,7.026,23.4,23.4,0,0,1-5.5,4.972c5.162,1.012,10.431,1.8,15.67,1.328s10.5-2.308,14.291-5.952,5.881-9.264,4.52-14.345c-1.043-3.892-3.959-7.3-3.957-11.333,0-3.1,1.743-5.892,3.425-8.493l11.019-17.042a8.028,8.028,0,0,1,2.4-2.7c1.776-1.063,4.08-.6,5.952.287s3.583,2.149,5.579,2.7a8.6,8.6,0,0,0,10.086-5.473" fill="#2f2e41"/>
    <path id="Path_94" data-name="Path 94" d="M409.28,61.425c-2.072,2.006-5.057,2.652-7.824,3.465s-5.71,2.091-6.955,4.692a7.013,7.013,0,0,0,1.687,7.765,10.9,10.9,0,0,0,7.786,2.771,25.518,25.518,0,0,0,8.242-1.83A80.235,80.235,0,0,0,432.588,67.37a8.244,8.244,0,0,1-5.508-9.832c.938-3.267,3.8-5.545,5.756-8.328,3.36-4.792,3.919-11.108,2.807-16.853s-3.732-11.071-6.324-16.318a18.308,18.308,0,0,0-2.936-4.682,6.187,6.187,0,0,0-4.928-2.1c-3.053.318-5,3.67-5.024,6.74s1.326,5.955,2.347,8.85a22.23,22.23,0,0,1,1.5,9.294,14.923,14.923,0,0,1-2.748,7.36c-1.2,1.66-2.725,3.052-4.027,4.631a9.155,9.155,0,0,0-2.165,4.163c-.482,2.839,1.184,5.712.727,8.555a6.062,6.062,0,0,1-6.653,4.841" fill="#2f2e41"/>
    <g id="Group_96" data-name="Group 96">
      <circle id="Ellipse_20" data-name="Ellipse 20" cx="85" cy="85" r="85" transform="translate(248.249 238.645)" fill="#5009b5"/>
      <g id="Group_95" data-name="Group 95">
        <path id="Path_95" data-name="Path 95" d="M384.178,316.823H373.612A40.943,40.943,0,0,0,301.678,297.6q-.074.083-.142.172a3.411,3.411,0,0,0,5.4,4.167,34.114,34.114,0,0,1,59.736,14.885h-9.318a1.706,1.706,0,0,0-1.31,2.8l13.411,16.1a1.706,1.706,0,0,0,2.619,0l13.411-16.1a1.705,1.705,0,0,0-1.31-2.8Z" fill="#fff"/>
        <path id="Path_96" data-name="Path 96" d="M364.343,344.734a3.411,3.411,0,0,0-4.784.617,34.122,34.122,0,0,1-59.737-14.885h9.318a1.705,1.705,0,0,0,1.31-2.8l-13.411-16.1a1.705,1.705,0,0,0-2.4-.218,1.688,1.688,0,0,0-.218.218l-13.411,16.1a1.706,1.706,0,0,0,1.31,2.8h10.566a40.943,40.943,0,0,0,71.934,19.223q.074-.084.141-.172a3.411,3.411,0,0,0-.617-4.784Z" fill="#fff"/>
      </g>
    </g>
    <path id="uuid-da16df1e-5659-4232-96f6-61e8c639a9ec-36" d="M356.981,237.194c-1.029,7.366-5.665,12.806-10.352,12.15s-7.652-7.158-6.621-14.527a18.614,18.614,0,0,1,3.127-8.216l4.756-31.156,14.573,2.543-6.236,30.444a18.615,18.615,0,0,1,.754,8.762Z" fill="#ffb6b6"/>
    <path id="Path_97" data-name="Path 97" d="M369.662,77.686s-15-5-17,13-4,40-4,40-9,21-5,32,11,3.331,4,12.665-6.025,40.047-6.025,40.047l22.525-1.134s12.5-82.579,12.5-84.579-7-52-7-52h0Z" fill="#e6e6e6"/>
    <g id="Group_97" data-name="Group 97">
      <path id="uuid-6bf35aa9-e432-4b51-af77-8f4eb19e6e42-37" d="M467.161,233.85c.279,7.433-3.33,13.6-8.06,13.778s-8.789-5.7-9.067-13.14a18.614,18.614,0,0,1,1.637-8.637l-.784-31.507,14.793-.053-.8,31.066a18.616,18.616,0,0,1,2.279,8.493Z" fill="#ffb6b6"/>
      <path id="Path_98" data-name="Path 98" d="M444.07,77.349s15.087-4.731,16.765,13.3,3.285,51.065,3.285,51.065,8.623,21.157,4.427,32.084-11.058,3.134-4.226,12.592,4.38,36.131,4.38,36.131l-22.5-1.536s-10.094-78.772-10.059-80.771,7.928-62.867,7.928-62.867Z" fill="#e6e6e6"/>
    </g>
    <path id="Path_99" data-name="Path 99" d="M388.521,34.852a12.987,12.987,0,0,1,2.9,6.708c0,.036-.007-2.219,0-1.875.137,3.292-2.094,9.482-2.094,9.482l1.039,2.989s3.5,4.5,8.771,5.291,8.809,1.19,12.823-1.518,4.277-4.485,6.048-8.949a16.255,16.255,0,0,0,1.223-7.86l-11.32-1.34-16.848,1.34" fill="#fff"/>
  </g>
</svg>
