<svg xmlns="http://www.w3.org/2000/svg" width="24.651" height="27.496" viewBox="0 0 24.651 27.496">
  <g id="notification" transform="translate(-3 -1)">
    <path id="Vector" d="M24.373,17.344l-2.567-2.567v-3.4a9.494,9.494,0,0,0-8.533-9.434V0h-1.9V1.944a9.494,9.494,0,0,0-8.533,9.434v3.4L.278,17.344a.948.948,0,0,0-.278.67v2.844a.948.948,0,0,0,.948.948H7.585v.737a4.885,4.885,0,0,0,4.267,4.929,4.746,4.746,0,0,0,5.215-4.718v-.948H23.7a.948.948,0,0,0,.948-.948V18.014A.948.948,0,0,0,24.373,17.344Zm-9.2,5.411a2.844,2.844,0,1,1-5.689,0v-.948H15.17Zm7.585-2.844H1.9v-1.5L4.463,15.84a.948.948,0,0,0,.278-.67V11.377a7.585,7.585,0,1,1,15.17,0V15.17a.948.948,0,0,0,.278.67l2.567,2.567Z" transform="translate(3 1)"/>
  </g>
</svg>
