<svg width="28" height="28" viewBox="0 0 28 28" fill="none" xmlns="http://www.w3.org/2000/svg">
<g clip-path="url(#clip0_205_5)">
<path d="M9.21582 13.6196C9.21582 16.5309 11.5299 18.845 14.4412 18.845C17.3524 18.845 19.6665 16.5309 19.6665 13.6196C19.6665 10.7084 17.3524 8.39429 14.4412 8.39429C11.5299 8.39429 9.21582 10.7084 9.21582 13.6196ZM18.1736 13.6196C18.1736 15.7098 16.5313 17.352 14.4412 17.352C12.351 17.352 10.7088 15.7098 10.7088 13.6196C10.7088 11.5295 12.351 9.88724 14.4412 9.88724C16.5313 9.88724 18.1736 11.5295 18.1736 13.6196Z" fill="white"/>
<path d="M25.4144 11.1563L23.3243 10.4845L23.2496 10.2605C22.6524 10.2605 22.0552 10.1112 21.4581 9.96194C21.682 10.4098 21.9059 10.9324 22.0552 11.3803L22.1299 11.7535L24.8172 12.5746V14.6648L22.1299 15.4859L22.0552 15.8591L21.3834 17.4267L21.1595 17.8L22.5031 20.2633L21.0102 21.7563L18.5468 20.4126L18.1736 20.6366C17.651 20.9352 17.1285 21.1591 16.6059 21.3084L16.2327 21.3831L15.4116 24.0704H13.3214L12.5003 21.3831L12.1271 21.3084L10.5595 20.6366L10.1862 20.4126L7.72285 21.7563L6.22989 20.2633L7.57356 17.8L7.34961 17.4267C7.05102 16.9042 6.82708 16.3817 6.67778 15.8591L6.60313 15.4859L3.91581 14.6648V12.5746L6.45384 11.8281L6.60313 11.4549C6.75243 10.8577 6.97637 10.3352 7.27496 9.81264L7.49891 9.43941L6.22989 6.97603L7.72285 5.48307L10.1116 6.82673L10.4848 6.60279C11.0074 6.30419 11.5299 6.08025 12.1271 5.93095L12.5003 5.78166L13.3214 3.16898H15.4116L16.2327 5.78166L16.6059 5.93095C17.1285 6.08025 17.5764 6.30419 18.0243 6.52814C17.8003 5.93095 17.7257 5.33377 17.7257 4.66194L17.4271 4.51265L16.7552 2.4225C16.606 2.04926 16.1581 1.67603 15.6355 1.67603H13.0975C12.575 1.67603 12.1271 2.04926 12.0524 2.5718L11.3806 4.66194C10.9327 4.73659 10.5595 4.88588 10.1862 5.10983L8.24539 4.06476C7.7975 3.84081 7.20032 3.91546 6.82708 4.2887L5.03553 6.08025C4.66229 6.45349 4.58764 7.05067 4.81158 7.49856L5.78201 9.36476C5.63271 9.738 5.48341 10.1859 5.33412 10.5591L3.24398 11.231C2.79609 11.3803 2.42285 11.8281 2.42285 12.3507V14.8887C2.42285 15.4112 2.79609 15.8591 3.31863 16.0084L5.40877 16.6803L5.85665 17.8L4.81158 19.7408C4.58764 20.1887 4.66229 20.7859 5.03553 21.1591L6.82708 22.9507C7.20032 23.3239 7.7975 23.3986 8.24539 23.1746L10.1862 22.1295L11.3059 22.5774L11.9778 24.7422C12.1271 25.1901 12.575 25.5633 13.0975 25.5633H15.6355C16.1581 25.5633 16.606 25.1901 16.7552 24.7422L17.4271 22.5774L18.5468 22.1295L20.4876 23.1746C20.9355 23.3986 21.5327 23.3239 21.906 22.9507L23.6975 21.1591C24.0707 20.7859 24.1454 20.1887 23.9214 19.7408L22.8764 17.8L23.3243 16.6803L25.489 16.0084C25.9369 15.8591 26.3102 15.4112 26.3102 14.8887V12.3507C26.3102 11.8281 25.9369 11.3056 25.4144 11.1563Z" fill="white"/>
<path d="M23.3242 8.39448C25.3855 8.39448 27.0566 6.72343 27.0566 4.66208C27.0566 2.60074 25.3855 0.929688 23.3242 0.929688C21.2628 0.929688 19.5918 2.60074 19.5918 4.66208C19.5918 6.72343 21.2628 8.39448 23.3242 8.39448Z" fill="white"/>
</g>
<defs>
<clipPath id="clip0_205_5">
<rect width="26.8732" height="26.8732" fill="white" transform="translate(0.929688 0.183105)"/>
</clipPath>
</defs>
</svg>
