<svg width="28" height="28" viewBox="0 0 28 28" fill="none" xmlns="http://www.w3.org/2000/svg">
<g clip-path="url(#clip0_1_2443)">
<path d="M9.21582 13.6197C9.21582 16.531 11.5299 18.8451 14.4412 18.8451C17.3524 18.8451 19.6665 16.531 19.6665 13.6197C19.6665 10.7085 17.3524 8.39437 14.4412 8.39437C11.5299 8.39437 9.21582 10.7085 9.21582 13.6197ZM18.1736 13.6197C18.1736 15.7099 16.5313 17.3521 14.4412 17.3521C12.351 17.3521 10.7088 15.7099 10.7088 13.6197C10.7088 11.5296 12.351 9.88733 14.4412 9.88733C16.5313 9.88733 18.1736 11.5296 18.1736 13.6197Z" fill="black"/>
<path d="M25.4144 11.1563L23.3243 10.4845L23.2496 10.2606C22.6524 10.2606 22.0552 10.1113 21.4581 9.96198C21.682 10.4099 21.9059 10.9324 22.0552 11.3803L22.1299 11.7535L24.8172 12.5747V14.6648L22.1299 15.4859L22.0552 15.8592L21.3834 17.4268L21.1595 17.8L22.5031 20.2634L21.0102 21.7563L18.5468 20.4127L18.1736 20.6366C17.651 20.9352 17.1285 21.1592 16.6059 21.3085L16.2327 21.3831L15.4116 24.0704H13.3214L12.5003 21.3831L12.1271 21.3085L10.5595 20.6366L10.1862 20.4127L7.72285 21.7563L6.22989 20.2634L7.57356 17.8L7.34961 17.4268C7.05102 16.9042 6.82708 16.3817 6.67778 15.8592L6.60313 15.4859L3.91581 14.6648V12.5747L6.45384 11.8282L6.60313 11.4549C6.75243 10.8578 6.97637 10.3352 7.27496 9.81268L7.49891 9.43944L6.22989 6.97606L7.72285 5.48311L10.1116 6.82677L10.4848 6.60282C11.0074 6.30423 11.5299 6.08029 12.1271 5.93099L12.5003 5.7817L13.3214 3.16902H15.4116L16.2327 5.7817L16.6059 5.93099C17.1285 6.08029 17.5764 6.30423 18.0243 6.52818C17.8003 5.93099 17.7257 5.33381 17.7257 4.66198L17.4271 4.51268L16.7552 2.42254C16.606 2.0493 16.1581 1.67606 15.6355 1.67606H13.0975C12.575 1.67606 12.1271 2.0493 12.0524 2.57184L11.3806 4.66198C10.9327 4.73663 10.5595 4.88592 10.1862 5.10987L8.24539 4.0648C7.7975 3.84085 7.20032 3.9155 6.82708 4.28874L5.03553 6.08029C4.66229 6.45353 4.58764 7.05071 4.81158 7.4986L5.78201 9.3648C5.63271 9.73804 5.48341 10.1859 5.33412 10.5592L3.24398 11.231C2.79609 11.3803 2.42285 11.8282 2.42285 12.3507V14.8887C2.42285 15.4113 2.79609 15.8592 3.31863 16.0085L5.40877 16.6803L5.85665 17.8L4.81158 19.7409C4.58764 20.1887 4.66229 20.7859 5.03553 21.1592L6.82708 22.9507C7.20032 23.3239 7.7975 23.3986 8.24539 23.1747L10.1862 22.1296L11.3059 22.5775L11.9778 24.7423C12.1271 25.1901 12.575 25.5634 13.0975 25.5634H15.6355C16.1581 25.5634 16.606 25.1901 16.7552 24.7423L17.4271 22.5775L18.5468 22.1296L20.4876 23.1747C20.9355 23.3986 21.5327 23.3239 21.906 22.9507L23.6975 21.1592C24.0707 20.7859 24.1454 20.1887 23.9214 19.7409L22.8764 17.8L23.3243 16.6803L25.489 16.0085C25.9369 15.8592 26.3102 15.4113 26.3102 14.8887V12.3507C26.3102 11.8282 25.9369 11.3056 25.4144 11.1563Z" fill="black"/>
<path d="M23.3242 8.39437C25.3855 8.39437 27.0566 6.72332 27.0566 4.66198C27.0566 2.60063 25.3855 0.929585 23.3242 0.929585C21.2628 0.929585 19.5918 2.60063 19.5918 4.66198C19.5918 6.72332 21.2628 8.39437 23.3242 8.39437Z" fill="black"/>
</g>
<defs>
<clipPath id="clip0_1_2443">
<rect width="26.8732" height="26.8732" fill="white" transform="translate(0.929688 0.183105)"/>
</clipPath>
</defs>
</svg>
