<svg width="54" height="55" viewBox="0 0 54 55" fill="none" xmlns="http://www.w3.org/2000/svg">
<ellipse cx="27" cy="27.5" rx="27" ry="27.5" fill="#55C15E"/>
<path d="M35 26H33C32.9992 25.2046 32.6829 24.442 32.1204 23.8796C31.558 23.3171 30.7954 23.0008 30 23V21C31.3256 21.0016 32.5964 21.5289 33.5338 22.4662C34.4711 23.4036 34.9984 24.6744 35 26Z" fill="white"/>
<path d="M39 26H37C36.9979 24.1441 36.2597 22.3649 34.9474 21.0526C33.6351 19.7403 31.8559 19.0021 30 19V17C32.3861 17.0026 34.6738 17.9517 36.361 19.639C38.0483 21.3262 38.9974 23.6139 39 26Z" fill="white"/>
<path d="M37 42H36.83C17.18 40.87 14.39 24.29 14 19.23C13.9391 18.4367 14.1957 17.6518 14.7135 17.0477C15.2313 16.4437 15.9678 16.07 16.761 16.009C16.8404 16.003 16.92 16 17 16H22.27C22.6706 15.9996 23.062 16.1195 23.3937 16.3442C23.7253 16.5688 23.9818 16.8879 24.13 17.26L25.65 21C25.7964 21.3635 25.8327 21.7621 25.7545 22.1461C25.6763 22.5301 25.4869 22.8827 25.21 23.16L23.08 25.31C23.4114 27.2013 24.3164 28.945 25.6724 30.3045C27.0283 31.664 28.7696 32.5737 30.66 32.91L32.83 30.76C33.1115 30.4862 33.4674 30.3013 33.8533 30.2283C34.2392 30.1554 34.638 30.1977 35 30.35L38.77 31.86C39.1366 32.0129 39.4493 32.2714 39.6683 32.6027C39.8874 32.9339 40.0028 33.3229 40 33.72V39C40 39.7956 39.684 40.5587 39.1214 41.1213C38.5587 41.6839 37.7957 42 37 42ZM17 18C16.8687 17.9996 16.7386 18.0251 16.6171 18.075C16.4956 18.1249 16.3852 18.1982 16.292 18.2908C16.1989 18.3834 16.1249 18.4934 16.0743 18.6145C16.0237 18.7357 15.9974 18.8657 15.997 18.997C15.997 19.025 15.998 19.0527 16 19.08C16.46 25 19.41 39 36.94 40C37.2047 40.0159 37.4648 39.926 37.6632 39.7501C37.8616 39.5742 37.9821 39.3267 37.998 39.062L38 39V33.72L34.23 32.21L31.36 35.06L30.88 35C22.18 33.91 21 25.21 21 25.12L20.94 24.64L23.78 21.77L22.28 18H17Z" fill="white"/>
</svg>
