<svg xmlns="http://www.w3.org/2000/svg" width="40.701" height="40.701" viewBox="0 0 40.701 40.701">
  <g id="profile" transform="translate(-1451.649 -29)">
    <g id="Group_21" data-name="Group 21">
      <g id="healthicons:ui-user-profile-outline" transform="translate(1445.816 23.167)">
        <g id="Group" transform="translate(5.833 5.833)">
          <path id="Vector" d="M3.876,24.13a59.368,59.368,0,0,1,18.735.036A2.127,2.127,0,0,1,23.95,27.6q-.793.969-1.624,1.9h2.687q.253-.3.511-.616a4.16,4.16,0,0,0-2.634-6.742,61.379,61.379,0,0,0-19.308-.034A4.232,4.232,0,0,0,.869,28.868q.252.327.5.641H3.99q-.773-.926-1.508-1.882a2.2,2.2,0,0,1,1.394-3.5Zm9.352-9.884a6.105,6.105,0,1,0-4.317-1.788,6.105,6.105,0,0,0,4.317,1.788Zm0,2.035A8.14,8.14,0,1,0,7.472,13.9a8.14,8.14,0,0,0,5.756,2.384Z" transform="translate(7.123 7.123)" fill="#b5b5b5" fill-rule="evenodd"/>
          <path id="Vector-2" data-name="Vector" d="M20.351,38.666A18.316,18.316,0,1,0,2.035,20.351,18.316,18.316,0,0,0,20.351,38.666Zm0,2.035A20.351,20.351,0,1,0,0,20.351,20.35,20.35,0,0,0,20.351,40.7Z" fill="#b5b5b5" fill-rule="evenodd"/>
        </g>
      </g>
    </g>
  </g>
</svg>
