<svg xmlns="http://www.w3.org/2000/svg" width="141" height="131.999" viewBox="0 0 141 131.999">
  <g id="progress_illustration" transform="translate(0 -0.001)">
    <path id="Vector" d="M17.167,7.98l6.325.989A20.684,20.684,0,0,0,27.792,0C23.167,3.79,16.133,1.776,10.525,3.845a12.432,12.432,0,0,0-7.433,7.8L0,14.974a20.8,20.8,0,0,0,8.808,1.432,20.805,20.805,0,0,0,8.6-2.391,20.111,20.111,0,0,0,4.1-2.945C19.292,9.675,17.167,7.98,17.167,7.98Z" transform="translate(113.174 93.004)" fill="#f2f2f2"/>
    <path id="Vector-2" data-name="Vector" d="M12.249,11.885l6.1-1.938A20.7,20.7,0,0,0,18.2,0C15.752,5.457,8.559,6.794,4.461,11.149a12.444,12.444,0,0,0-3.178,10.3L0,25.809a20.806,20.806,0,0,0,8.522-2.651,20.827,20.827,0,0,0,6.63-5.978,20.137,20.137,0,0,0,2.356-4.466C14.906,12.454,12.249,11.885,12.249,11.885Z" transform="translate(115.847 78.973)" fill="#f2f2f2"/>
    <path id="Vector-3" data-name="Vector" d="M141,.249a.248.248,0,0,1-.248.249H.248a.249.249,0,0,1,0-.5h140.5A.248.248,0,0,1,141,.249Z" transform="translate(0 109.746)" fill="#ccc"/>
    <path id="Vector-4" data-name="Vector" d="M89.733,44.909A44.867,44.867,0,1,1,44.867,0,44.888,44.888,0,0,1,89.733,44.909Z" transform="translate(13.355 9.58)" fill="#e6e6e6"/>
    <path id="Vector-5" data-name="Vector" d="M77.212,38.642A38.6,38.6,0,0,1,61.63,69.663c-.323.242-.653.478-.985.708a38.583,38.583,0,0,1-44.078,0c-.332-.23-.662-.466-.985-.708a38.666,38.666,0,0,1,0-62.041c.323-.242.653-.478.985-.708a38.583,38.583,0,0,1,44.078,0c.332.23.662.466.985.708A38.6,38.6,0,0,1,77.212,38.642Z" transform="translate(19.616 15.847)" fill="#fff"/>
    <path id="Vector-6" data-name="Vector" d="M70.534,35.3A35.267,35.267,0,1,1,35.267,0,35.284,35.284,0,0,1,70.534,35.3Z" transform="translate(22.955 19.189)" fill="#eee"/>
    <path id="Vector-7" data-name="Vector" d="M3.088,0C2.554,0,2.022.014,1.493.038a35.254,35.254,0,0,1,23.17,11.6,35.319,35.319,0,0,1,9,24.314A35.316,35.316,0,0,1,23.64,59.861,35.251,35.251,0,0,1,0,70.465c1.018.088,2.047.136,3.088.136A35.25,35.25,0,0,0,28.026,60.262a35.324,35.324,0,0,0,0-49.922A35.25,35.25,0,0,0,3.088,0Z" transform="translate(55.226 19.287)" opacity="0.2"/>
    <path id="Vector-8" data-name="Vector" d="M1.148,0A1.15,1.15,0,0,0,0,1.149V6.162a1.148,1.148,0,1,0,2.3,0V1.149A1.15,1.15,0,0,0,1.148,0Z" transform="translate(57.178 16.682)" fill="#fff"/>
    <path id="Vector-9" data-name="Vector" d="M5.026.711C4.7.468,4.373.232,4.041,0A1.147,1.147,0,0,0,3.018.5L.2,4.644A1.148,1.148,0,1,0,2.1,5.937L4.915,1.795A1.142,1.142,0,0,0,5.026.711Z" transform="translate(76.22 22.758)" fill="#fff"/>
    <path id="Vector-10" data-name="Vector" d="M6.85.715A1.146,1.146,0,0,0,5.356.085L.715,1.971A1.149,1.149,0,0,0,1.579,4.1L6.22,2.213a1.152,1.152,0,0,0,.63-1.5Z" transform="translate(87.205 41.64)" fill="#fff"/>
    <path id="Vector-11" data-name="Vector" d="M4.915,4.644,2.1.5A1.147,1.147,0,0,0,1.073,0C.741.232.412.468.088.711A1.142,1.142,0,0,0,.2,1.795L3.018,5.937a1.148,1.148,0,0,0,1.9-1.293Z" transform="translate(35.11 22.758)" fill="#fff"/>
    <path id="Vector-12" data-name="Vector" d="M6.22,1.971,1.579.084A1.149,1.149,0,0,0,.715,2.213L5.357,4.1A1.149,1.149,0,0,0,6.22,1.971Z" transform="translate(22.304 41.64)" fill="#fff"/>
    <path id="Vector-13" data-name="Vector" d="M1.148,0A1.15,1.15,0,0,0,0,1.149V6.162a1.148,1.148,0,1,0,2.3,0V1.149A1.15,1.15,0,0,0,1.148,0Z" transform="translate(57.178 84.985)" fill="#fff"/>
    <path id="Vector-14" data-name="Vector" d="M4.915,4.644,2.1.5A1.148,1.148,0,0,0,.2,1.8L3.018,5.937a1.147,1.147,0,0,0,1.023.5c.332-.23.662-.466.985-.708a1.142,1.142,0,0,0-.111-1.084Z" transform="translate(76.22 79.782)" fill="#fff"/>
    <path id="Vector-15" data-name="Vector" d="M6.22,1.971,1.579.084A1.149,1.149,0,0,0,.715,2.213L5.357,4.1A1.149,1.149,0,0,0,6.22,1.971Z" transform="translate(87.204 63.155)" fill="#fff"/>
    <path id="Vector-16" data-name="Vector" d="M4.612.2A1.147,1.147,0,0,0,3.018.5L.2,4.644A1.142,1.142,0,0,0,.088,5.728c.323.242.653.478.985.708a1.147,1.147,0,0,0,1.023-.5L4.915,1.795a1.149,1.149,0,0,0-.3-1.6Z" transform="translate(35.11 79.782)" fill="#fff"/>
    <path id="Vector-17" data-name="Vector" d="M6.85.715A1.146,1.146,0,0,0,5.356.085L.715,1.971A1.149,1.149,0,0,0,1.579,4.1L6.22,2.213a1.152,1.152,0,0,0,.63-1.5Z" transform="translate(22.305 63.154)" fill="#fff"/>
    <path id="Vector-18" data-name="Vector" d="M25.133,2A2.4,2.4,0,0,1,23.169,4.77L2.8,8.237A2.4,2.4,0,0,1,2,3.5L22.364.034A2.4,2.4,0,0,1,25.133,2Z" transform="translate(34.683 51.92)" fill="#3f3d56"/>
    <path id="Vector-19" data-name="Vector" d="M24.6,24.442a1.566,1.566,0,0,1-2.213.009L.462,2.678A1.566,1.566,0,0,1,2.666.453L24.591,22.227a1.569,1.569,0,0,1,.009,2.215Z" transform="translate(56.651 52.063)" fill="#3f3d56"/>
    <path id="Vector-20" data-name="Vector" d="M5.426,2.715A2.713,2.713,0,1,1,2.713,0,2.714,2.714,0,0,1,5.426,2.715Z" transform="translate(55.509 51.774)" fill="#ccc"/>
    <path id="Vector-21" data-name="Vector" d="M23.059,7.4C18.895,13.956,12.541,18.3,4.706,21.162a1.472,1.472,0,0,1-2.062-.3h0A13.086,13.086,0,0,1,4.966,2.7a12.946,12.946,0,0,1,18.272,2.48l.118.157a1.475,1.475,0,0,1-.3,2.064Z" transform="translate(16.476 0.001)" fill="#e6e6e6"/>
    <path id="Vector-22" data-name="Vector" d="M.412,5.181A12.944,12.944,0,0,1,18.683,2.7a13.086,13.086,0,0,1,2.322,18.164,1.472,1.472,0,0,1-2.062.3C11.669,18.374,5.7,13.55.59,7.4a1.475,1.475,0,0,1-.3-2.064Z" transform="translate(76.318 0.001)" fill="#e6e6e6"/>
    <path id="Vector-23" data-name="Vector" d="M.587.146A1.151,1.151,0,0,0,.145,1.709L6.769,13.557a1.148,1.148,0,0,0,2-1.122L2.149.587A1.149,1.149,0,0,0,.587.146Z" transform="translate(74.318 93.251)" fill="#e6e6e6"/>
    <path id="Vector-24" data-name="Vector" d="M6.77.588.146,12.436a1.148,1.148,0,1,0,2,1.122L8.773,1.71a1.148,1.148,0,1,0-2-1.122Z" transform="translate(33.207 93.25)" fill="#e6e6e6"/>
    <path id="Vector-25" data-name="Vector" d="M7.1,3.551A3.548,3.548,0,1,1,3.548,0,3.549,3.549,0,0,1,7.1,3.551Z" transform="translate(78.881 102.74)" fill="#e6e6e6"/>
    <path id="Vector-26" data-name="Vector" d="M7.1,3.551A3.548,3.548,0,1,1,3.548,0,3.549,3.549,0,0,1,7.1,3.551Z" transform="translate(81.385 11.878)" fill="#e6e6e6"/>
    <path id="Vector-27" data-name="Vector" d="M7.1,3.551A3.548,3.548,0,1,1,3.548,0,3.549,3.549,0,0,1,7.1,3.551Z" transform="translate(54.465 3.523)" fill="#e6e6e6"/>
    <path id="Vector-28" data-name="Vector" d="M7.1,3.551A3.548,3.548,0,1,1,3.548,0,3.549,3.549,0,0,1,7.1,3.551Z" transform="translate(28.798 11.46)" fill="#e6e6e6"/>
    <path id="Vector-29" data-name="Vector" d="M7.1,3.551A3.548,3.548,0,1,1,3.548,0,3.549,3.549,0,0,1,7.1,3.551Z" transform="translate(31.093 102.74)" fill="#e6e6e6"/>
    <path id="Vector-30" data-name="Vector" d="M.287,2.761a1.776,1.776,0,0,0,2.7.35L8.556,6.1l-.3-3.271L3.017.492A1.788,1.788,0,0,0,.287,2.761Z" transform="translate(79.359 71.747)" fill="#ffb7b7"/>
    <path id="Vector-31" data-name="Vector" d="M0,3.014,2.181,0,12.691,4.973,25.768,2.517a4.483,4.483,0,0,1,5.307,4.4h0A4.488,4.488,0,0,1,26.6,11.409l-14.987.028Z" transform="translate(83.702 72.636)" fill="#162c3d"/>
    <path id="Vector-32" data-name="Vector" d="M2.207,10.291,0,9.234,3.032,0,6.289,1.559Z" transform="translate(78.135 117.417)" fill="#ffb7b7"/>
    <path id="Vector-33" data-name="Vector" d="M5.651,8.716c-.16.1-.321.2-.483.3-.323.2-.648.393-.974.584L3.7,9.884v0l-.01,0,0,0-.25.062L3.08,9.006,2.915,8.57l-.233-.618L2.253,6.82,0,.865,3.5,0l.131.537h0L3.7.8,4.925,5.772l.25,1.016.008.031.151.607.13.526.144.587Z" transform="translate(89.488 117.504)" fill="#ffb7b7"/>
    <path id="Vector-34" data-name="Vector" d="M29.157,10.652c-.222.357-.449.712-.678,1.065q-.637.983-1.308,1.938s0,0,0,0a4.577,4.577,0,0,1-.859.628c-.013.01-.028.016-.041.024a3.166,3.166,0,0,1-.723.29l-.274.068c-.327.078-.652.144-.974.2-.574.1-1.141.175-1.705.221-.045,0-.091.008-.136.011a26.352,26.352,0,0,1-6.935-.553c-1.164-.221-2.352-.485-3.583-.759-.4-.091-.806-.18-1.214-.269l-.1-.021c-.584-.128-1.177-.255-1.785-.38-.765-.157-1.555-.31-2.375-.454l.058,1.157a8.715,8.715,0,0,0,.548,2.6,4.493,4.493,0,0,1,.042,3.526l-.282.818a2.8,2.8,0,0,1-.287,2.471l-.057.086,2.352,5.957.152.386H7.79l-1.482,0H3.8L.173,22.394,0,22.046v-.018L.374,8.045c0-.123.015-.248.031-.372A4.252,4.252,0,0,1,2.022,4.811a4.087,4.087,0,0,1,3.046-.834l1.24.161,2.534.328,1.785.232.036,0,5.264.682L16.3,3.843l.07-.026L18.59,3,26.255.191l.019-.006.5-.185.06.1c.018.029.036.058.052.088A15.047,15.047,0,0,1,28.1,3a44.206,44.206,0,0,1,1.273,4.863q.022.107.039.195l0,.018c0,.028.008.045.01.05A4.543,4.543,0,0,1,29.157,10.652Z" transform="translate(86.881 94.654)" fill="#2f2e41"/>
    <path id="Vector-35" data-name="Vector" d="M36.453,7.688c-.024-.1-.055-.209-.088-.312a22.214,22.214,0,0,0-.9-2.275c-.383-.844-.841-1.748-1.388-2.726q-.4-.711-.853-1.478Q33,.513,32.751.114A.413.413,0,0,0,32.73.078L32.683,0,25.1,1.016l-2.824.378L22.107,2.8l-.041.349s0,0,0,0l-.113.951v0L21.8,5.361l-.013,0L17.6,4.816l-4.319-.56-2.32-.3a4.085,4.085,0,0,0-3.046.834A4.254,4.254,0,0,0,6.3,7.653c-.015.114-.024.23-.029.346L4.079,13.189A33.518,33.518,0,0,0,1.6,22.932L0,28.068l.229.021,3.4.316.9.084L6.506,25.6c.225-.329.439-.669.639-1.016a15.434,15.434,0,0,0,.874-1.759L12.3,12.635q.5.085.982.162,2.249.365,4.319.6a50.842,50.842,0,0,0,11.828.115q1.457-.178,2.816-.467.5-.1.984-.226c.076-.018.151-.036.225-.055a4.139,4.139,0,0,0,2.894-2.707,4.229,4.229,0,0,0,.107-2.364Z" transform="translate(79.909 92.464)" fill="#2f2e41"/>
    <path id="Vector-36" data-name="Vector" d="M8.316,1.326,5.928.18,5.553,0l-.6,1.47L.779,2.39A.992.992,0,0,0,.617,4.277L4.7,5.944l1.3-1.167L5.675,6.343l1.537.628L8.9,1.6Z" transform="translate(72.732 124.874)" fill="#2f2e41"/>
    <path id="Vector-37" data-name="Vector" d="M0,0,.153.386H0Z" transform="translate(95.723 123.936)" fill="#2f2e41"/>
    <path id="Vector-38" data-name="Vector" d="M4.766.21l-2.5.868-.393.136L2.48,2.68.159,6.275A.991.991,0,0,0,1.371,7.73L5.442,6.04l.1-1.741.875,1.336L7.95,5,5.375,0Z" transform="translate(90.125 124.194)" fill="#2f2e41"/>
    <path id="Vector-39" data-name="Vector" d="M14.071,30.364a.918.918,0,0,1-.426-.106L.44,23.352l-.153-.625L0,20.749l0-.019L1.26,14.935c-.023-.05-.071-.131-.125-.224-.561-.951-2.267-3.844.989-7.829L7.841.211,12.747,0,12.8.071a12.8,12.8,0,0,1,2.172,11.883l-.511,9.236.548,1.865a5.151,5.151,0,0,1-.151,3.33l.126,3.02a.922.922,0,0,1-.917.959Z" transform="translate(101.667 72.139)" fill="#4910AE"/>
    <path id="Vector-40" data-name="Vector" d="M2.706,8.156a1.78,1.78,0,0,0,.444-2.691L6.324,0,3.047.185.535,5.346a1.788,1.788,0,0,0,2.171,2.81Z" transform="translate(101.578 101.964)" fill="#ffb7b7"/>
    <path id="Vector-41" data-name="Vector" d="M2.934,30.952,0,28.665l5.331-10.34-2-13.167A4.482,4.482,0,0,1,7.91,0h0a4.488,4.488,0,0,1,4.331,4.63l-.494,14.993Z" transform="translate(102.631 75.15)" fill="#162c3d"/>
    <path id="a1ca5f83-7fa1-45b1-9d3b-bf096f25c0e5" d="M0,11.376V6.516a6.506,6.506,0,1,1,13.012-.008v.008c1.147,2.392.429,3.529,0,4.86a.875.875,0,0,1-.874.874H.874A.875.875,0,0,1,0,11.376Z" transform="translate(106.36 58.202)" fill="#2f2e41"/>
    <path id="Vector-42" data-name="Vector" d="M9.74,4.875A4.87,4.87,0,1,1,4.87,0,4.872,4.872,0,0,1,9.74,4.875Z" transform="translate(105.863 60.388)" fill="#ffb7b7"/>
    <path id="Vector-43" data-name="Vector" d="M11.056,7.356l-.132-.023c-.76-.135-1.519-.267-2.277-.4L8.577,5.21,7.659,6.749a7.693,7.693,0,0,1-5.894-.565A16.635,16.635,0,0,1,0,5.21,6.46,6.46,0,0,1,3.171.638c.07-.04.137-.074.207-.109h0C3.5.471,3.619.417,3.74.368A5.361,5.361,0,0,1,9.371,1.461,6.419,6.419,0,0,1,11.056,7.356Z" transform="translate(104.774 59.184)" fill="#2f2e41"/>
  </g>
</svg>
