<svg xmlns="http://www.w3.org/2000/svg" width="45" height="37.603" viewBox="0 0 45 37.603">
  <g id="project" transform="translate(-4.5 -3.76)">
    <path id="Vector" d="M1.688,0A1.869,1.869,0,0,0,.494.413,1.3,1.3,0,0,0,0,1.41v14.1a1.3,1.3,0,0,0,.494,1,1.869,1.869,0,0,0,1.193.413,1.869,1.869,0,0,0,1.193-.413,1.3,1.3,0,0,0,.494-1V1.41a1.3,1.3,0,0,0-.494-1A1.869,1.869,0,0,0,1.688,0ZM12.375,0a1.869,1.869,0,0,0-1.193.413,1.3,1.3,0,0,0-.494,1V9.871a1.3,1.3,0,0,0,.494,1,1.93,1.93,0,0,0,2.386,0,1.3,1.3,0,0,0,.494-1V1.41a1.3,1.3,0,0,0-.494-1A1.869,1.869,0,0,0,12.375,0Zm9,1.41a1.3,1.3,0,0,1,.494-1,1.93,1.93,0,0,1,2.386,0,1.3,1.3,0,0,1,.494,1V19.271a1.3,1.3,0,0,1-.494,1,1.93,1.93,0,0,1-2.386,0,1.3,1.3,0,0,1-.494-1Z" transform="translate(14.625 11.281)" fill="#4910AE"/>
    <path id="Vector-2" data-name="Vector" d="M3.938,0A4.362,4.362,0,0,0,1.153.964,3.043,3.043,0,0,0,0,3.29V34.312c0,1.816,1.764,3.29,3.938,3.29H41.063a4.362,4.362,0,0,0,2.784-.964A3.043,3.043,0,0,0,45,34.312V3.29A3.043,3.043,0,0,0,43.847.964,4.362,4.362,0,0,0,41.063,0ZM3.375,3.29a.435.435,0,0,1,.165-.332.623.623,0,0,1,.4-.138H41.063a.623.623,0,0,1,.4.138.435.435,0,0,1,.165.332V34.312a.435.435,0,0,1-.165.332.623.623,0,0,1-.4.138H3.938a.623.623,0,0,1-.4-.138.435.435,0,0,1-.165-.332Z" transform="translate(4.5 3.76)" fill="#4910AE" fill-rule="evenodd"/>
  </g>
</svg>
