<svg id="Group_176" data-name="Group 176" xmlns="http://www.w3.org/2000/svg" width="59.542" height="14" viewBox="0 0 59.542 14">
  <path id="Path_232" data-name="Path 232" d="M32.843,257.977c1.22,0,2.977-.248,2.977-1.7a1.938,1.938,0,0,0-.03-.337l-.724-3.145c-.169-.695-.318-1-1.528-1.617a13.975,13.975,0,0,0-3.612-1.28c-.566,0-.734.734-1.409.734-.655,0-1.131-.546-1.736-.546-.585,0-.962.4-1.26,1.22,0,0-.814,2.312-.923,2.639a.61.61,0,0,0-.02.189c0,.893,3.532,3.83,8.265,3.84m3.165-1.111a4.858,4.858,0,0,1,.169.982c0,1.359-1.528,2.113-3.542,2.113-4.554,0-8.533-2.659-8.533-4.425a1.773,1.773,0,0,1,.149-.714c-1.637.079-3.751.377-3.751,2.242,0,3.066,7.253,6.836,13.008,6.836,4.405,0,5.517-1.994,5.517-3.562-.01-1.23-1.082-2.639-3.016-3.473" transform="translate(-20.5 -249.9)" fill="#e00"/>
  <path id="Path_233" data-name="Path 233" d="M68.706,293.527a4.858,4.858,0,0,1,.169.982c0,1.359-1.528,2.113-3.542,2.113-4.554,0-8.533-2.659-8.533-4.425a1.773,1.773,0,0,1,.149-.714l.357-.883a.58.58,0,0,0-.02.189c0,.893,3.532,3.84,8.265,3.84,1.22,0,2.977-.248,2.977-1.7a1.937,1.937,0,0,0-.03-.337Z" transform="translate(-53.198 -286.562)"/>
  <path id="Path_234" data-name="Path 234" d="M275.93,287.164c0,1.161.695,1.716,1.965,1.716a5.833,5.833,0,0,0,1.161-.159v-1.339a2.116,2.116,0,0,1-.744.109c-.526,0-.714-.159-.714-.655v-2.054h1.518V283.4H277.6v-1.756l-1.657.357v1.389h-1.1v1.379h1.091Zm-5.159.03c0-.357.357-.536.9-.536a4.093,4.093,0,0,1,.982.119v.695a2.209,2.209,0,0,1-1.032.258c-.536.01-.853-.2-.853-.536m.506,1.707a2.547,2.547,0,0,0,1.5-.417v.327h1.637v-3.473c0-1.32-.893-2.044-2.371-2.044a6.067,6.067,0,0,0-2.53.6l.6,1.22a4.4,4.4,0,0,1,1.637-.427c.685,0,1.032.268,1.032.8v.268a4.645,4.645,0,0,0-1.23-.149c-1.389,0-2.232.585-2.232,1.627a1.736,1.736,0,0,0,1.965,1.667m-9-.089h1.756V286h2.947v2.808h1.766v-7.164H266.99V284.4h-2.947v-2.748h-1.756Zm-6.7-2.709A1.371,1.371,0,0,1,257,284.733a1.656,1.656,0,0,1,1.141.417v1.9a1.629,1.629,0,0,1-1.141.437,1.385,1.385,0,0,1-1.419-1.379m2.59,2.719h1.637V281.3l-1.657.357v2.034a2.675,2.675,0,0,0-1.379-.357,2.774,2.774,0,0,0-.1,5.546h.05a2.428,2.428,0,0,0,1.449-.466Zm-7.521-4.167a1.182,1.182,0,0,1,1.131.863h-2.262a1.151,1.151,0,0,1,1.131-.863m-2.788,1.459a2.845,2.845,0,0,0,2.947,2.808,3.238,3.238,0,0,0,2.262-.824l-1.091-.972a1.459,1.459,0,0,1-1.082.407,1.392,1.392,0,0,1-1.33-.863h3.86v-.407a2.776,2.776,0,1,0-5.546-.218.094.094,0,0,0-.02.069m-2.848-2.957a.81.81,0,1,1,0,1.607h-1.736v-1.607Zm-3.5,5.656h1.756V286.2h1.34l1.349,2.61h1.974l-1.578-2.867a2.169,2.169,0,0,0,1.349-2.014,2.326,2.326,0,0,0-2.53-2.282H241.5v7.164Z" transform="translate(-219.572 -278.184)"/>
</svg>
