<svg id="service_white" xmlns="http://www.w3.org/2000/svg" width="38.61" height="38.659" viewBox="0 0 38.61 38.659">
  <path id="Vector" d="M16.241,9.978a3.7,3.7,0,0,0-2.31.822L11.259,9.259v-2a3.736,3.736,0,1,0-2.491,0v2L6.1,10.8a3.7,3.7,0,0,0-2.31-.824A3.761,3.761,0,1,0,7.43,12.908l2.584-1.493L12.6,12.907a3.734,3.734,0,1,0,3.643-2.929ZM3.787,14.96a1.245,1.245,0,1,1,.881-.365A1.245,1.245,0,0,1,3.787,14.96ZM10.014,2.505a1.245,1.245,0,1,1-.881.365A1.245,1.245,0,0,1,10.014,2.505ZM16.241,14.96a1.245,1.245,0,1,1,.881-.365A1.245,1.245,0,0,1,16.241,14.96Z" transform="translate(18.631 21.159)" fill="#fff"/>
  <path id="Vector-2" data-name="Vector" d="M4.982,2.491A2.491,2.491,0,1,1,2.491,0,2.491,2.491,0,0,1,4.982,2.491Z" transform="translate(4.982 21.173)" fill="#fff"/>
  <path id="Vector-3" data-name="Vector" d="M4.982,9.964A5,5,0,1,1,8.5,8.5,4.982,4.982,0,0,1,4.982,9.964Zm0-7.473a2.5,2.5,0,1,0,1.759.732A2.491,2.491,0,0,0,4.982,2.491Z" transform="translate(11.209 13.7)" fill="#fff"/>
  <path id="Vector-4" data-name="Vector" d="M4.982,2.491A2.491,2.491,0,1,1,2.491,0,2.491,2.491,0,0,1,4.982,2.491Z" transform="translate(22.418 11.209)" fill="#fff"/>
  <path id="Vector-5" data-name="Vector" d="M14.97,33.965,2.491,26.687V10.679l13.7-7.991L30.508,11.04l1.255-2.152L16.819.17a1.245,1.245,0,0,0-1.255,0L.618,8.888A1.245,1.245,0,0,0,0,9.964V27.4a1.245,1.245,0,0,0,.618,1.076l13.1,7.642Z" transform="translate(0 0)" fill="#fff"/>
</svg>
