<svg xmlns="http://www.w3.org/2000/svg" width="41.657" height="41.71" viewBox="0 0 41.657 41.71">
  <g id="service_blue" transform="translate(-1.344 -1.343)">
    <path id="Vector" d="M17.523,10.765a3.991,3.991,0,0,0-2.493.887L12.148,9.99V7.832a4.031,4.031,0,1,0-2.688,0V9.99L6.578,11.655a3.991,3.991,0,0,0-2.493-.89,4.058,4.058,0,1,0,3.93,3.162L10.8,12.316l2.788,1.61a4.029,4.029,0,1,0,3.93-3.16ZM4.086,16.14a1.344,1.344,0,1,1,.95-.394A1.344,1.344,0,0,1,4.086,16.14ZM10.8,2.7a1.344,1.344,0,1,1-.95.394A1.344,1.344,0,0,1,10.8,2.7ZM17.523,16.14a1.344,1.344,0,1,1,.95-.394A1.344,1.344,0,0,1,17.523,16.14Z" transform="translate(21.446 24.172)" fill="#4910AE"/>
    <path id="Vector-2" data-name="Vector" d="M5.375,2.688A2.688,2.688,0,1,1,2.688,0,2.687,2.687,0,0,1,5.375,2.688Z" transform="translate(6.719 24.188)" fill="#4910AE"/>
    <path id="Vector-3" data-name="Vector" d="M5.375,10.75a5.391,5.391,0,1,1,3.8-1.579,5.375,5.375,0,0,1-3.8,1.579Zm0-8.062a2.7,2.7,0,1,0,1.9.79A2.688,2.688,0,0,0,5.375,2.688Z" transform="translate(13.437 16.125)" fill="#4910AE"/>
    <path id="Vector-4" data-name="Vector" d="M5.375,2.688A2.688,2.688,0,1,1,2.688,0,2.687,2.687,0,0,1,5.375,2.688Z" transform="translate(25.531 13.438)" fill="#4910AE"/>
    <path id="Vector-5" data-name="Vector" d="M16.152,36.646,2.688,28.793V11.522L17.469,2.9l15.448,9.011,1.354-2.322L18.146.183a1.344,1.344,0,0,0-1.354,0L.667,9.589A1.344,1.344,0,0,0,0,10.75V29.563a1.344,1.344,0,0,0,.667,1.161L14.8,38.969Z" transform="translate(1.344 1.343)" fill="#4910AE"/>
  </g>
</svg>
