<svg width="54" height="55" viewBox="0 0 54 55" fill="none" xmlns="http://www.w3.org/2000/svg">
<ellipse cx="27.3874" cy="26.5" rx="12.8689" ry="13.5" fill="#1856A9"/>
<path fill-rule="evenodd" clip-rule="evenodd" d="M37.5309 32.421L42.2102 35.2253C42.2102 35.2253 42.9199 35.7779 42.9199 36.0722C42.9199 36.3664 42.3389 36.6605 42.3389 36.6605C42.3389 36.6605 40.8426 36.7078 39.036 36.6605C37.2293 36.6132 33.6011 36.6605 33.6011 36.6605L37.5309 32.421Z" fill="#1755A8"/>
<path fill-rule="evenodd" clip-rule="evenodd" d="M35.7438 31.4738L39.8125 35.2394C39.8125 35.2394 39.0899 35.2871 37.2916 35.2394C35.4933 35.1917 33.5999 35.2394 33.5999 35.2394L35.7438 31.4738Z" fill="#E6FBFE"/>
<ellipse cx="27.1667" cy="29.8156" rx="9.54072" ry="8.76316" fill="white"/>
<ellipse cx="27.1664" cy="32.1843" rx="1.55314" ry="0.710526" fill="#44E2F7"/>
<ellipse cx="31.1164" cy="27.9211" rx="1.59684" ry="1.65789" fill="#1755A8"/>
<ellipse cx="23.216" cy="27.9211" rx="1.59684" ry="1.65789" fill="#1755A8"/>
<path fill-rule="evenodd" clip-rule="evenodd" d="M16.095 32.1843L10.7918 35.2254C10.7918 35.2254 10.082 35.778 10.082 36.0722C10.082 36.3665 10.6631 36.6606 10.6631 36.6606C10.6631 36.6606 12.1594 36.7079 13.966 36.6606C15.7726 36.6133 19.4009 36.6606 19.4009 36.6606L16.095 32.1843Z" fill="#1755A8"/>
<path d="M35.8191 33.6053C35.8191 33.6053 32.4351 38.579 27.1659 38.579C21.8967 38.579 18.5127 33.8421 18.5127 33.6053C18.5127 33.3684 21.8967 35.2631 27.1659 35.2631C32.4351 35.2631 35.8191 33.6053 35.8191 33.6053Z" fill="#E6FBFE"/>
<path d="M53 27.5C53 42.1529 41.3422 54 27 54C12.6578 54 1 42.1529 1 27.5C1 12.8471 12.6578 1 27 1C41.3422 1 53 12.8471 53 27.5Z" stroke="black" stroke-width="2"/>
</svg>
