<svg width="54" height="55" viewBox="0 0 54 55" fill="none" xmlns="http://www.w3.org/2000/svg">
<ellipse cx="27" cy="27.5" rx="27" ry="27.5" fill="#D8A033"/>
<g clip-path="url(#clip0_1_2570)">
<path d="M33 22C33.2652 22 33.5196 22.1054 33.7071 22.2929C33.8946 22.4804 34 22.7348 34 23V31C34 31.2652 33.8946 31.5196 33.7071 31.7071C33.5196 31.8946 33.2652 32 33 32H23.414C22.8836 32.0001 22.375 32.2109 22 32.586L20 34.586V23C20 22.7348 20.1054 22.4804 20.2929 22.2929C20.4804 22.1054 20.7348 22 21 22H33ZM21 21C20.4696 21 19.9609 21.2107 19.5858 21.5858C19.2107 21.9609 19 22.4696 19 23V35.793C19 35.8919 19.0294 35.9886 19.0844 36.0709C19.1394 36.1531 19.2176 36.2172 19.309 36.255C19.4004 36.2928 19.501 36.3026 19.598 36.2832C19.6951 36.2638 19.7841 36.216 19.854 36.146L22.707 33.293C22.8945 33.1055 23.1488 33.0001 23.414 33H33C33.5304 33 34.0391 32.7893 34.4142 32.4142C34.7893 32.0391 35 31.5304 35 31V23C35 22.4696 34.7893 21.9609 34.4142 21.5858C34.0391 21.2107 33.5304 21 33 21H21Z" fill="white"/>
<path d="M22 24.5C22 24.3674 22.0527 24.2402 22.1464 24.1464C22.2402 24.0527 22.3674 24 22.5 24H31.5C31.6326 24 31.7598 24.0527 31.8536 24.1464C31.9473 24.2402 32 24.3674 32 24.5C32 24.6326 31.9473 24.7598 31.8536 24.8536C31.7598 24.9473 31.6326 25 31.5 25H22.5C22.3674 25 22.2402 24.9473 22.1464 24.8536C22.0527 24.7598 22 24.6326 22 24.5ZM22 27C22 26.8674 22.0527 26.7402 22.1464 26.6464C22.2402 26.5527 22.3674 26.5 22.5 26.5H31.5C31.6326 26.5 31.7598 26.5527 31.8536 26.6464C31.9473 26.7402 32 26.8674 32 27C32 27.1326 31.9473 27.2598 31.8536 27.3536C31.7598 27.4473 31.6326 27.5 31.5 27.5H22.5C22.3674 27.5 22.2402 27.4473 22.1464 27.3536C22.0527 27.2598 22 27.1326 22 27ZM22 29.5C22 29.3674 22.0527 29.2402 22.1464 29.1464C22.2402 29.0527 22.3674 29 22.5 29H27.5C27.6326 29 27.7598 29.0527 27.8536 29.1464C27.9473 29.2402 28 29.3674 28 29.5C28 29.6326 27.9473 29.7598 27.8536 29.8536C27.7598 29.9473 27.6326 30 27.5 30H22.5C22.3674 30 22.2402 29.9473 22.1464 29.8536C22.0527 29.7598 22 29.6326 22 29.5Z" fill="white"/>
</g>
<defs>
<clipPath id="clip0_1_2570">
<rect width="16" height="16" fill="white" transform="translate(19 21)"/>
</clipPath>
</defs>
</svg>
