<svg id="Group_190" data-name="Group 190" xmlns="http://www.w3.org/2000/svg" width="57.759" height="12.972" viewBox="0 0 57.759 12.972">
  <path id="Path_224" data-name="Path 224" d="M7.523,64.383q-.527.132-1.391.28a11.945,11.945,0,0,1-2,.148,4.247,4.247,0,0,1-1.663-.288,2.681,2.681,0,0,1-1.086-.815A3.309,3.309,0,0,1,.79,62.465a6.474,6.474,0,0,1-.181-1.588V56.07H2.14v4.477a3.881,3.881,0,0,0,.494,2.239,1.923,1.923,0,0,0,1.662.675q.247,0,.51-.017T5.3,63.4q.23-.025.42-.049a1.251,1.251,0,0,0,.272-.058V56.07H7.523v8.313Z" transform="translate(-0.609 -51.856)"/>
  <path id="Path_225" data-name="Path 225" d="M121.707,5.411a4.133,4.133,0,0,1,.848-.379,3.974,3.974,0,0,1,1.309-.2,3.883,3.883,0,0,1,1.638.329,3.4,3.4,0,0,1,1.21.922A4.058,4.058,0,0,1,127.46,7.5a6.1,6.1,0,0,1,.255,1.811,5.405,5.405,0,0,1-.3,1.868,3.931,3.931,0,0,1-.864,1.407,3.8,3.8,0,0,1-1.35.889,4.8,4.8,0,0,1-1.778.313,10.784,10.784,0,0,1-1.893-.148q-.823-.148-1.35-.3V1.081l1.531-.263V5.411Zm0,6.848a4.911,4.911,0,0,0,.65.123,7.873,7.873,0,0,0,1.045.058,2.54,2.54,0,0,0,1.975-.815,3.318,3.318,0,0,0,.741-2.313,5.541,5.541,0,0,0-.132-1.235,2.786,2.786,0,0,0-.428-1,2.073,2.073,0,0,0-.765-.659,2.466,2.466,0,0,0-1.128-.239,3.036,3.036,0,0,0-1.152.214,3.154,3.154,0,0,0-.807.444v5.416Z" transform="translate(-111.057 -0.818)"/>
  <path id="Path_226" data-name="Path 226" d="M247.3,64.383q-.527.132-1.391.28a11.946,11.946,0,0,1-2,.148,4.246,4.246,0,0,1-1.663-.288,2.679,2.679,0,0,1-1.086-.815,3.308,3.308,0,0,1-.593-1.243,6.477,6.477,0,0,1-.181-1.588V56.07h1.531v4.477a3.88,3.88,0,0,0,.494,2.239,1.923,1.923,0,0,0,1.663.675q.247,0,.51-.017t.494-.041q.23-.025.42-.049a1.251,1.251,0,0,0,.272-.058V56.07H247.3v8.313Z" transform="translate(-222.104 -51.856)"/>
  <path id="Path_227" data-name="Path 227" d="M359.959,54.124q.527-.132,1.4-.28a12.114,12.114,0,0,1,2.008-.148,4.343,4.343,0,0,1,1.7.288,2.655,2.655,0,0,1,1.078.807,3.123,3.123,0,0,1,.568,1.243,7.216,7.216,0,0,1,.165,1.6v4.806h-1.531V57.959a7.31,7.31,0,0,0-.107-1.35,2.281,2.281,0,0,0-.354-.905,1.4,1.4,0,0,0-.658-.5,2.893,2.893,0,0,0-1.021-.156c-.165,0-.335.006-.51.016s-.343.025-.5.041-.3.036-.428.058l-.272.049v7.226h-1.531V54.124Z" transform="translate(-332.552 -49.663)"/>
  <path id="Path_228" data-name="Path 228" d="M478.467,23.974h3.243v1.284h-3.243v3.95a4.729,4.729,0,0,0,.1,1.062,1.592,1.592,0,0,0,.3.658,1.064,1.064,0,0,0,.494.337,2.189,2.189,0,0,0,.691.1,3.235,3.235,0,0,0,1.119-.156q.411-.156.56-.222l.329,1.251a6.092,6.092,0,0,1-.815.3,4.474,4.474,0,0,1-1.325.181,3.99,3.99,0,0,1-1.44-.222,2.1,2.1,0,0,1-.914-.667,2.669,2.669,0,0,1-.486-1.095,7.217,7.217,0,0,1-.14-1.506V21.587l1.531-.263v2.65Z" transform="translate(-440.608 -19.76)"/>
  <path id="Path_229" data-name="Path 229" d="M565,64.383q-.527.132-1.391.28a11.945,11.945,0,0,1-2,.148,4.246,4.246,0,0,1-1.663-.288,2.683,2.683,0,0,1-1.087-.815,3.311,3.311,0,0,1-.593-1.243,6.472,6.472,0,0,1-.181-1.588V56.07h1.531v4.477a3.882,3.882,0,0,0,.494,2.239,1.924,1.924,0,0,0,1.663.675q.247,0,.51-.017t.494-.041q.231-.025.42-.049a1.248,1.248,0,0,0,.271-.058V56.07H565v8.313Z" transform="translate(-515.569 -51.856)"/>
  <path id="Path_230" data-name="Path 230" d="M670.746,7.724a3.457,3.457,0,1,0-3.457-3.457A3.457,3.457,0,0,0,670.746,7.724Z" transform="translate(-616.443 -0.81)" fill="#e95420"/>
  <path id="Path_231" data-name="Path 231" d="M678.325,17.271a.444.444,0,1,1-.445-.444A.444.444,0,0,1,678.325,17.271Zm2.529,2.161a.444.444,0,1,0,.163-.607A.445.445,0,0,0,680.854,19.433Zm.77-3.878a.444.444,0,1,0-.607.163A.444.444,0,0,0,681.623,15.555Zm-1.5.449a1.267,1.267,0,0,1,1.262,1.155l.643-.01a1.9,1.9,0,0,0-.561-1.233.625.625,0,0,1-.843-.487,1.915,1.915,0,0,0-1.348.131l.313.562A1.265,1.265,0,0,1,680.119,16Zm-1.267,1.267a1.266,1.266,0,0,1,.539-1.037l-.33-.552a1.912,1.912,0,0,0-.788,1.1.625.625,0,0,1,0,.974,1.912,1.912,0,0,0,.788,1.1l.33-.552A1.266,1.266,0,0,1,678.852,17.271Zm1.267,1.268a1.262,1.262,0,0,1-.534-.118l-.313.562a1.916,1.916,0,0,0,1.348.131.625.625,0,0,1,.843-.487,1.9,1.9,0,0,0,.561-1.233l-.643-.01A1.267,1.267,0,0,1,680.119,18.539Z" transform="translate(-625.816 -13.815)" fill="#fff"/>
</svg>
