<svg width="54" height="55" viewBox="0 0 54 55" fill="none" xmlns="http://www.w3.org/2000/svg">
<ellipse cx="27" cy="27.5" rx="27" ry="27.5" fill="#4DCA59"/>
<path d="M21.976 25.192C21.976 25.7573 21.8427 26.2907 21.576 26.792C21.3093 27.2933 20.8827 27.704 20.296 28.024C19.7093 28.3333 18.9573 28.488 18.04 28.488H16.024V33H14.2V21.88H18.04C18.8933 21.88 19.6133 22.0293 20.2 22.328C20.7973 22.616 21.24 23.0107 21.528 23.512C21.8267 24.0133 21.976 24.5733 21.976 25.192ZM18.04 27C18.7333 27 19.2507 26.8453 19.592 26.536C19.9333 26.216 20.104 25.768 20.104 25.192C20.104 23.976 19.416 23.368 18.04 23.368H16.024V27H18.04ZM23.1076 27.416C23.1076 26.328 23.3583 25.352 23.8596 24.488C24.3716 23.624 25.0596 22.952 25.9236 22.472C26.7983 21.9813 27.753 21.736 28.7876 21.736C29.9716 21.736 31.0223 22.0293 31.9396 22.616C32.8676 23.192 33.5396 24.0133 33.9556 25.08H31.7636C31.4756 24.4933 31.0756 24.056 30.5636 23.768C30.0516 23.48 29.4596 23.336 28.7876 23.336C28.0516 23.336 27.3956 23.5013 26.8196 23.832C26.2436 24.1627 25.7903 24.6373 25.4596 25.256C25.1396 25.8747 24.9796 26.5947 24.9796 27.416C24.9796 28.2373 25.1396 28.9573 25.4596 29.576C25.7903 30.1947 26.2436 30.6747 26.8196 31.016C27.3956 31.3467 28.0516 31.512 28.7876 31.512C29.4596 31.512 30.0516 31.368 30.5636 31.08C31.0756 30.792 31.4756 30.3547 31.7636 29.768H33.9556C33.5396 30.8347 32.8676 31.656 31.9396 32.232C31.0223 32.808 29.9716 33.096 28.7876 33.096C27.7423 33.096 26.7876 32.856 25.9236 32.376C25.0596 31.8853 24.3716 31.208 23.8596 30.344C23.3583 29.48 23.1076 28.504 23.1076 27.416ZM43.8666 25.192C43.8666 25.7573 43.7333 26.2907 43.4666 26.792C43.2 27.2933 42.7733 27.704 42.1866 28.024C41.6 28.3333 40.848 28.488 39.9306 28.488H37.9146V33H36.0906V21.88H39.9306C40.784 21.88 41.504 22.0293 42.0906 22.328C42.688 22.616 43.1306 23.0107 43.4186 23.512C43.7173 24.0133 43.8666 24.5733 43.8666 25.192ZM39.9306 27C40.624 27 41.1413 26.8453 41.4826 26.536C41.824 26.216 41.9946 25.768 41.9946 25.192C41.9946 23.976 41.3066 23.368 39.9306 23.368H37.9146V27H39.9306Z" fill="white"/>
</svg>
