<svg xmlns="http://www.w3.org/2000/svg" xmlns:xlink="http://www.w3.org/1999/xlink" width="622.224" height="345.997" viewBox="0 0 622.224 345.997">
  <defs>
    <filter id="Path_64">
      <feOffset dx="17" dy="14" input="SourceAlpha"/>
      <feGaussianBlur stdDeviation="3" result="blur"/>
      <feFlood flood-color="#4910AE" flood-opacity="0.059" result="color"/>
      <feComposite operator="out" in="SourceGraphic" in2="blur"/>
      <feComposite operator="in" in="color"/>
      <feComposite operator="in" in2="SourceGraphic"/>
    </filter>
  </defs>
  <g id="what_we_are" transform="translate(-60 -1124)">
    <g id="Group_87" data-name="Group 87" transform="translate(59.996 1124)">
      <path id="Path_63" data-name="Path 63" d="M264.111,340.52A170.26,170.26,0,1,0,93.851,170.26,170.26,170.26,0,0,0,264.111,340.52Z" fill="#88bbca"/>
      <g data-type="innerShadowGroup">
        <path id="Path_64-2" data-name="Path 64" d="M316.148,106.356a44.277,44.277,0,1,0-44.277-44.277A44.277,44.277,0,0,0,316.148,106.356Z" fill="#d6f0f6"/>
        <g transform="matrix(1, 0, 0, 1, 0, 0)" filter="url(#Path_64)">
          <path id="Path_64-3" data-name="Path 64" d="M316.148,106.356a44.277,44.277,0,1,0-44.277-44.277A44.277,44.277,0,0,0,316.148,106.356Z" transform="translate(0)" fill="#fff"/>
        </g>
      </g>
      <path id="Path_65" data-name="Path 65" d="M130.532,33.081l1.21,25.232c5.017,6.691,10.429,14.348,15.771,22.694l.763-38.493.421.269a75.126,75.126,0,0,0-18.585-9.935Z" fill="#4910AE"/>
      <path id="Path_66" data-name="Path 66" d="M130.859,57.145,129.687,32.7c-6.88-2.346-13.555-3.125-19.656-2.036-.317.057-.629.122-.941.188C110.64,32.519,119.675,42.341,130.859,57.145Z" fill="#4910AE"/>
      <path id="Path_67" data-name="Path 67" d="M186.408,87.248l.406.388q-2.5-4.7-5.3-9.147l-11.377,44.766-.193-.17q1.234,2.946,2.347,5.851Z" fill="#4910AE"/>
      <path id="Path_68" data-name="Path 68" d="M169.076,61.8l.419.335A118.11,118.11,0,0,0,149.124,43.1l-.777,39.227Q155.8,94.091,161.7,105.5Z" fill="#4910AE"/>
      <path id="Path_69" data-name="Path 69" d="M86.548,74.044a98.615,98.615,0,0,0,3.9,19.491l67.845,7c-3.542-6.531-7.2-12.659-10.747-18.244L86.724,74.579Z" fill="#4910AE"/>
      <path id="Path_70" data-name="Path 70" d="M92.91,100.857l-.183-.532,68.666,6.1q-1.245-2.435-2.516-4.8L90.782,94.6l-.179-.533Q91.631,97.425,92.91,100.857Z" fill="#4910AE"/>
      <path id="Path_71" data-name="Path 71" d="M180.739,77.555l.413.364a140.937,140.937,0,0,0-11.26-15.32l-7.478,44.3q3.888,7.633,7.042,15.051Z" fill="#4910AE"/>
      <path id="Path_72" data-name="Path 72" d="M179.287,151.553a115.048,115.048,0,0,1,3.08,33.373c3.84-8.181,18.443-42.075,12.984-73.663Z" fill="#4910AE"/>
      <path id="Path_73" data-name="Path 73" d="M105.507,124.731a136.431,136.431,0,0,0,11.845,13.9l-.166-.592,61.08,12.566a169.686,169.686,0,0,0-5.939-19.443Z" fill="#4910AE"/>
      <path id="Path_74" data-name="Path 74" d="M130.332,57.558c-12.1-16.013-21.656-26.135-21.793-26.28l.157-.337c-9.186,2.085-15.671,8.335-19.24,17.381Z" fill="#4910AE"/>
      <path id="Path_75" data-name="Path 75" d="M172.854,130.439c.225.6.455,1.206.673,1.806a168.729,168.729,0,0,1,5.342,17.544l15.912-39.908.389.39a66.883,66.883,0,0,0-5.08-16.081q-1.408-3.014-2.948-5.937Z" fill="#4910AE"/>
      <path id="Path_76" data-name="Path 76" d="M146.829,81.177c-5.287-8.247-10.638-15.812-15.6-22.424L89.42,49.3l-.142-.528c-2.61,6.874-3.565,15.319-2.774,24.751Z" fill="#4910AE"/>
      <path id="Path_77" data-name="Path 77" d="M178.514,151.658l-60.633-12.474c25.5,26.18,61.184,46.259,63.461,47.528a111.34,111.34,0,0,0-2.828-35.054Z" fill="#4910AE"/>
      <path id="Path_78" data-name="Path 78" d="M171.9,130.091l.013-.04a228.755,228.755,0,0,0-9.967-22.538l-68.834-6.118q1.753,4.643,3.962,9.383a82.063,82.063,0,0,0,7.623,12.841Z" fill="#4910AE"/>
      <path id="Path_79" data-name="Path 79" d="M259.458,118.073,244.3,138.278c-.4,8.353-1.119,17.7-2.328,27.537l25.139-29.161.153.476a75.156,75.156,0,0,0-7.978-19.506Z" fill="#4910AE"/>
      <path id="Path_80" data-name="Path 80" d="M244.365,136.813l14.686-19.572c-3.8-6.195-8.447-11.052-13.84-14.1-.281-.159-.562-.308-.844-.455C244.5,104.95,245.193,118.278,244.365,136.813Z" fill="#4910AE"/>
      <path id="Path_81" data-name="Path 81" d="M267.952,195.426l.066.557q1.074-5.219,1.75-10.426l-37.316,27.222-.04-.253q-.929,3.056-1.925,6Z" fill="#4910AE"/>
      <path id="Path_82" data-name="Path 82" d="M270.832,164.77l.109.525a118.19,118.19,0,0,0-3.549-27.653l-25.623,29.717q-1.763,13.818-4.5,26.369Z" fill="#4910AE"/>
      <path id="Path_83" data-name="Path 83" d="M199.457,121.564a98.686,98.686,0,0,0-9.431,17.5l47.79,48.662c1.438-7.289,2.53-14.341,3.359-20.906L199.25,122.087Z" fill="#4910AE"/>
      <path id="Path_84" data-name="Path 84" d="M187.257,146.275l.2-.527,48.992,48.5q.594-2.667,1.125-5.3L189.607,140.1l.2-.525Q188.46,142.816,187.257,146.275Z" fill="#4910AE"/>
      <path id="Path_85" data-name="Path 85" d="M269.764,184.343l.086.544a141.18,141.18,0,0,0,1.1-18.981l-34.014,29.349q-1.875,8.358-4.176,16.084Z" fill="#4910AE"/>
      <path id="Path_86" data-name="Path 86" d="M221.447,240.412a115.038,115.038,0,0,1-18.914,27.664c8.176-3.852,41.041-20.643,56.984-48.453Z" fill="#4910AE"/>
      <path id="Path_87" data-name="Path 87" d="M181.733,172.7a136.429,136.429,0,0,0,.255,18.264l.25-.561,39.029,48.635a169.676,169.676,0,0,0,7.827-18.763Z" fill="#4910AE"/>
      <path id="Path_88" data-name="Path 88" d="M243.691,136.794c.891-20.054-.009-33.941-.022-34.14l.336-.159c-8.4-4.253-17.387-3.576-25.9,1.115Z" fill="#4910AE"/>
      <path id="Path_89" data-name="Path 89" d="M229.961,220.047c-.211.608-.419,1.219-.634,1.82a168.555,168.555,0,0,1-7.076,16.919L259.96,218.2l.051.548a66.823,66.823,0,0,0,6.344-15.625q.838-3.219,1.516-6.452Z" fill="#4910AE"/>
      <path id="Path_90" data-name="Path 90" d="M241.336,165.507c1.188-9.724,1.892-18.963,2.29-27.219l-26.182-33.942.227-.5c-6.4,3.629-12.516,9.525-17.923,17.293Z" fill="#4910AE"/>
      <path id="Path_91" data-name="Path 91" d="M220.787,240,182.044,191.72c2.944,36.43,17.619,74.652,18.564,77.082A111.318,111.318,0,0,0,220.787,240Z" fill="#4910AE"/>
      <path id="Path_92" data-name="Path 92" d="M229.446,219.169l.036-.022a228.86,228.86,0,0,0,6.7-23.715l-49.113-48.616q-1.611,4.694-2.933,9.754a82.033,82.033,0,0,0-2.319,14.752Z" fill="#4910AE"/>
      <path id="Path_93" data-name="Path 93" d="M108.289,145.048l8.95,23.622c6.839,4.813,14.353,10.422,22.013,16.708l-11.173-36.844.483.126a75.139,75.139,0,0,0-20.746-3.7Z" fill="#4910AE"/>
      <path id="Path_94" data-name="Path 94" d="M116.039,167.828l-8.669-22.882c-7.268-.1-13.857,1.218-19.323,4.139-.284.152-.561.31-.837.47C89.2,150.657,100.827,157.21,116.039,167.828Z" fill="#4910AE"/>
      <path id="Path_95" data-name="Path 95" d="M178.172,179.287l.506.243q-3.832-3.7-7.87-7.06l3.017,46.091-.236-.1q2.083,2.421,4.04,4.84Z" fill="#4910AE"/>
      <path id="Path_96" data-name="Path 96" d="M153.821,160.44l.5.189a118.154,118.154,0,0,0-25.257-11.806l11.385,37.546q10.728,8.886,19.862,17.918Z" fill="#4910AE"/>
      <path id="Path_97" data-name="Path 97" d="M79.119,197.6a98.635,98.635,0,0,0,9.731,17.332l66.685-14.316c-5.387-5.117-10.758-9.814-15.86-14.028L79.448,198.051Z" fill="#4910AE"/>
      <path id="Path_98" data-name="Path 98" d="M93.46,221.129l-.338-.45,67.189-15.42q-1.937-1.929-3.878-3.79L89.5,215.837l-.335-.452Q91.184,218.261,93.46,221.129Z" fill="#4910AE"/>
      <path id="Path_99" data-name="Path 99" d="M169.784,171.821l.505.219a141.1,141.1,0,0,0-15.444-11.09l6.581,44.441q6.057,6.057,11.35,12.137Z" fill="#4910AE"/>
      <path id="Path_100" data-name="Path 100" d="M191.276,242.645a115,115,0,0,1,13.245,30.787c1.123-8.968,4.534-45.715-10.421-74.069Z" fill="#4910AE"/>
      <path id="Path_101" data-name="Path 101" d="M112.819,239.941a136.438,136.438,0,0,0,15.563,9.562l-.341-.511,61.972-6.929a169.481,169.481,0,0,0-11.658-16.656Z" fill="#4910AE"/>
      <path id="Path_102" data-name="Path 102" d="M115.663,168.383C99.2,156.9,86.99,150.222,86.814,150.127l.045-.369c-8.091,4.822-12.327,12.771-12.925,22.477Z" fill="#4910AE"/>
      <path id="Path_103" data-name="Path 103" d="M178.632,224.553c.4.5.8,1.006,1.2,1.509a168.69,168.69,0,0,1,10.5,15.034l2.8-42.872.49.251a66.813,66.813,0,0,0-9.8-13.723q-2.271-2.432-4.638-4.735Z" fill="#4910AE"/>
      <path id="Path_104" data-name="Path 104" d="M138.655,185.746c-7.577-6.209-15-11.749-21.765-16.505L74.2,173.18l-.3-.458c-.358,7.344,1.345,15.671,5.012,24.4Z" fill="#4910AE"/>
      <path id="Path_105" data-name="Path 105" d="M190.573,242.983l-61.519,6.882C161.4,266.88,201.54,274.946,204.1,275.449A111.344,111.344,0,0,0,190.573,242.983Z" fill="#4910AE"/>
      <path id="Path_106" data-name="Path 106" d="M177.615,224.517v-.042a228.827,228.827,0,0,0-16.445-18.353L93.816,221.58q3.1,3.873,6.669,7.7a82.056,82.056,0,0,0,11.219,9.856Z" fill="#4910AE"/>
      <path id="Path_107" data-name="Path 107" d="M473.169,289.4c0,20.42-105.044,56.6-234.621,56.6S3.927,309.817,3.927,289.4s105.044-17.35,234.621-17.35S473.169,268.978,473.169,289.4Z" fill="#3f3d56"/>
      <path id="Path_108" data-name="Path 108" d="M473.169,289.4c0,20.42-105.044,56.6-234.621,56.6S3.927,309.817,3.927,289.4s105.044-17.35,234.621-17.35S473.169,268.978,473.169,289.4Z" fill="#e5e5e5" opacity="0.1"/>
      <path id="Path_109" data-name="Path 109" d="M238.55,326.369c129.577,0,234.621-16.554,234.621-36.973S368.127,252.423,238.55,252.423,3.929,268.976,3.929,289.4,108.972,326.369,238.55,326.369Z" fill="#fff"/>
      <path id="Path_110" data-name="Path 110" d="M279.227,250.752c0,22.247-31.009,15.366-68.977,15.366S141.733,273,141.733,250.752s31.005-27.086,68.973-27.086S279.227,228.505,279.227,250.752Z" opacity="0.1"/>
      <path id="Path_111" data-name="Path 111" d="M279.227,245.275c0,22.247-31.009,15.366-68.977,15.366s-68.517,6.881-68.517-15.366,31.005-27.086,68.973-27.086S279.227,223.028,279.227,245.275Z" fill="#fff"/>
      <path id="Path_112" data-name="Path 112" d="M157.085,184.06a10.01,10.01,0,0,1,2.733-1.37,69.685,69.685,0,0,1,19.254-4.191c5.725-.406,11.93.076,16.4,3.674a5.629,5.629,0,0,1,1.664,1.938,7.1,7.1,0,0,1,.21,3.951,4.436,4.436,0,0,1-.383,1.487,3.342,3.342,0,0,1-3.37,1.41c-1.287-.137-2.494-.682-3.764-.934a16.768,16.768,0,0,0-2.377-.242l-7.961-.431c-4.95-.268-9.965-.532-14.821.468a14.787,14.787,0,0,0-4.282,1.476c-1.109.623-1.856,1.516-2.885.366C155.7,189.641,154.7,185.927,157.085,184.06Z" fill="#2f2e41"/>
      <path id="Path_113" data-name="Path 113" d="M169.422,187.581s10.707-4.8,14.769.738-2.215,3.323-2.215,3.323l-7.015,2.215-7.753-1.477Z" fill="#f2f2f2"/>
      <path id="Path_114" data-name="Path 114" d="M169.975,184.07s1.477,7.015.369,8.861,6.277,4.431,6.277,4.431l7.015-2.954s-1.846-11.446,0-13.661Z" fill="#ffb9b9"/>
      <path id="Path_115" data-name="Path 115" d="M169.975,184.07s1.477,7.015.369,8.861,6.277,4.431,6.277,4.431l7.015-2.954s-1.846-11.446,0-13.661Z" opacity="0.1"/>
      <path id="Path_116" data-name="Path 116" d="M163.056,268.424a40.334,40.334,0,0,1,2.44,6.394.519.519,0,0,0,.075.2.515.515,0,0,0,.354.235.513.513,0,0,0,.217-.009l6.567-.007c.81,0,1.9-.261,1.889-1.072-.006-.569-.588-.924-1.021-1.294-1.2-1.026-1.515-2.717-2.013-4.217a14.306,14.306,0,0,0-5.323-7.15,3.1,3.1,0,0,0-1.138-.562,3.18,3.18,0,0,0-1.248.068c-1.153.233-5.458,1.028-4.645,2.7.35.722,1.648,1.474,2.192,2.148a15.412,15.412,0,0,1,1.653,2.558Z" fill="#575a89"/>
      <path id="Path_117" data-name="Path 117" d="M185.893,260.808a14.858,14.858,0,0,1-.772,1.419c-.951,1.569-2.074,3.033-2.96,4.64a7.666,7.666,0,0,0-1.079,3.229,3.59,3.59,0,0,0,1.253,3.052,4.607,4.607,0,0,0,3.445.588,16.63,16.63,0,0,1,3.556-.419c-.4-2.277,1.518-4.281,2-6.543.135-.635.155-1.294.336-1.918a9.494,9.494,0,0,1,.743-1.644,21.214,21.214,0,0,0,2.006-5.915c.045-.25-5.838-.291-6.39-.171C186.308,257.5,186.56,259.38,185.893,260.808Z" fill="#575a89"/>
      <path id="Path_118" data-name="Path 118" d="M140.55,225.037c-1.679,2.628-1.292,6.111-.113,9s3.057,5.44,4.342,8.282c.819,1.812,1.394,3.733,2.316,5.494,1.142,2.181,2.81,4.1,3.576,6.444.489,1.492.6,3.126,1.392,4.482a13.616,13.616,0,0,0,1.631,2.023,18.712,18.712,0,0,1,3.758,6.714,6.693,6.693,0,0,1,5.114-4.034,19.729,19.729,0,0,1,6.781.168,28.452,28.452,0,0,1-3.272-6.1,61.13,61.13,0,0,1-1.425-6.558c-1-4.481-3.136-8.615-5.25-12.69l10.868-.862a42.312,42.312,0,0,1,5.34-.2c2.8.132,5.554.82,8.344,1.138a14.224,14.224,0,0,0,8.229-1.071,39.429,39.429,0,0,0-7.075,23.288,9.018,9.018,0,0,1,13.649,3.221c4.259-5.82,3.753-13.923,7.128-20.3.694-1.311,1.545-2.531,2.294-3.812a56.176,56.176,0,0,0,3.624-8.008c.944-2.415,1.9-5.1.99-7.531a7.894,7.894,0,0,0-1.613-2.481,10.858,10.858,0,0,0-7.556-3.8c-4.448-.1-8.123,3.2-12.025,5.334a27.675,27.675,0,0,1-15.186,3.149c-5.36-.379-10.479-2.134-15.586-3.679a74.2,74.2,0,0,0-7.778-2.007,14.542,14.542,0,0,0-6.434.6C144.264,221.852,141.9,222.921,140.55,225.037Z" fill="#2f2e41"/>
      <path id="Path_119" data-name="Path 119" d="M186.958,177.056a11.086,11.086,0,0,1-11.076,11.076,10.823,10.823,0,0,1-1.968-.177,11.075,11.075,0,1,1,13.044-10.9Z" fill="#ffb9b9"/>
      <path id="Path_120" data-name="Path 120" d="M169.421,187.58a13.074,13.074,0,0,1,2.769,1.661c.738.738,2.954,4.8,6.646,2.215s4.061-4.061,5.169-4.061,2.584,2.215,2.584,2.215l10.153,30.46a42.523,42.523,0,0,1-9.415,7.938c-5.907,3.692-12.922,5.538-16.245,4.061s-9.6-2.584-10.707-5.538-2.954-11.815-2.954-11.815l5.169-22.522Z" fill="#f2f2f2"/>
      <path id="Path_121" data-name="Path 121" d="M168,218.388a14.52,14.52,0,0,0,.99-5.622,34.184,34.184,0,0,0-.15-5.687c-.327-2.47-1.131-4.849-1.639-7.288a30.727,30.727,0,0,1-.646-6.5,5.285,5.285,0,0,1,.623-2.883,9.233,9.233,0,0,0,1.209-1.689c.464-1.282-.683-2.625-1.94-3.153a7.629,7.629,0,0,0-4.78-.192,22.677,22.677,0,0,0-4.5,1.839,10.258,10.258,0,0,0-2.937,1.9,9.584,9.584,0,0,0-2.057,4.436,9.071,9.071,0,0,0-.367,3.91c.4,2.1,2.119,3.689,3.034,5.627a12.326,12.326,0,0,1,.568,7.327c-.423,2.453-1.173,4.852-1.4,7.33a9.852,9.852,0,0,0,1.677,7.088c.633.793,2.349,2.672,3.508,2.459.91-.167,2.229-2.17,2.962-2.8C164.267,222.646,166.779,221.019,168,218.388Z" fill="#2f2e41"/>
      <path id="Path_122" data-name="Path 122" d="M187.34,186.377a11.106,11.106,0,0,1-1.943,5.778,40.512,40.512,0,0,0-3.108,5.33,12.219,12.219,0,0,0-.57,7.516,24.417,24.417,0,0,0,.815,2.515l2.023,5.549a9.627,9.627,0,0,0,1.173,2.463,7.965,7.965,0,0,0,1.594,1.534,14.882,14.882,0,0,0,5.2,2.714,8.8,8.8,0,0,0,5.784-.33,83.712,83.712,0,0,1,3.593-22.183,8.047,8.047,0,0,0,.535-4.082,7.7,7.7,0,0,0-2.725-3.694c-3.541-3.18-7.434-6.519-12.174-6.948C184.795,182.289,187.317,184.888,187.34,186.377Z" fill="#2f2e41"/>
      <path id="Path_123" data-name="Path 123" d="M163.108,229.3c.281.55.456,1.148.733,1.7a9.513,9.513,0,0,0,1.507,2.026c2.469,2.737,5.486,5.464,9.169,5.629a2.515,2.515,0,0,0,1.081-.136,2.138,2.138,0,0,0,1.15-1.644,6.989,6.989,0,0,0-1-4.165c-1.37-2.837-2.911-5.746-5.475-7.575a10.273,10.273,0,0,0-8.863-1.333c-1.336.412-3.551,1.13-1.782,2.349C160.969,227.076,162.333,227.78,163.108,229.3Z" fill="#ffb9b9"/>
      <path id="Path_124" data-name="Path 124" d="M179.029,193.186a8.245,8.245,0,0,0-1.733-2.794,6.416,6.416,0,0,0-2.647-1.341,14.448,14.448,0,0,0-3.883-.557c-1.564-.01-3.377.41-4.041,1.825a4.307,4.307,0,0,0,.412,3.578,3.516,3.516,0,0,0,1.1,1.479,6.086,6.086,0,0,0,2.346.594,10.821,10.821,0,0,1,3.467,1.571l2.739,1.655,4.7,2.843c-.124-.075-.08-3.3-.224-3.83a37.289,37.289,0,0,0-2.231-5.023Z" fill="#ffb9b9"/>
      <path id="Path_125" data-name="Path 125" d="M165.325,273.983c-1.1,1.5-.88,3.634-1.855,5.215-.845,1.37-2.438,2.089-3.5,3.3a8.816,8.816,0,0,0-.9,1.293c-.981,1.643-1.778,3.748-.812,5.4.777,1.328,2.41,1.848,3.908,2.2a14.335,14.335,0,0,0,5.775.463,5.75,5.75,0,0,0,4.469-3.336,12.837,12.837,0,0,1,.478-1.348c1.038-2.043,4.293-2.065,5.356-4.1.743-1.421.06-3.139-.623-4.59l-2.086-4.432c-.692-1.471-3.5-.625-4.962-.977C168.669,272.617,166.7,272.111,165.325,273.983Z" fill="#2f2e41"/>
      <path id="Path_126" data-name="Path 126" d="M181.461,270.175a5.941,5.941,0,0,0-1.888,2.586,28.3,28.3,0,0,0-1.731,7.566,9.2,9.2,0,0,0-.06,3.1,6.218,6.218,0,0,0,4.4,4.292,18.332,18.332,0,0,0,6.394.438,4.575,4.575,0,0,0,2.01-.408,3.113,3.113,0,0,0,1.315-3.209,9.113,9.113,0,0,0-1.5-3.346,9.167,9.167,0,0,1-1.5-3.345c-.314-2.047.571-5.052-.686-6.9S183.143,269,181.461,270.175Z" fill="#2f2e41"/>
      <path id="Path_127" data-name="Path 127" d="M186.68,171.286a2.815,2.815,0,0,0-1.219-1.592,6.456,6.456,0,0,0-.257-2.1c-.671-1.983-2.26-1.869-3.759-2.746-.65-.38-.61-.717-.949-1.341a4.978,4.978,0,0,0-1.918-1.957,6.9,6.9,0,0,0-3.115-1.322c-2.391-.163-4.225,2.086-6.51,2.808-1.007.318-2.09.331-3.1.632a2.854,2.854,0,0,0-2.174,2.065c-.07.483.053.978-.017,1.461-.141.959-.982,1.631-1.545,2.42a5.963,5.963,0,0,0-.107,6.108,8.566,8.566,0,0,0,.718,1.124,6.907,6.907,0,0,0,.758,2.568,12.8,12.8,0,0,0,4.5,4.5A10.584,10.584,0,0,1,167.72,182a1.324,1.324,0,0,1,.082-.635c.2-.417.726-.528,1.128-.756a2.85,2.85,0,0,0,1.183-2.476c.024-.957-.179-1.915-.078-2.867a1.57,1.57,0,0,1,.536-1.153,1.852,1.852,0,0,1,1.011-.241,11.411,11.411,0,0,0,4.991-.907,7.405,7.405,0,0,1,1.553-.786,3.3,3.3,0,0,1,3.321,1.659c.737,1.1,1.1,2.4,1.784,3.534a3.589,3.589,0,0,0,3.168,2.009.523.523,0,0,0,.214-.045.529.529,0,0,0,.178-.129.6.6,0,0,0,.072-.334l.073-5.023a7.605,7.605,0,0,0-.256-2.561Z" fill="#2f2e41"/>
      <path id="Path_128" data-name="Path 128" d="M151.626,197.561a20.1,20.1,0,0,0-2.856,4.85c-.341,1.053-.447,2.166-.7,3.245-.823,3.594-3.2,6.787-3.441,10.467a4.986,4.986,0,0,0,.349,2.4c.682,1.484,2.315,2.266,3.873,2.758a12.331,12.331,0,0,1,4.474,1.906,13.71,13.71,0,0,1,1.7,1.965,16.429,16.429,0,0,0,7.844,5.367c-.244-1.68-.358-3.7.985-4.743a4.869,4.869,0,0,1,2.614-.741l4.326-.374a55.623,55.623,0,0,0-9.483-7.388,6.9,6.9,0,0,1-3.044-2.814,6.808,6.808,0,0,1-.345-2.6,63.922,63.922,0,0,0-.815-9.6c-.356-2.206-.828-4.391-1.367-6.559-.151-.609-1.046-3.339-2.148-2.7-.259.15-.5,1.882-.654,2.242a13.609,13.609,0,0,1-1.317,2.319Z" fill="#2f2e41"/>
      <path id="Path_129" data-name="Path 129" d="M201.453,191.672l1.767,3.674a8.828,8.828,0,0,1,1.114,4.968l.1,11.021a16.022,16.022,0,0,1-.362,4.389,3.508,3.508,0,0,1-.609,1.31,4.049,4.049,0,0,1-1.045.842c-3.344,2.089-7.679,3.276-11.212,1.526a15.546,15.546,0,0,1-2.3-1.5,18.271,18.271,0,0,1-3.89-3.5,24.105,24.105,0,0,1-2.476-4.9,37.6,37.6,0,0,0-5.115-8.389,2.21,2.21,0,0,1-.633-1.256c-.022-.966,1.124-1.442,2.018-1.809a4.93,4.93,0,0,0,3.222-3.47c3.247,4.258,6.829,8.756,11.952,10.312a.535.535,0,0,0,.269.083.518.518,0,0,0,.272-.067.524.524,0,0,0,.272-.468c.291-1.217.394-2.47.606-3.7a21.125,21.125,0,0,1,2.225-6.416C198.241,193.19,200.206,189.072,201.453,191.672Z" fill="#2f2e41"/>
      <path id="Path_130" data-name="Path 130" d="M157.614,202.294a16.938,16.938,0,0,1-1.619,7.551,6.239,6.239,0,0,0-.634,1.664,4.487,4.487,0,0,0,1.32,3.4,13.993,13.993,0,0,0,5.987,4.165" opacity="0.1"/>
      <path id="Path_131" data-name="Path 131" d="M195.975,200.1a3.62,3.62,0,0,0,.177,2.193,22.088,22.088,0,0,1,.805,6.413.233.233,0,0,1-.06.214.227.227,0,0,1-.1.06.224.224,0,0,1-.115.006,2.944,2.944,0,0,1-2.406-.57" opacity="0.1"/>
      <path id="Path_132" data-name="Path 132" d="M340.8,304.459c31.764,0,57.514-5.518,57.514-12.324s-25.75-12.324-57.514-12.324-57.514,5.518-57.514,12.324S309.033,304.459,340.8,304.459Z" opacity="0.1"/>
      <path id="Path_133" data-name="Path 133" d="M369.554,182.127l-4.108,4.108,4.108,4.108,4.108-8.216Z" fill="#a0616a"/>
      <path id="Path_134" data-name="Path 134" d="M370.478,146.506c1.153.472,1.7,1.762,2.136,2.929l5.329,14.32,1.037,2.787c.509,1.367,1.018,2.735,1.448,4.128q.408,1.321.722,2.672a7.016,7.016,0,0,1,.245,2.369,6.576,6.576,0,0,1-.942,2.468,22.08,22.08,0,0,1-7.676,7.872,7.16,7.16,0,0,0-4.166-5.448l2.756-1.516a4.982,4.982,0,0,0,1.544-1.131,3.383,3.383,0,0,0,.59-2.585,11.064,11.064,0,0,0-.818-2.593,70.989,70.989,0,0,1-2.4-7.054,15.037,15.037,0,0,0-1.56-4.107c-.72-1.123-1.763-2.021-2.416-3.184a8.446,8.446,0,0,1-.531-5.939c.372-1.676.994-3.288,1.518-4.92C367.7,146.292,369.244,146,370.478,146.506Z" fill="#d0cde1"/>
      <path id="Path_135" data-name="Path 135" d="M345.072,108.248a6.522,6.522,0,0,0-4.473,4.583c-.2,1.017-.078,2.074-.247,3.1-.393,2.372-2.255,4.184-3.972,5.867s-3.491,3.638-3.616,6.039c-.137,2.629,1.77,5.093,1.44,7.7-.383,3.035-3.589,5-4.381,7.956a7.651,7.651,0,0,0,1.186,5.84,16.712,16.712,0,0,0,9.207,6.781,38.363,38.363,0,0,0,11.533,1.5c4.739.05,9.885-.357,13.445-3.485a10.77,10.77,0,0,0,3.576-7.012c.338-3.623-1.174-7.367-.131-10.853.656-2.194,2.3-4.2,2.057-6.475-.24-2.226-2.185-3.8-3.518-5.6a22.734,22.734,0,0,1-2.742-5.617l-2.534-6.689a7.769,7.769,0,0,0-2.156-3.561c-2.078-1.616-5.42-1.3-7.851-.965C349.641,107.668,347.24,107.515,345.072,108.248Z" fill="#2f2e41"/>
      <path id="Path_136" data-name="Path 136" d="M347.032,130.292s.248,7.441-.5,8.186,2.977,5.705,2.977,5.705l6.7-.248,3.473-2.729-2.977-3.969s-1.24-6.449-.248-7.938S347.032,130.292,347.032,130.292Z" fill="#a0616a"/>
      <path id="Path_137" data-name="Path 137" d="M347.032,130.292s.248,7.441-.5,8.186,2.977,5.705,2.977,5.705l6.7-.248,3.473-2.729-2.977-3.969s-1.24-6.449-.248-7.938S347.032,130.292,347.032,130.292Z" opacity="0.1"/>
      <path id="Path_138" data-name="Path 138" d="M331.526,187.72l4.217,9.426,3.225-3.969-6.449-8.434Z" fill="#a0616a"/>
      <path id="Path_139" data-name="Path 139" d="M320.243,282.1l-1.736,9.674-2.977,4.217,1.736.992,2.977-.5,3.473-1.24,1.488-5.7,2.729-7.442Z" fill="#a0616a"/>
      <path id="Path_140" data-name="Path 140" d="M351.993,276.144,351,290.035l2.48,1.984,3.969-3.473V278.377Z" fill="#a0616a"/>
      <path id="Path_141" data-name="Path 141" d="M351.125,133.145a8.93,8.93,0,1,0-8.93-8.93A8.93,8.93,0,0,0,351.125,133.145Z" fill="#a0616a"/>
      <path id="Path_142" data-name="Path 142" d="M358.016,136.225a2.069,2.069,0,0,0-1.721-.033,13.922,13.922,0,0,0-1.575.821,7.292,7.292,0,0,1-4.239.771,1.47,1.47,0,0,1-.5-.128,2.389,2.389,0,0,1-.454-.366,2.629,2.629,0,0,0-3.639.314c-.262.327-.442.717-.728,1.023a4.039,4.039,0,0,1-3.05.823,28.239,28.239,0,0,0-6.7.614,12.267,12.267,0,0,0-5.884,3.118,4.479,4.479,0,0,0-1.045,1.49c-.3.772-.26,1.639-.529,2.422-.3.872-.963,1.587-1.232,2.469a9.885,9.885,0,0,1-.513,2.01c1.45,1.255,2.678,2.928,4.127,4.183a6.753,6.753,0,0,1,2.325,2.946,9.638,9.638,0,0,1,.215,2.285c.179,3.669,2.169,7,4.4,9.92a11.19,11.19,0,0,0,2.169,2.3,9.412,9.412,0,0,0,3.744,1.5,36.648,36.648,0,0,0,7.729.49,26.293,26.293,0,0,0,7.934-.914A7.056,7.056,0,0,0,362.2,172.2c1.045-1.284,1.453-3.14,2.879-3.981a5.226,5.226,0,0,0,.975-.582,2.529,2.529,0,0,0,.6-1.115,17.271,17.271,0,0,0,.816-4.814,14.041,14.041,0,0,1,.2-2.931,9.969,9.969,0,0,1,1.068-2.426l2.955-5.359a3.785,3.785,0,0,0,.2-1.573,3.879,3.879,0,0,0-.636-2.012,17.162,17.162,0,0,0-8.538-7.474,3.53,3.53,0,0,1-.807-.4,3.325,3.325,0,0,1-.738-.881C360.389,137.483,359.432,136.152,358.016,136.225Z" fill="#d0cde1"/>
      <path id="Path_143" data-name="Path 143" d="M321.19,165.41a21.318,21.318,0,0,0-1.276,4.4,10.693,10.693,0,0,0,.966,6.1c1.592,3.278,4.727,5.5,6.94,8.4,2.056,2.69,3.28,5.915,5.06,8.794a2.239,2.239,0,0,1,.575-2.2,11.655,11.655,0,0,0,1.53-1.825,5.3,5.3,0,0,0,.471-1.727c.266-1.786.409-3.726-.5-5.285a17.611,17.611,0,0,0-2.806-2.937,8.758,8.758,0,0,1-2.217-7.579c.18-.928.512-1.82.761-2.732a31.178,31.178,0,0,0,.7-3.725l1.117-7.672c.3-2.041.548-4.3-.607-6.007a2.5,2.5,0,0,0-.907-.858,3.246,3.246,0,0,0-.965-.272c-1.216-.2-2.862-.731-3.456.572-.716,1.572-1.215,3.286-1.815,4.907Z" fill="#d0cde1"/>
      <path id="Path_144" data-name="Path 144" d="M363.764,169.608s-14.746,2.853-18.218,2.853h-6.2a18.8,18.8,0,0,0-2.232,7.938c0,3.969-14.635,59.531-14.635,59.531s-13.891,45.641,1.488,45.889,25.053.992,25.3-4.217S351,209.172,351,209.172l2.315,34.565a85.793,85.793,0,0,1-1.971,25.519c-1.11,4.687-.938,9.825,4.617,10.858,10.666,1.984,24.061.248,24.061-3.473s-6.945-86.32-6.945-86.32-3.473-12.154-5.457-13.147S363.764,169.608,363.764,169.608Z" fill="#2f2e41"/>
      <path id="Path_145" data-name="Path 145" d="M317.514,295.491l5.457-1.984,3.721-9.426,3.969-.5s-2.232,4.713-3.473,5.457-3.225,6.945-3.225,6.945.992,2.48-3.721,3.473-8.186,1.736-8.186,1.736-.5-.992,1.736-3.473a59.341,59.341,0,0,0,4.839-6.656Z" fill="#2f2e41"/>
      <path id="Path_146" data-name="Path 146" d="M351,284.084l-.992,7.441s2.729,3.969,3.473,3.969,4.713-3.473,4.713-3.473a29.194,29.194,0,0,1,0-4.713c.248-.992.744-5.705,0-5.953s-.744,5.528-.744,5.528l-3.225,3.4-3.109-1.864Z" fill="#2f2e41"/>
      <path id="Path_147" data-name="Path 147" d="M351.869,124.215c5.343,0,9.674-2.332,9.674-5.209s-4.331-5.209-9.674-5.209-9.674,2.332-9.674,5.209S346.527,124.215,351.869,124.215Z" fill="#2f2e41"/>
      <path id="Path_148" data-name="Path 148" d="M0,221.228c0,29.221,18.332,52.866,40.986,52.866Z" fill="#3f3d56"/>
      <path id="Path_149" data-name="Path 149" d="M40.986,274.1c0-29.549,20.457-53.46,45.738-53.46Z" fill="#4910AE"/>
      <path id="Path_150" data-name="Path 150" d="M14.85,223.878c0,27.757,11.69,50.217,26.136,50.217Z" fill="#4910AE"/>
      <path id="Path_151" data-name="Path 151" d="M40.986,274.1c0-37.757,23.645-68.31,52.866-68.31Z" fill="#3f3d56"/>
      <path id="Path_152" data-name="Path 152" d="M32.367,274.467s5.812-.179,7.564-1.426,8.941-2.737,9.376-.736,8.735,9.95,2.173,10-15.248-1.022-17-2.087S32.367,274.467,32.367,274.467Z" fill="#a8a8a8"/>
      <path id="Path_153" data-name="Path 153" d="M51.594,281.611c-6.562.053-15.248-1.022-17-2.087-1.331-.811-1.862-3.721-2.04-5.064l-.194.008s.368,4.688,2.117,5.753,10.434,2.14,17,2.087c1.894-.015,2.549-.689,2.513-1.687C53.726,281.223,53,281.6,51.594,281.611Z" opacity="0.2"/>
    </g>
    <g id="Group_106" data-name="Group 106" transform="translate(1506.616 1904.29) rotate(180)">
      <path id="Path_169" data-name="Path 169" d="M224,0s-47.923,28.633-85.056,24.689S76.518-12.946,64.376-15.219C20.941-23.351,0,0,0,0" transform="translate(857.5 663.5)" fill="none" stroke="#15d490" stroke-linecap="round" stroke-width="3" stroke-dasharray="7 9"/>
      <path id="Polygon_2" data-name="Polygon 2" d="M16,0,32,30H0Z" transform="matrix(-0.602, -0.799, 0.799, -0.602, 843.649, 695.29)" fill="#4910AE"/>
    </g>
    <g id="Group_107" data-name="Group 107" transform="matrix(-0.809, 0.588, -0.588, -0.809, 1718.979, 1216.027)">
      <path id="Path_169-2" data-name="Path 169" d="M224,0s-47.923,28.633-85.056,24.689S76.518-12.946,64.376-15.219C20.941-23.351,0,0,0,0" transform="translate(857.5 663.5)" fill="none" stroke="#15d490" stroke-linecap="round" stroke-width="3" stroke-dasharray="7 9"/>
      <path id="Polygon_2-2" data-name="Polygon 2" d="M16,0,32,30H0Z" transform="matrix(-0.602, -0.799, 0.799, -0.602, 843.649, 695.29)" fill="#4910AE"/>
    </g>
  </g>
</svg>
