<svg id="Group_170" data-name="Group 170" xmlns="http://www.w3.org/2000/svg" width="81.225" height="17.341" viewBox="0 0 81.225 17.341">
  <path id="Path_217" data-name="Path 217" d="M200.708,22.219V20.79h-1.774V18.569l-.06.018-1.666.51-.033.01V20.79h-2.63v-.937a1.49,1.49,0,0,1,.29-.993,1.022,1.022,0,0,1,.812-.332,1.892,1.892,0,0,1,.771.176l.065.029v-1.5l-.031-.011a3,3,0,0,0-.985-.132,2.888,2.888,0,0,0-1.4.336,2.387,2.387,0,0,0-.959.948,2.826,2.826,0,0,0-.34,1.391v1.03h-1.235v1.428h1.235v6.018h1.773V22.219h2.63v3.824c0,1.575.743,2.373,2.208,2.373a3.625,3.625,0,0,0,.753-.084,2.07,2.07,0,0,0,.548-.174l.023-.014V26.7l-.072.048a1.231,1.231,0,0,1-.357.156,1.356,1.356,0,0,1-.35.06.951.951,0,0,1-.755-.275,1.481,1.481,0,0,1-.24-.957V22.219Zm-13.131,4.748a1.881,1.881,0,0,1-1.509-.634,2.692,2.692,0,0,1-.542-1.79,2.8,2.8,0,0,1,.542-1.838,1.851,1.851,0,0,1,1.494-.644,1.823,1.823,0,0,1,1.455.616,2.743,2.743,0,0,1,.531,1.823,2.925,2.925,0,0,1-.5,1.845A1.778,1.778,0,0,1,187.577,26.966Zm.079-6.356a3.889,3.889,0,0,0-2.9,1.069A4.01,4.01,0,0,0,183.71,24.6a3.8,3.8,0,0,0,1.022,2.787,3.708,3.708,0,0,0,2.744,1.03,3.783,3.783,0,0,0,2.841-1.084,4,4,0,0,0,1.047-2.89,3.9,3.9,0,0,0-.982-2.808A3.618,3.618,0,0,0,187.656,20.611Zm-6.8,0a3.206,3.206,0,0,0-2.054.635A2.026,2.026,0,0,0,178,22.9a2.312,2.312,0,0,0,.173.924,1.856,1.856,0,0,0,.53.692,4.614,4.614,0,0,0,1.078.6,8.037,8.037,0,0,1,.9.417,1.248,1.248,0,0,1,.395.324.728.728,0,0,1,.11.422c0,.5-.375.744-1.146.744a3.147,3.147,0,0,1-.969-.177,3.642,3.642,0,0,1-.993-.5L178,26.29V28l.027.013a4.4,4.4,0,0,0,.94.29,5.042,5.042,0,0,0,1,.116,3.4,3.4,0,0,0,2.169-.639,2.065,2.065,0,0,0,.808-1.691,1.945,1.945,0,0,0-.435-1.279,3.723,3.723,0,0,0-1.476-.94,3.8,3.8,0,0,1-1.052-.547.765.765,0,0,1-.212-.573.639.639,0,0,1,.269-.531,1.209,1.209,0,0,1,.755-.213,3.09,3.09,0,0,1,.9.138,2.89,2.89,0,0,1,.785.364l.073.05V20.935l-.028-.012a3.876,3.876,0,0,0-.8-.222A4.888,4.888,0,0,0,180.851,20.611Zm-7.477,6.355a1.881,1.881,0,0,1-1.508-.634,2.691,2.691,0,0,1-.542-1.79,2.8,2.8,0,0,1,.542-1.838,1.85,1.85,0,0,1,1.494-.644,1.823,1.823,0,0,1,1.455.616,2.744,2.744,0,0,1,.531,1.823,2.924,2.924,0,0,1-.5,1.845A1.777,1.777,0,0,1,173.374,26.966Zm.079-6.355a3.888,3.888,0,0,0-2.9,1.069,4.01,4.01,0,0,0-1.047,2.919,3.8,3.8,0,0,0,1.022,2.787,3.708,3.708,0,0,0,2.744,1.03,3.783,3.783,0,0,0,2.841-1.084,4,4,0,0,0,1.047-2.89,3.9,3.9,0,0,0-.983-2.808,3.619,3.619,0,0,0-2.726-1.023Zm-6.638,1.469V20.79h-1.752v7.446h1.752V24.427a2.655,2.655,0,0,1,.437-1.582,1.339,1.339,0,0,1,1.133-.6,2.053,2.053,0,0,1,.527.077,1.334,1.334,0,0,1,.408.165l.073.053V20.777l-.028-.012a1.813,1.813,0,0,0-.686-.1,1.8,1.8,0,0,0-1.171.42,2.373,2.373,0,0,0-.674,1h-.018Zm-4.888-1.469a4.326,4.326,0,0,0-2.13.512,3.448,3.448,0,0,0-1.4,1.445,4.6,4.6,0,0,0-.482,2.14,3.948,3.948,0,0,0,.469,1.918,3.294,3.294,0,0,0,1.311,1.325,3.9,3.9,0,0,0,1.915.466,4.2,4.2,0,0,0,2.113-.495l.023-.013V26.3l-.074.054a3.3,3.3,0,0,1-.857.446,2.594,2.594,0,0,1-.839.163,2.158,2.158,0,0,1-1.639-.639,2.486,2.486,0,0,1-.6-1.771,2.579,2.579,0,0,1,.631-1.818A2.145,2.145,0,0,1,162,22.061a2.812,2.812,0,0,1,1.667.58l.073.053V21l-.024-.013a2.89,2.89,0,0,0-.81-.274,4.84,4.84,0,0,0-.979-.105Zm-5.224.179h-1.752v7.446H156.7V20.79Zm-.858-3.172a1.055,1.055,0,0,0-.746.293.966.966,0,0,0-.313.73.938.938,0,0,0,.309.716,1.066,1.066,0,0,0,.749.285,1.08,1.08,0,0,0,.753-.285.934.934,0,0,0,.313-.716.984.984,0,0,0-.3-.723A1.045,1.045,0,0,0,155.846,17.618Zm-4.37,2.623v8h1.787V17.846h-2.474l-3.145,7.718-3.052-7.718h-2.575v10.39h1.68v-8h.058l3.223,8h1.268l3.172-8Z" transform="translate(-119.482 -14.374)" fill="#706d6e"/>
  <path id="Path_218" data-name="Path 218" d="M8.24,8.24H0V0H8.24Z" fill="#f1511b"/>
  <path id="Path_219" data-name="Path 219" d="M65.574,8.24h-8.24V0h8.24Z" transform="translate(-48.236)" fill="#80cc28"/>
  <path id="Path_220" data-name="Path 220" d="M8.24,65.594H0v-8.24H8.24Z" transform="translate(0 -48.253)" fill="#00adef"/>
  <path id="Path_221" data-name="Path 221" d="M65.574,65.594h-8.24v-8.24h8.24Z" transform="translate(-48.236 -48.253)" fill="#fbbc09"/>
</svg>
